<?xml version="1.0" encoding="utf-8" standalone="no"?>
<!DOCTYPE svg PUBLIC "-//W3C//DTD SVG 1.1//EN"
  "http://www.w3.org/Graphics/SVG/1.1/DTD/svg11.dtd">
<svg xmlns:xlink="http://www.w3.org/1999/xlink" width="1080pt" height="360pt" viewBox="0 0 1080 360" xmlns="http://www.w3.org/2000/svg" version="1.1">
 <metadata>
  <rdf:RDF xmlns:dc="http://purl.org/dc/elements/1.1/" xmlns:cc="http://creativecommons.org/ns#" xmlns:rdf="http://www.w3.org/1999/02/22-rdf-syntax-ns#">
   <cc:Work>
    <dc:type rdf:resource="http://purl.org/dc/dcmitype/StillImage"/>
    <dc:date>2026-01-28T11:04:34.899786</dc:date>
    <dc:format>image/svg+xml</dc:format>
    <dc:creator>
     <cc:Agent>
      <dc:title>Matplotlib v3.10.8, https://matplotlib.org/</dc:title>
     </cc:Agent>
    </dc:creator>
   </cc:Work>
  </rdf:RDF>
 </metadata>
 <defs>
  <style type="text/css">*{stroke-linejoin: round; stroke-linecap: butt}</style>
 </defs>
 <g id="figure_1">
  <g id="patch_1">
   <path d="M 0 360 
L 1080 360 
L 1080 0 
L 0 0 
z
" style="fill: #ffffff"/>
  </g>
  <g id="axes_1">
   <g id="patch_2">
    <path d="M 111.345 268.38 
L 512.536709 268.38 
L 512.536709 25.92 
L 111.345 25.92 
z
" style="fill: #eaeaf2"/>
   </g>
   <g id="matplotlib.axis_1">
    <g id="xtick_1">
     <g id="line2d_1">
      <path d="M 129.580987 268.38 
L 129.580987 25.92 
" clip-path="url(#p5a62d4d441)" style="fill: none; stroke: #ffffff; stroke-width: 2; stroke-linecap: round"/>
     </g>
     <g id="text_1">
      <!-- 0.0 -->
      <g style="fill: #262626" transform="translate(112.087549 300.596563) scale(0.22 -0.22)">
       <defs>
        <path id="DejaVuSans-30" d="M 2034 4250 
Q 1547 4250 1301 3770 
Q 1056 3291 1056 2328 
Q 1056 1369 1301 889 
Q 1547 409 2034 409 
Q 2525 409 2770 889 
Q 3016 1369 3016 2328 
Q 3016 3291 2770 3770 
Q 2525 4250 2034 4250 
z
M 2034 4750 
Q 2819 4750 3233 4129 
Q 3647 3509 3647 2328 
Q 3647 1150 3233 529 
Q 2819 -91 2034 -91 
Q 1250 -91 836 529 
Q 422 1150 422 2328 
Q 422 3509 836 4129 
Q 1250 4750 2034 4750 
z
" transform="scale(0.015625)"/>
        <path id="DejaVuSans-2e" d="M 684 794 
L 1344 794 
L 1344 0 
L 684 0 
L 684 794 
z
" transform="scale(0.015625)"/>
       </defs>
       <use xlink:href="#DejaVuSans-30"/>
       <use xlink:href="#DejaVuSans-2e" transform="translate(63.623047 0)"/>
       <use xlink:href="#DejaVuSans-30" transform="translate(95.410156 0)"/>
      </g>
     </g>
    </g>
    <g id="xtick_2">
     <g id="line2d_2">
      <path d="M 203.553351 268.38 
L 203.553351 25.92 
" clip-path="url(#p5a62d4d441)" style="fill: none; stroke: #ffffff; stroke-width: 2; stroke-linecap: round"/>
     </g>
     <g id="text_2">
      <!-- 0.2 -->
      <g style="fill: #262626" transform="translate(186.059914 300.596563) scale(0.22 -0.22)">
       <defs>
        <path id="DejaVuSans-32" d="M 1228 531 
L 3431 531 
L 3431 0 
L 469 0 
L 469 531 
Q 828 903 1448 1529 
Q 2069 2156 2228 2338 
Q 2531 2678 2651 2914 
Q 2772 3150 2772 3378 
Q 2772 3750 2511 3984 
Q 2250 4219 1831 4219 
Q 1534 4219 1204 4116 
Q 875 4013 500 3803 
L 500 4441 
Q 881 4594 1212 4672 
Q 1544 4750 1819 4750 
Q 2544 4750 2975 4387 
Q 3406 4025 3406 3419 
Q 3406 3131 3298 2873 
Q 3191 2616 2906 2266 
Q 2828 2175 2409 1742 
Q 1991 1309 1228 531 
z
" transform="scale(0.015625)"/>
       </defs>
       <use xlink:href="#DejaVuSans-30"/>
       <use xlink:href="#DejaVuSans-2e" transform="translate(63.623047 0)"/>
       <use xlink:href="#DejaVuSans-32" transform="translate(95.410156 0)"/>
      </g>
     </g>
    </g>
    <g id="xtick_3">
     <g id="line2d_3">
      <path d="M 277.525716 268.38 
L 277.525716 25.92 
" clip-path="url(#p5a62d4d441)" style="fill: none; stroke: #ffffff; stroke-width: 2; stroke-linecap: round"/>
     </g>
     <g id="text_3">
      <!-- 0.4 -->
      <g style="fill: #262626" transform="translate(260.032278 300.596563) scale(0.22 -0.22)">
       <defs>
        <path id="DejaVuSans-34" d="M 2419 4116 
L 825 1625 
L 2419 1625 
L 2419 4116 
z
M 2253 4666 
L 3047 4666 
L 3047 1625 
L 3713 1625 
L 3713 1100 
L 3047 1100 
L 3047 0 
L 2419 0 
L 2419 1100 
L 313 1100 
L 313 1709 
L 2253 4666 
z
" transform="scale(0.015625)"/>
       </defs>
       <use xlink:href="#DejaVuSans-30"/>
       <use xlink:href="#DejaVuSans-2e" transform="translate(63.623047 0)"/>
       <use xlink:href="#DejaVuSans-34" transform="translate(95.410156 0)"/>
      </g>
     </g>
    </g>
    <g id="xtick_4">
     <g id="line2d_4">
      <path d="M 351.49808 268.38 
L 351.49808 25.92 
" clip-path="url(#p5a62d4d441)" style="fill: none; stroke: #ffffff; stroke-width: 2; stroke-linecap: round"/>
     </g>
     <g id="text_4">
      <!-- 0.6 -->
      <g style="fill: #262626" transform="translate(334.004643 300.596563) scale(0.22 -0.22)">
       <defs>
        <path id="DejaVuSans-36" d="M 2113 2584 
Q 1688 2584 1439 2293 
Q 1191 2003 1191 1497 
Q 1191 994 1439 701 
Q 1688 409 2113 409 
Q 2538 409 2786 701 
Q 3034 994 3034 1497 
Q 3034 2003 2786 2293 
Q 2538 2584 2113 2584 
z
M 3366 4563 
L 3366 3988 
Q 3128 4100 2886 4159 
Q 2644 4219 2406 4219 
Q 1781 4219 1451 3797 
Q 1122 3375 1075 2522 
Q 1259 2794 1537 2939 
Q 1816 3084 2150 3084 
Q 2853 3084 3261 2657 
Q 3669 2231 3669 1497 
Q 3669 778 3244 343 
Q 2819 -91 2113 -91 
Q 1303 -91 875 529 
Q 447 1150 447 2328 
Q 447 3434 972 4092 
Q 1497 4750 2381 4750 
Q 2619 4750 2861 4703 
Q 3103 4656 3366 4563 
z
" transform="scale(0.015625)"/>
       </defs>
       <use xlink:href="#DejaVuSans-30"/>
       <use xlink:href="#DejaVuSans-2e" transform="translate(63.623047 0)"/>
       <use xlink:href="#DejaVuSans-36" transform="translate(95.410156 0)"/>
      </g>
     </g>
    </g>
    <g id="xtick_5">
     <g id="line2d_5">
      <path d="M 425.470444 268.38 
L 425.470444 25.92 
" clip-path="url(#p5a62d4d441)" style="fill: none; stroke: #ffffff; stroke-width: 2; stroke-linecap: round"/>
     </g>
     <g id="text_5">
      <!-- 0.8 -->
      <g style="fill: #262626" transform="translate(407.977007 300.596563) scale(0.22 -0.22)">
       <defs>
        <path id="DejaVuSans-38" d="M 2034 2216 
Q 1584 2216 1326 1975 
Q 1069 1734 1069 1313 
Q 1069 891 1326 650 
Q 1584 409 2034 409 
Q 2484 409 2743 651 
Q 3003 894 3003 1313 
Q 3003 1734 2745 1975 
Q 2488 2216 2034 2216 
z
M 1403 2484 
Q 997 2584 770 2862 
Q 544 3141 544 3541 
Q 544 4100 942 4425 
Q 1341 4750 2034 4750 
Q 2731 4750 3128 4425 
Q 3525 4100 3525 3541 
Q 3525 3141 3298 2862 
Q 3072 2584 2669 2484 
Q 3125 2378 3379 2068 
Q 3634 1759 3634 1313 
Q 3634 634 3220 271 
Q 2806 -91 2034 -91 
Q 1263 -91 848 271 
Q 434 634 434 1313 
Q 434 1759 690 2068 
Q 947 2378 1403 2484 
z
M 1172 3481 
Q 1172 3119 1398 2916 
Q 1625 2713 2034 2713 
Q 2441 2713 2670 2916 
Q 2900 3119 2900 3481 
Q 2900 3844 2670 4047 
Q 2441 4250 2034 4250 
Q 1625 4250 1398 4047 
Q 1172 3844 1172 3481 
z
" transform="scale(0.015625)"/>
       </defs>
       <use xlink:href="#DejaVuSans-30"/>
       <use xlink:href="#DejaVuSans-2e" transform="translate(63.623047 0)"/>
       <use xlink:href="#DejaVuSans-38" transform="translate(95.410156 0)"/>
      </g>
     </g>
    </g>
    <g id="xtick_6">
     <g id="line2d_6">
      <path d="M 499.442809 268.38 
L 499.442809 25.92 
" clip-path="url(#p5a62d4d441)" style="fill: none; stroke: #ffffff; stroke-width: 2; stroke-linecap: round"/>
     </g>
     <g id="text_6">
      <!-- 1.0 -->
      <g style="fill: #262626" transform="translate(481.949371 300.596563) scale(0.22 -0.22)">
       <defs>
        <path id="DejaVuSans-31" d="M 794 531 
L 1825 531 
L 1825 4091 
L 703 3866 
L 703 4441 
L 1819 4666 
L 2450 4666 
L 2450 531 
L 3481 531 
L 3481 0 
L 794 0 
L 794 531 
z
" transform="scale(0.015625)"/>
       </defs>
       <use xlink:href="#DejaVuSans-31"/>
       <use xlink:href="#DejaVuSans-2e" transform="translate(63.623047 0)"/>
       <use xlink:href="#DejaVuSans-30" transform="translate(95.410156 0)"/>
      </g>
     </g>
    </g>
    <g id="text_7">
     <!-- iou -->
     <g style="fill: #262626" transform="translate(293.659604 327.408125) scale(0.24 -0.24)">
      <defs>
       <path id="DejaVuSans-69" d="M 603 3500 
L 1178 3500 
L 1178 0 
L 603 0 
L 603 3500 
z
M 603 4863 
L 1178 4863 
L 1178 4134 
L 603 4134 
L 603 4863 
z
" transform="scale(0.015625)"/>
       <path id="DejaVuSans-6f" d="M 1959 3097 
Q 1497 3097 1228 2736 
Q 959 2375 959 1747 
Q 959 1119 1226 758 
Q 1494 397 1959 397 
Q 2419 397 2687 759 
Q 2956 1122 2956 1747 
Q 2956 2369 2687 2733 
Q 2419 3097 1959 3097 
z
M 1959 3584 
Q 2709 3584 3137 3096 
Q 3566 2609 3566 1747 
Q 3566 888 3137 398 
Q 2709 -91 1959 -91 
Q 1206 -91 779 398 
Q 353 888 353 1747 
Q 353 2609 779 3096 
Q 1206 3584 1959 3584 
z
" transform="scale(0.015625)"/>
       <path id="DejaVuSans-75" d="M 544 1381 
L 544 3500 
L 1119 3500 
L 1119 1403 
Q 1119 906 1312 657 
Q 1506 409 1894 409 
Q 2359 409 2629 706 
Q 2900 1003 2900 1516 
L 2900 3500 
L 3475 3500 
L 3475 0 
L 2900 0 
L 2900 538 
Q 2691 219 2414 64 
Q 2138 -91 1772 -91 
Q 1169 -91 856 284 
Q 544 659 544 1381 
z
M 1991 3584 
L 1991 3584 
z
" transform="scale(0.015625)"/>
      </defs>
      <use xlink:href="#DejaVuSans-69"/>
      <use xlink:href="#DejaVuSans-6f" transform="translate(27.783203 0)"/>
      <use xlink:href="#DejaVuSans-75" transform="translate(88.964844 0)"/>
     </g>
    </g>
   </g>
   <g id="matplotlib.axis_2">
    <g id="ytick_1">
     <g id="line2d_7">
      <path d="M 111.345 268.38 
L 512.536709 268.38 
" clip-path="url(#p5a62d4d441)" style="fill: none; stroke: #ffffff; stroke-width: 2; stroke-linecap: round"/>
     </g>
     <g id="text_8">
      <!-- 0 -->
      <g style="fill: #262626" transform="translate(81.8475 276.738281) scale(0.22 -0.22)">
       <use xlink:href="#DejaVuSans-30"/>
      </g>
     </g>
    </g>
    <g id="ytick_2">
     <g id="line2d_8">
      <path d="M 111.345 182.538258 
L 512.536709 182.538258 
" clip-path="url(#p5a62d4d441)" style="fill: none; stroke: #ffffff; stroke-width: 2; stroke-linecap: round"/>
     </g>
     <g id="text_9">
      <!-- 200 -->
      <g style="fill: #262626" transform="translate(53.8525 190.896539) scale(0.22 -0.22)">
       <use xlink:href="#DejaVuSans-32"/>
       <use xlink:href="#DejaVuSans-30" transform="translate(63.623047 0)"/>
       <use xlink:href="#DejaVuSans-30" transform="translate(127.246094 0)"/>
      </g>
     </g>
    </g>
    <g id="ytick_3">
     <g id="line2d_9">
      <path d="M 111.345 96.696516 
L 512.536709 96.696516 
" clip-path="url(#p5a62d4d441)" style="fill: none; stroke: #ffffff; stroke-width: 2; stroke-linecap: round"/>
     </g>
     <g id="text_10">
      <!-- 400 -->
      <g style="fill: #262626" transform="translate(53.8525 105.054797) scale(0.22 -0.22)">
       <use xlink:href="#DejaVuSans-34"/>
       <use xlink:href="#DejaVuSans-30" transform="translate(63.623047 0)"/>
       <use xlink:href="#DejaVuSans-30" transform="translate(127.246094 0)"/>
      </g>
     </g>
    </g>
    <g id="text_11">
     <!-- Count -->
     <g style="fill: #262626" transform="translate(44.86125 182.78625) rotate(-90) scale(0.24 -0.24)">
      <defs>
       <path id="DejaVuSans-43" d="M 4122 4306 
L 4122 3641 
Q 3803 3938 3442 4084 
Q 3081 4231 2675 4231 
Q 1875 4231 1450 3742 
Q 1025 3253 1025 2328 
Q 1025 1406 1450 917 
Q 1875 428 2675 428 
Q 3081 428 3442 575 
Q 3803 722 4122 1019 
L 4122 359 
Q 3791 134 3420 21 
Q 3050 -91 2638 -91 
Q 1578 -91 968 557 
Q 359 1206 359 2328 
Q 359 3453 968 4101 
Q 1578 4750 2638 4750 
Q 3056 4750 3426 4639 
Q 3797 4528 4122 4306 
z
" transform="scale(0.015625)"/>
       <path id="DejaVuSans-6e" d="M 3513 2113 
L 3513 0 
L 2938 0 
L 2938 2094 
Q 2938 2591 2744 2837 
Q 2550 3084 2163 3084 
Q 1697 3084 1428 2787 
Q 1159 2491 1159 1978 
L 1159 0 
L 581 0 
L 581 3500 
L 1159 3500 
L 1159 2956 
Q 1366 3272 1645 3428 
Q 1925 3584 2291 3584 
Q 2894 3584 3203 3211 
Q 3513 2838 3513 2113 
z
" transform="scale(0.015625)"/>
       <path id="DejaVuSans-74" d="M 1172 4494 
L 1172 3500 
L 2356 3500 
L 2356 3053 
L 1172 3053 
L 1172 1153 
Q 1172 725 1289 603 
Q 1406 481 1766 481 
L 2356 481 
L 2356 0 
L 1766 0 
Q 1100 0 847 248 
Q 594 497 594 1153 
L 594 3053 
L 172 3053 
L 172 3500 
L 594 3500 
L 594 4494 
L 1172 4494 
z
" transform="scale(0.015625)"/>
      </defs>
      <use xlink:href="#DejaVuSans-43"/>
      <use xlink:href="#DejaVuSans-6f" transform="translate(69.824219 0)"/>
      <use xlink:href="#DejaVuSans-75" transform="translate(131.005859 0)"/>
      <use xlink:href="#DejaVuSans-6e" transform="translate(194.384766 0)"/>
      <use xlink:href="#DejaVuSans-74" transform="translate(257.763672 0)"/>
     </g>
    </g>
   </g>
   <g id="patch_3">
    <path d="M 129.580987 268.38 
L 137.68587 268.38 
L 137.68587 103.134647 
L 129.580987 103.134647 
z
" clip-path="url(#p5a62d4d441)" style="fill: #4ab31a; fill-opacity: 0.5; stroke: #ffffff; stroke-width: 0.768595; stroke-linejoin: miter"/>
   </g>
   <g id="patch_4">
    <path d="M 137.68587 268.38 
L 145.790753 268.38 
L 145.790753 263.658704 
L 137.68587 263.658704 
z
" clip-path="url(#p5a62d4d441)" style="fill: #4ab31a; fill-opacity: 0.5; stroke: #ffffff; stroke-width: 0.768595; stroke-linejoin: miter"/>
   </g>
   <g id="patch_5">
    <path d="M 145.790753 268.38 
L 153.895636 268.38 
L 153.895636 243.915104 
L 145.790753 243.915104 
z
" clip-path="url(#p5a62d4d441)" style="fill: #4ab31a; fill-opacity: 0.5; stroke: #ffffff; stroke-width: 0.768595; stroke-linejoin: miter"/>
   </g>
   <g id="patch_6">
    <path d="M 153.895636 268.38 
L 162.000519 268.38 
L 162.000519 233.184886 
L 153.895636 233.184886 
z
" clip-path="url(#p5a62d4d441)" style="fill: #4ab31a; fill-opacity: 0.5; stroke: #ffffff; stroke-width: 0.768595; stroke-linejoin: miter"/>
   </g>
   <g id="patch_7">
    <path d="M 162.000519 268.38 
L 170.105402 268.38 
L 170.105402 203.140276 
L 162.000519 203.140276 
z
" clip-path="url(#p5a62d4d441)" style="fill: #4ab31a; fill-opacity: 0.5; stroke: #ffffff; stroke-width: 0.768595; stroke-linejoin: miter"/>
   </g>
   <g id="patch_8">
    <path d="M 170.105402 268.38 
L 178.210285 268.38 
L 178.210285 191.551641 
L 170.105402 191.551641 
z
" clip-path="url(#p5a62d4d441)" style="fill: #4ab31a; fill-opacity: 0.5; stroke: #ffffff; stroke-width: 0.768595; stroke-linejoin: miter"/>
   </g>
   <g id="patch_9">
    <path d="M 178.210285 268.38 
L 186.315168 268.38 
L 186.315168 166.228327 
L 178.210285 166.228327 
z
" clip-path="url(#p5a62d4d441)" style="fill: #4ab31a; fill-opacity: 0.5; stroke: #ffffff; stroke-width: 0.768595; stroke-linejoin: miter"/>
   </g>
   <g id="patch_10">
    <path d="M 186.315168 268.38 
L 194.420051 268.38 
L 194.420051 134.466883 
L 186.315168 134.466883 
z
" clip-path="url(#p5a62d4d441)" style="fill: #4ab31a; fill-opacity: 0.5; stroke: #ffffff; stroke-width: 0.768595; stroke-linejoin: miter"/>
   </g>
   <g id="patch_11">
    <path d="M 194.420051 268.38 
L 202.524934 268.38 
L 202.524934 94.979681 
L 194.420051 94.979681 
z
" clip-path="url(#p5a62d4d441)" style="fill: #4ab31a; fill-opacity: 0.5; stroke: #ffffff; stroke-width: 0.768595; stroke-linejoin: miter"/>
   </g>
   <g id="patch_12">
    <path d="M 202.524934 268.38 
L 210.629817 268.38 
L 210.629817 69.656367 
L 202.524934 69.656367 
z
" clip-path="url(#p5a62d4d441)" style="fill: #4ab31a; fill-opacity: 0.5; stroke: #ffffff; stroke-width: 0.768595; stroke-linejoin: miter"/>
   </g>
   <g id="patch_13">
    <path d="M 210.629817 268.38 
L 218.7347 268.38 
L 218.7347 53.346437 
L 210.629817 53.346437 
z
" clip-path="url(#p5a62d4d441)" style="fill: #4ab31a; fill-opacity: 0.5; stroke: #ffffff; stroke-width: 0.768595; stroke-linejoin: miter"/>
   </g>
   <g id="patch_14">
    <path d="M 218.7347 268.38 
L 226.839583 268.38 
L 226.839583 54.634063 
L 218.7347 54.634063 
z
" clip-path="url(#p5a62d4d441)" style="fill: #4ab31a; fill-opacity: 0.5; stroke: #ffffff; stroke-width: 0.768595; stroke-linejoin: miter"/>
   </g>
   <g id="patch_15">
    <path d="M 226.839583 268.38 
L 234.944466 268.38 
L 234.944466 52.917228 
L 226.839583 52.917228 
z
" clip-path="url(#p5a62d4d441)" style="fill: #4ab31a; fill-opacity: 0.5; stroke: #ffffff; stroke-width: 0.768595; stroke-linejoin: miter"/>
   </g>
   <g id="patch_16">
    <path d="M 234.944466 268.38 
L 243.049349 268.38 
L 243.049349 40.470175 
L 234.944466 40.470175 
z
" clip-path="url(#p5a62d4d441)" style="fill: #4ab31a; fill-opacity: 0.5; stroke: #ffffff; stroke-width: 0.768595; stroke-linejoin: miter"/>
   </g>
   <g id="patch_17">
    <path d="M 243.049349 268.38 
L 251.154232 268.38 
L 251.154232 37.465714 
L 243.049349 37.465714 
z
" clip-path="url(#p5a62d4d441)" style="fill: #4ab31a; fill-opacity: 0.5; stroke: #ffffff; stroke-width: 0.768595; stroke-linejoin: miter"/>
   </g>
   <g id="patch_18">
    <path d="M 251.154232 268.38 
L 259.259115 268.38 
L 259.259115 76.952916 
L 251.154232 76.952916 
z
" clip-path="url(#p5a62d4d441)" style="fill: #4ab31a; fill-opacity: 0.5; stroke: #ffffff; stroke-width: 0.768595; stroke-linejoin: miter"/>
   </g>
   <g id="patch_19">
    <path d="M 259.259115 268.38 
L 267.363998 268.38 
L 267.363998 92.404429 
L 259.259115 92.404429 
z
" clip-path="url(#p5a62d4d441)" style="fill: #4ab31a; fill-opacity: 0.5; stroke: #ffffff; stroke-width: 0.768595; stroke-linejoin: miter"/>
   </g>
   <g id="patch_20">
    <path d="M 267.363998 268.38 
L 275.468881 268.38 
L 275.468881 96.696516 
L 267.363998 96.696516 
z
" clip-path="url(#p5a62d4d441)" style="fill: #4ab31a; fill-opacity: 0.5; stroke: #ffffff; stroke-width: 0.768595; stroke-linejoin: miter"/>
   </g>
   <g id="patch_21">
    <path d="M 275.468881 268.38 
L 283.573764 268.38 
L 283.573764 120.302995 
L 275.468881 120.302995 
z
" clip-path="url(#p5a62d4d441)" style="fill: #4ab31a; fill-opacity: 0.5; stroke: #ffffff; stroke-width: 0.768595; stroke-linejoin: miter"/>
   </g>
   <g id="patch_22">
    <path d="M 283.573764 268.38 
L 291.678647 268.38 
L 291.678647 108.71436 
L 283.573764 108.71436 
z
" clip-path="url(#p5a62d4d441)" style="fill: #4ab31a; fill-opacity: 0.5; stroke: #ffffff; stroke-width: 0.768595; stroke-linejoin: miter"/>
   </g>
   <g id="patch_23">
    <path d="M 291.678647 268.38 
L 299.78353 268.38 
L 299.78353 110.001986 
L 291.678647 110.001986 
z
" clip-path="url(#p5a62d4d441)" style="fill: #4ab31a; fill-opacity: 0.5; stroke: #ffffff; stroke-width: 0.768595; stroke-linejoin: miter"/>
   </g>
   <g id="patch_24">
    <path d="M 299.78353 268.38 
L 307.888413 268.38 
L 307.888413 139.617387 
L 299.78353 139.617387 
z
" clip-path="url(#p5a62d4d441)" style="fill: #4ab31a; fill-opacity: 0.5; stroke: #ffffff; stroke-width: 0.768595; stroke-linejoin: miter"/>
   </g>
   <g id="patch_25">
    <path d="M 307.888413 268.38 
L 315.993296 268.38 
L 315.993296 175.670919 
L 307.888413 175.670919 
z
" clip-path="url(#p5a62d4d441)" style="fill: #4ab31a; fill-opacity: 0.5; stroke: #ffffff; stroke-width: 0.768595; stroke-linejoin: miter"/>
   </g>
   <g id="patch_26">
    <path d="M 315.993296 268.38 
L 324.098179 268.38 
L 324.098179 188.976389 
L 315.993296 188.976389 
z
" clip-path="url(#p5a62d4d441)" style="fill: #4ab31a; fill-opacity: 0.5; stroke: #ffffff; stroke-width: 0.768595; stroke-linejoin: miter"/>
   </g>
   <g id="patch_27">
    <path d="M 324.098179 268.38 
L 332.203062 268.38 
L 332.203062 195.414519 
L 324.098179 195.414519 
z
" clip-path="url(#p5a62d4d441)" style="fill: #4ab31a; fill-opacity: 0.5; stroke: #ffffff; stroke-width: 0.768595; stroke-linejoin: miter"/>
   </g>
   <g id="patch_28">
    <path d="M 332.203062 268.38 
L 340.307945 268.38 
L 340.307945 207.003155 
L 332.203062 207.003155 
z
" clip-path="url(#p5a62d4d441)" style="fill: #4ab31a; fill-opacity: 0.5; stroke: #ffffff; stroke-width: 0.768595; stroke-linejoin: miter"/>
   </g>
   <g id="patch_29">
    <path d="M 340.307945 268.38 
L 348.412828 268.38 
L 348.412828 215.587329 
L 340.307945 215.587329 
z
" clip-path="url(#p5a62d4d441)" style="fill: #4ab31a; fill-opacity: 0.5; stroke: #ffffff; stroke-width: 0.768595; stroke-linejoin: miter"/>
   </g>
   <g id="patch_30">
    <path d="M 348.412828 268.38 
L 356.517711 268.38 
L 356.517711 222.883877 
L 348.412828 222.883877 
z
" clip-path="url(#p5a62d4d441)" style="fill: #4ab31a; fill-opacity: 0.5; stroke: #ffffff; stroke-width: 0.768595; stroke-linejoin: miter"/>
   </g>
   <g id="patch_31">
    <path d="M 356.517711 268.38 
L 364.622594 268.38 
L 364.622594 220.308625 
L 356.517711 220.308625 
z
" clip-path="url(#p5a62d4d441)" style="fill: #4ab31a; fill-opacity: 0.5; stroke: #ffffff; stroke-width: 0.768595; stroke-linejoin: miter"/>
   </g>
   <g id="patch_32">
    <path d="M 364.622594 268.38 
L 372.727477 268.38 
L 372.727477 240.481434 
L 364.622594 240.481434 
z
" clip-path="url(#p5a62d4d441)" style="fill: #4ab31a; fill-opacity: 0.5; stroke: #ffffff; stroke-width: 0.768595; stroke-linejoin: miter"/>
   </g>
   <g id="patch_33">
    <path d="M 372.727477 268.38 
L 380.83236 268.38 
L 380.83236 242.198269 
L 372.727477 242.198269 
z
" clip-path="url(#p5a62d4d441)" style="fill: #4ab31a; fill-opacity: 0.5; stroke: #ffffff; stroke-width: 0.768595; stroke-linejoin: miter"/>
   </g>
   <g id="patch_34">
    <path d="M 380.83236 268.38 
L 388.937243 268.38 
L 388.937243 240.910643 
L 380.83236 240.910643 
z
" clip-path="url(#p5a62d4d441)" style="fill: #4ab31a; fill-opacity: 0.5; stroke: #ffffff; stroke-width: 0.768595; stroke-linejoin: miter"/>
   </g>
   <g id="patch_35">
    <path d="M 388.937243 268.38 
L 397.042126 268.38 
L 397.042126 247.348773 
L 388.937243 247.348773 
z
" clip-path="url(#p5a62d4d441)" style="fill: #4ab31a; fill-opacity: 0.5; stroke: #ffffff; stroke-width: 0.768595; stroke-linejoin: miter"/>
   </g>
   <g id="patch_36">
    <path d="M 397.042126 268.38 
L 405.147009 268.38 
L 405.147009 248.636399 
L 397.042126 248.636399 
z
" clip-path="url(#p5a62d4d441)" style="fill: #4ab31a; fill-opacity: 0.5; stroke: #ffffff; stroke-width: 0.768595; stroke-linejoin: miter"/>
   </g>
   <g id="patch_37">
    <path d="M 405.147009 268.38 
L 413.251892 268.38 
L 413.251892 255.503739 
L 405.147009 255.503739 
z
" clip-path="url(#p5a62d4d441)" style="fill: #4ab31a; fill-opacity: 0.5; stroke: #ffffff; stroke-width: 0.768595; stroke-linejoin: miter"/>
   </g>
   <g id="patch_38">
    <path d="M 413.251892 268.38 
L 421.356775 268.38 
L 421.356775 251.64086 
L 413.251892 251.64086 
z
" clip-path="url(#p5a62d4d441)" style="fill: #4ab31a; fill-opacity: 0.5; stroke: #ffffff; stroke-width: 0.768595; stroke-linejoin: miter"/>
   </g>
   <g id="patch_39">
    <path d="M 421.356775 268.38 
L 429.461658 268.38 
L 429.461658 249.924025 
L 421.356775 249.924025 
z
" clip-path="url(#p5a62d4d441)" style="fill: #4ab31a; fill-opacity: 0.5; stroke: #ffffff; stroke-width: 0.768595; stroke-linejoin: miter"/>
   </g>
   <g id="patch_40">
    <path d="M 429.461658 268.38 
L 437.566541 268.38 
L 437.566541 237.906182 
L 429.461658 237.906182 
z
" clip-path="url(#p5a62d4d441)" style="fill: #4ab31a; fill-opacity: 0.5; stroke: #ffffff; stroke-width: 0.768595; stroke-linejoin: miter"/>
   </g>
   <g id="patch_41">
    <path d="M 437.566541 268.38 
L 445.671424 268.38 
L 445.671424 243.485895 
L 437.566541 243.485895 
z
" clip-path="url(#p5a62d4d441)" style="fill: #4ab31a; fill-opacity: 0.5; stroke: #ffffff; stroke-width: 0.768595; stroke-linejoin: miter"/>
   </g>
   <g id="patch_42">
    <path d="M 445.671424 268.38 
L 453.776307 268.38 
L 453.776307 229.751216 
L 445.671424 229.751216 
z
" clip-path="url(#p5a62d4d441)" style="fill: #4ab31a; fill-opacity: 0.5; stroke: #ffffff; stroke-width: 0.768595; stroke-linejoin: miter"/>
   </g>
   <g id="patch_43">
    <path d="M 453.776307 268.38 
L 461.88119 268.38 
L 461.88119 226.317546 
L 453.776307 226.317546 
z
" clip-path="url(#p5a62d4d441)" style="fill: #4ab31a; fill-opacity: 0.5; stroke: #ffffff; stroke-width: 0.768595; stroke-linejoin: miter"/>
   </g>
   <g id="patch_44">
    <path d="M 461.88119 268.38 
L 469.986073 268.38 
L 469.986073 226.317546 
L 461.88119 226.317546 
z
" clip-path="url(#p5a62d4d441)" style="fill: #4ab31a; fill-opacity: 0.5; stroke: #ffffff; stroke-width: 0.768595; stroke-linejoin: miter"/>
   </g>
   <g id="patch_45">
    <path d="M 469.986073 268.38 
L 478.090956 268.38 
L 478.090956 233.614095 
L 469.986073 233.614095 
z
" clip-path="url(#p5a62d4d441)" style="fill: #4ab31a; fill-opacity: 0.5; stroke: #ffffff; stroke-width: 0.768595; stroke-linejoin: miter"/>
   </g>
   <g id="patch_46">
    <path d="M 478.090956 268.38 
L 486.195839 268.38 
L 486.195839 242.627477 
L 478.090956 242.627477 
z
" clip-path="url(#p5a62d4d441)" style="fill: #4ab31a; fill-opacity: 0.5; stroke: #ffffff; stroke-width: 0.768595; stroke-linejoin: miter"/>
   </g>
   <g id="patch_47">
    <path d="M 486.195839 268.38 
L 494.300722 268.38 
L 494.300722 260.654243 
L 486.195839 260.654243 
z
" clip-path="url(#p5a62d4d441)" style="fill: #4ab31a; fill-opacity: 0.5; stroke: #ffffff; stroke-width: 0.768595; stroke-linejoin: miter"/>
   </g>
   <g id="line2d_10">
    <path d="M 129.580987 221.849416 
L 131.413749 221.227117 
L 133.246512 221.340361 
L 135.079274 222.093832 
L 136.912037 223.344454 
L 140.577562 226.611386 
L 142.410324 228.238369 
L 144.243087 229.616631 
L 146.075849 230.594452 
L 147.908612 231.056 
L 149.741374 230.924894 
L 151.574137 230.163531 
L 153.406899 228.768982 
L 155.239662 226.766575 
L 157.072424 224.202283 
L 158.905187 221.134954 
L 160.737949 217.629179 
L 162.570712 213.749304 
L 166.236237 205.097576 
L 169.901762 195.552947 
L 173.567287 185.337025 
L 177.232811 174.546732 
L 180.898336 163.216363 
L 186.396624 145.318114 
L 197.393199 108.537605 
L 201.058724 97.175265 
L 204.724249 86.886289 
L 206.557011 82.237397 
L 208.389774 77.951988 
L 210.222536 74.042163 
L 212.055299 70.509183 
L 213.888061 67.343783 
L 215.720824 64.527332 
L 217.553586 62.033838 
L 219.386349 59.832716 
L 221.219111 57.892148 
L 223.051874 56.182758 
L 224.884636 54.681237 
L 226.717399 53.373498 
L 228.550161 52.25694 
L 230.382924 51.341436 
L 232.215686 50.648827 
L 234.048449 50.210811 
L 235.881211 50.065405 
L 237.713974 50.252306 
L 239.546736 50.807705 
L 241.379499 51.759192 
L 243.212261 53.121402 
L 245.045024 54.893002 
L 246.877786 57.055387 
L 248.710549 59.573242 
L 250.543311 62.396855 
L 254.208836 68.713517 
L 263.372648 85.421935 
L 267.038173 91.456543 
L 270.703698 96.8383 
L 274.369223 101.551906 
L 278.034748 105.685422 
L 283.533036 111.273964 
L 287.198561 115.108291 
L 289.031323 117.223334 
L 290.864086 119.544877 
L 292.696848 122.121556 
L 294.529611 124.991099 
L 296.362373 128.176658 
L 298.195136 131.684167 
L 300.027898 135.501067 
L 303.693423 143.923705 
L 309.191711 157.655648 
L 312.857236 166.733257 
L 316.522761 175.181562 
L 320.188286 182.714054 
L 322.021048 186.104895 
L 323.853811 189.251139 
L 325.686573 192.167234 
L 329.352098 197.388969 
L 333.017623 201.942473 
L 336.683148 205.98688 
L 340.348673 209.649204 
L 344.014198 213.033943 
L 351.345248 219.368381 
L 367.84011 233.37413 
L 371.505635 236.067897 
L 375.17116 238.410469 
L 378.836685 240.407981 
L 382.50221 242.127578 
L 388.000498 244.373162 
L 393.498785 246.369142 
L 398.997073 248.081558 
L 402.662598 248.976077 
L 406.328123 249.593444 
L 409.993648 249.869792 
L 413.659173 249.756834 
L 417.324698 249.232009 
L 420.990223 248.305038 
L 424.655747 247.01631 
L 428.321272 245.425986 
L 431.986797 243.599196 
L 437.485085 240.549023 
L 446.648897 235.254635 
L 450.314422 233.410917 
L 452.147185 232.632259 
L 453.979947 231.980696 
L 455.81271 231.479132 
L 457.645472 231.148638 
L 459.478235 231.007608 
L 461.310997 231.071072 
L 463.14376 231.350191 
L 464.976522 231.85191 
L 466.809285 232.578742 
L 468.642047 233.528643 
L 470.47481 234.694943 
L 472.307572 236.066321 
L 474.140335 237.626839 
L 477.80586 241.229155 
L 481.471385 245.289134 
L 488.802435 253.704872 
L 492.46796 257.510746 
L 494.300722 259.21369 
L 494.300722 259.21369 
" clip-path="url(#p5a62d4d441)" style="fill: none; stroke: #4ab31a; stroke-width: 3; stroke-linecap: round"/>
   </g>
   <g id="patch_48">
    <path d="M 111.345 268.38 
L 111.345 25.92 
" style="fill: none; stroke: #ffffff; stroke-width: 2.5; stroke-linejoin: miter; stroke-linecap: square"/>
   </g>
   <g id="patch_49">
    <path d="M 512.536709 268.38 
L 512.536709 25.92 
" style="fill: none; stroke: #ffffff; stroke-width: 2.5; stroke-linejoin: miter; stroke-linecap: square"/>
   </g>
   <g id="patch_50">
    <path d="M 111.345 268.38 
L 512.536709 268.38 
" style="fill: none; stroke: #ffffff; stroke-width: 2.5; stroke-linejoin: miter; stroke-linecap: square"/>
   </g>
   <g id="patch_51">
    <path d="M 111.345 25.92 
L 512.536709 25.92 
" style="fill: none; stroke: #ffffff; stroke-width: 2.5; stroke-linejoin: miter; stroke-linecap: square"/>
   </g>
  </g>
  <g id="axes_2">
   <g id="patch_52">
    <path d="M 635.877118 268.38 
L 1037.068827 268.38 
L 1037.068827 25.92 
L 635.877118 25.92 
z
" style="fill: #eaeaf2"/>
   </g>
   <g id="matplotlib.axis_3">
    <g id="xtick_7">
     <g id="line2d_11">
      <path d="M 654.113105 268.38 
L 654.113105 25.92 
" clip-path="url(#pefc9a5443f)" style="fill: none; stroke: #ffffff; stroke-width: 2; stroke-linecap: round"/>
     </g>
     <g id="text_12">
      <!-- 0.0 -->
      <g style="fill: #262626" transform="translate(636.619668 300.596563) scale(0.22 -0.22)">
       <use xlink:href="#DejaVuSans-30"/>
       <use xlink:href="#DejaVuSans-2e" transform="translate(63.623047 0)"/>
       <use xlink:href="#DejaVuSans-30" transform="translate(95.410156 0)"/>
      </g>
     </g>
    </g>
    <g id="xtick_8">
     <g id="line2d_12">
      <path d="M 729.1433 268.38 
L 729.1433 25.92 
" clip-path="url(#pefc9a5443f)" style="fill: none; stroke: #ffffff; stroke-width: 2; stroke-linecap: round"/>
     </g>
     <g id="text_13">
      <!-- 0.2 -->
      <g style="fill: #262626" transform="translate(711.649863 300.596563) scale(0.22 -0.22)">
       <use xlink:href="#DejaVuSans-30"/>
       <use xlink:href="#DejaVuSans-2e" transform="translate(63.623047 0)"/>
       <use xlink:href="#DejaVuSans-32" transform="translate(95.410156 0)"/>
      </g>
     </g>
    </g>
    <g id="xtick_9">
     <g id="line2d_13">
      <path d="M 804.173495 268.38 
L 804.173495 25.92 
" clip-path="url(#pefc9a5443f)" style="fill: none; stroke: #ffffff; stroke-width: 2; stroke-linecap: round"/>
     </g>
     <g id="text_14">
      <!-- 0.4 -->
      <g style="fill: #262626" transform="translate(786.680058 300.596563) scale(0.22 -0.22)">
       <use xlink:href="#DejaVuSans-30"/>
       <use xlink:href="#DejaVuSans-2e" transform="translate(63.623047 0)"/>
       <use xlink:href="#DejaVuSans-34" transform="translate(95.410156 0)"/>
      </g>
     </g>
    </g>
    <g id="xtick_10">
     <g id="line2d_14">
      <path d="M 879.203691 268.38 
L 879.203691 25.92 
" clip-path="url(#pefc9a5443f)" style="fill: none; stroke: #ffffff; stroke-width: 2; stroke-linecap: round"/>
     </g>
     <g id="text_15">
      <!-- 0.6 -->
      <g style="fill: #262626" transform="translate(861.710253 300.596563) scale(0.22 -0.22)">
       <use xlink:href="#DejaVuSans-30"/>
       <use xlink:href="#DejaVuSans-2e" transform="translate(63.623047 0)"/>
       <use xlink:href="#DejaVuSans-36" transform="translate(95.410156 0)"/>
      </g>
     </g>
    </g>
    <g id="xtick_11">
     <g id="line2d_15">
      <path d="M 954.233886 268.38 
L 954.233886 25.92 
" clip-path="url(#pefc9a5443f)" style="fill: none; stroke: #ffffff; stroke-width: 2; stroke-linecap: round"/>
     </g>
     <g id="text_16">
      <!-- 0.8 -->
      <g style="fill: #262626" transform="translate(936.740448 300.596563) scale(0.22 -0.22)">
       <use xlink:href="#DejaVuSans-30"/>
       <use xlink:href="#DejaVuSans-2e" transform="translate(63.623047 0)"/>
       <use xlink:href="#DejaVuSans-38" transform="translate(95.410156 0)"/>
      </g>
     </g>
    </g>
    <g id="xtick_12">
     <g id="line2d_16">
      <path d="M 1029.264081 268.38 
L 1029.264081 25.92 
" clip-path="url(#pefc9a5443f)" style="fill: none; stroke: #ffffff; stroke-width: 2; stroke-linecap: round"/>
     </g>
     <g id="text_17">
      <!-- 1.0 -->
      <g style="fill: #262626" transform="translate(1011.770644 300.596563) scale(0.22 -0.22)">
       <use xlink:href="#DejaVuSans-31"/>
       <use xlink:href="#DejaVuSans-2e" transform="translate(63.623047 0)"/>
       <use xlink:href="#DejaVuSans-30" transform="translate(95.410156 0)"/>
      </g>
     </g>
    </g>
    <g id="text_18">
     <!-- lrp -->
     <g style="fill: #262626" transform="translate(820.587973 327.408125) scale(0.24 -0.24)">
      <defs>
       <path id="DejaVuSans-6c" d="M 603 4863 
L 1178 4863 
L 1178 0 
L 603 0 
L 603 4863 
z
" transform="scale(0.015625)"/>
       <path id="DejaVuSans-72" d="M 2631 2963 
Q 2534 3019 2420 3045 
Q 2306 3072 2169 3072 
Q 1681 3072 1420 2755 
Q 1159 2438 1159 1844 
L 1159 0 
L 581 0 
L 581 3500 
L 1159 3500 
L 1159 2956 
Q 1341 3275 1631 3429 
Q 1922 3584 2338 3584 
Q 2397 3584 2469 3576 
Q 2541 3569 2628 3553 
L 2631 2963 
z
" transform="scale(0.015625)"/>
       <path id="DejaVuSans-70" d="M 1159 525 
L 1159 -1331 
L 581 -1331 
L 581 3500 
L 1159 3500 
L 1159 2969 
Q 1341 3281 1617 3432 
Q 1894 3584 2278 3584 
Q 2916 3584 3314 3078 
Q 3713 2572 3713 1747 
Q 3713 922 3314 415 
Q 2916 -91 2278 -91 
Q 1894 -91 1617 61 
Q 1341 213 1159 525 
z
M 3116 1747 
Q 3116 2381 2855 2742 
Q 2594 3103 2138 3103 
Q 1681 3103 1420 2742 
Q 1159 2381 1159 1747 
Q 1159 1113 1420 752 
Q 1681 391 2138 391 
Q 2594 391 2855 752 
Q 3116 1113 3116 1747 
z
" transform="scale(0.015625)"/>
      </defs>
      <use xlink:href="#DejaVuSans-6c"/>
      <use xlink:href="#DejaVuSans-72" transform="translate(27.783203 0)"/>
      <use xlink:href="#DejaVuSans-70" transform="translate(68.896484 0)"/>
     </g>
    </g>
   </g>
   <g id="matplotlib.axis_4">
    <g id="ytick_4">
     <g id="line2d_17">
      <path d="M 635.877118 268.38 
L 1037.068827 268.38 
" clip-path="url(#pefc9a5443f)" style="fill: none; stroke: #ffffff; stroke-width: 2; stroke-linecap: round"/>
     </g>
     <g id="text_19">
      <!-- 0 -->
      <g style="fill: #262626" transform="translate(606.379618 276.738281) scale(0.22 -0.22)">
       <use xlink:href="#DejaVuSans-30"/>
      </g>
     </g>
    </g>
    <g id="ytick_5">
     <g id="line2d_18">
      <path d="M 635.877118 183.014275 
L 1037.068827 183.014275 
" clip-path="url(#pefc9a5443f)" style="fill: none; stroke: #ffffff; stroke-width: 2; stroke-linecap: round"/>
     </g>
     <g id="text_20">
      <!-- 200 -->
      <g style="fill: #262626" transform="translate(578.384618 191.372556) scale(0.22 -0.22)">
       <use xlink:href="#DejaVuSans-32"/>
       <use xlink:href="#DejaVuSans-30" transform="translate(63.623047 0)"/>
       <use xlink:href="#DejaVuSans-30" transform="translate(127.246094 0)"/>
      </g>
     </g>
    </g>
    <g id="ytick_6">
     <g id="line2d_19">
      <path d="M 635.877118 97.64855 
L 1037.068827 97.64855 
" clip-path="url(#pefc9a5443f)" style="fill: none; stroke: #ffffff; stroke-width: 2; stroke-linecap: round"/>
     </g>
     <g id="text_21">
      <!-- 400 -->
      <g style="fill: #262626" transform="translate(578.384618 106.006832) scale(0.22 -0.22)">
       <use xlink:href="#DejaVuSans-34"/>
       <use xlink:href="#DejaVuSans-30" transform="translate(63.623047 0)"/>
       <use xlink:href="#DejaVuSans-30" transform="translate(127.246094 0)"/>
      </g>
     </g>
    </g>
    <g id="text_22">
     <!-- Count -->
     <g style="fill: #262626" transform="translate(569.393368 182.78625) rotate(-90) scale(0.24 -0.24)">
      <use xlink:href="#DejaVuSans-43"/>
      <use xlink:href="#DejaVuSans-6f" transform="translate(69.824219 0)"/>
      <use xlink:href="#DejaVuSans-75" transform="translate(131.005859 0)"/>
      <use xlink:href="#DejaVuSans-6e" transform="translate(194.384766 0)"/>
      <use xlink:href="#DejaVuSans-74" transform="translate(257.763672 0)"/>
     </g>
    </g>
   </g>
   <g id="patch_53">
    <path d="M 654.113105 268.38 
L 661.126946 268.38 
L 661.126946 63.50226 
L 654.113105 63.50226 
z
" clip-path="url(#pefc9a5443f)" style="fill: #4ab31a; fill-opacity: 0.5; stroke: #ffffff; stroke-width: 0.66513; stroke-linejoin: miter"/>
   </g>
   <g id="patch_54">
    <path d="M 661.126946 268.38 
L 668.140787 268.38 
L 668.140787 247.465397 
L 661.126946 247.465397 
z
" clip-path="url(#pefc9a5443f)" style="fill: #4ab31a; fill-opacity: 0.5; stroke: #ffffff; stroke-width: 0.66513; stroke-linejoin: miter"/>
   </g>
   <g id="patch_55">
    <path d="M 668.140787 268.38 
L 675.154628 268.38 
L 675.154628 235.087367 
L 668.140787 235.087367 
z
" clip-path="url(#pefc9a5443f)" style="fill: #4ab31a; fill-opacity: 0.5; stroke: #ffffff; stroke-width: 0.66513; stroke-linejoin: miter"/>
   </g>
   <g id="patch_56">
    <path d="M 675.154628 268.38 
L 682.168469 268.38 
L 682.168469 195.819134 
L 675.154628 195.819134 
z
" clip-path="url(#pefc9a5443f)" style="fill: #4ab31a; fill-opacity: 0.5; stroke: #ffffff; stroke-width: 0.66513; stroke-linejoin: miter"/>
   </g>
   <g id="patch_57">
    <path d="M 682.168469 268.38 
L 689.18231 268.38 
L 689.18231 160.819187 
L 682.168469 160.819187 
z
" clip-path="url(#pefc9a5443f)" style="fill: #4ab31a; fill-opacity: 0.5; stroke: #ffffff; stroke-width: 0.66513; stroke-linejoin: miter"/>
   </g>
   <g id="patch_58">
    <path d="M 689.18231 268.38 
L 696.196151 268.38 
L 696.196151 134.355812 
L 689.18231 134.355812 
z
" clip-path="url(#pefc9a5443f)" style="fill: #4ab31a; fill-opacity: 0.5; stroke: #ffffff; stroke-width: 0.66513; stroke-linejoin: miter"/>
   </g>
   <g id="patch_59">
    <path d="M 696.196151 268.38 
L 703.209992 268.38 
L 703.209992 80.148577 
L 696.196151 80.148577 
z
" clip-path="url(#pefc9a5443f)" style="fill: #4ab31a; fill-opacity: 0.5; stroke: #ffffff; stroke-width: 0.66513; stroke-linejoin: miter"/>
   </g>
   <g id="patch_60">
    <path d="M 703.209992 268.38 
L 710.223834 268.38 
L 710.223834 73.319319 
L 703.209992 73.319319 
z
" clip-path="url(#pefc9a5443f)" style="fill: #4ab31a; fill-opacity: 0.5; stroke: #ffffff; stroke-width: 0.66513; stroke-linejoin: miter"/>
   </g>
   <g id="patch_61">
    <path d="M 710.223834 268.38 
L 717.237675 268.38 
L 717.237675 51.977888 
L 710.223834 51.977888 
z
" clip-path="url(#pefc9a5443f)" style="fill: #4ab31a; fill-opacity: 0.5; stroke: #ffffff; stroke-width: 0.66513; stroke-linejoin: miter"/>
   </g>
   <g id="patch_62">
    <path d="M 717.237675 268.38 
L 724.251516 268.38 
L 724.251516 46.002287 
L 717.237675 46.002287 
z
" clip-path="url(#pefc9a5443f)" style="fill: #4ab31a; fill-opacity: 0.5; stroke: #ffffff; stroke-width: 0.66513; stroke-linejoin: miter"/>
   </g>
   <g id="patch_63">
    <path d="M 724.251516 268.38 
L 731.265357 268.38 
L 731.265357 37.465714 
L 724.251516 37.465714 
z
" clip-path="url(#pefc9a5443f)" style="fill: #4ab31a; fill-opacity: 0.5; stroke: #ffffff; stroke-width: 0.66513; stroke-linejoin: miter"/>
   </g>
   <g id="patch_64">
    <path d="M 731.265357 268.38 
L 738.279198 268.38 
L 738.279198 40.026686 
L 731.265357 40.026686 
z
" clip-path="url(#pefc9a5443f)" style="fill: #4ab31a; fill-opacity: 0.5; stroke: #ffffff; stroke-width: 0.66513; stroke-linejoin: miter"/>
   </g>
   <g id="patch_65">
    <path d="M 738.279198 268.38 
L 745.293039 268.38 
L 745.293039 44.294972 
L 738.279198 44.294972 
z
" clip-path="url(#pefc9a5443f)" style="fill: #4ab31a; fill-opacity: 0.5; stroke: #ffffff; stroke-width: 0.66513; stroke-linejoin: miter"/>
   </g>
   <g id="patch_66">
    <path d="M 745.293039 268.38 
L 752.30688 268.38 
L 752.30688 57.099831 
L 745.293039 57.099831 
z
" clip-path="url(#pefc9a5443f)" style="fill: #4ab31a; fill-opacity: 0.5; stroke: #ffffff; stroke-width: 0.66513; stroke-linejoin: miter"/>
   </g>
   <g id="patch_67">
    <path d="M 752.30688 268.38 
L 759.320721 268.38 
L 759.320721 76.307119 
L 752.30688 76.307119 
z
" clip-path="url(#pefc9a5443f)" style="fill: #4ab31a; fill-opacity: 0.5; stroke: #ffffff; stroke-width: 0.66513; stroke-linejoin: miter"/>
   </g>
   <g id="patch_68">
    <path d="M 759.320721 268.38 
L 766.334562 268.38 
L 766.334562 102.770494 
L 759.320721 102.770494 
z
" clip-path="url(#pefc9a5443f)" style="fill: #4ab31a; fill-opacity: 0.5; stroke: #ffffff; stroke-width: 0.66513; stroke-linejoin: miter"/>
   </g>
   <g id="patch_69">
    <path d="M 766.334562 268.38 
L 773.348403 268.38 
L 773.348403 118.136324 
L 766.334562 118.136324 
z
" clip-path="url(#pefc9a5443f)" style="fill: #4ab31a; fill-opacity: 0.5; stroke: #ffffff; stroke-width: 0.66513; stroke-linejoin: miter"/>
   </g>
   <g id="patch_70">
    <path d="M 773.348403 268.38 
L 780.362244 268.38 
L 780.362244 142.465556 
L 773.348403 142.465556 
z
" clip-path="url(#pefc9a5443f)" style="fill: #4ab31a; fill-opacity: 0.5; stroke: #ffffff; stroke-width: 0.66513; stroke-linejoin: miter"/>
   </g>
   <g id="patch_71">
    <path d="M 780.362244 268.38 
L 787.376085 268.38 
L 787.376085 136.489955 
L 780.362244 136.489955 
z
" clip-path="url(#pefc9a5443f)" style="fill: #4ab31a; fill-opacity: 0.5; stroke: #ffffff; stroke-width: 0.66513; stroke-linejoin: miter"/>
   </g>
   <g id="patch_72">
    <path d="M 787.376085 268.38 
L 794.389926 268.38 
L 794.389926 156.977729 
L 787.376085 156.977729 
z
" clip-path="url(#pefc9a5443f)" style="fill: #4ab31a; fill-opacity: 0.5; stroke: #ffffff; stroke-width: 0.66513; stroke-linejoin: miter"/>
   </g>
   <g id="patch_73">
    <path d="M 794.389926 268.38 
L 801.403767 268.38 
L 801.403767 170.209416 
L 794.389926 170.209416 
z
" clip-path="url(#pefc9a5443f)" style="fill: #4ab31a; fill-opacity: 0.5; stroke: #ffffff; stroke-width: 0.66513; stroke-linejoin: miter"/>
   </g>
   <g id="patch_74">
    <path d="M 801.403767 268.38 
L 808.417608 268.38 
L 808.417608 182.160618 
L 801.403767 182.160618 
z
" clip-path="url(#pefc9a5443f)" style="fill: #4ab31a; fill-opacity: 0.5; stroke: #ffffff; stroke-width: 0.66513; stroke-linejoin: miter"/>
   </g>
   <g id="patch_75">
    <path d="M 808.417608 268.38 
L 815.43145 268.38 
L 815.43145 189.843533 
L 808.417608 189.843533 
z
" clip-path="url(#pefc9a5443f)" style="fill: #4ab31a; fill-opacity: 0.5; stroke: #ffffff; stroke-width: 0.66513; stroke-linejoin: miter"/>
   </g>
   <g id="patch_76">
    <path d="M 815.43145 268.38 
L 822.445291 268.38 
L 822.445291 199.660591 
L 815.43145 199.660591 
z
" clip-path="url(#pefc9a5443f)" style="fill: #4ab31a; fill-opacity: 0.5; stroke: #ffffff; stroke-width: 0.66513; stroke-linejoin: miter"/>
   </g>
   <g id="patch_77">
    <path d="M 822.445291 268.38 
L 829.459132 268.38 
L 829.459132 212.892279 
L 822.445291 212.892279 
z
" clip-path="url(#pefc9a5443f)" style="fill: #4ab31a; fill-opacity: 0.5; stroke: #ffffff; stroke-width: 0.66513; stroke-linejoin: miter"/>
   </g>
   <g id="patch_78">
    <path d="M 829.459132 268.38 
L 836.472973 268.38 
L 836.472973 221.428851 
L 829.459132 221.428851 
z
" clip-path="url(#pefc9a5443f)" style="fill: #4ab31a; fill-opacity: 0.5; stroke: #ffffff; stroke-width: 0.66513; stroke-linejoin: miter"/>
   </g>
   <g id="patch_79">
    <path d="M 836.472973 268.38 
L 843.486814 268.38 
L 843.486814 230.392252 
L 836.472973 230.392252 
z
" clip-path="url(#pefc9a5443f)" style="fill: #4ab31a; fill-opacity: 0.5; stroke: #ffffff; stroke-width: 0.66513; stroke-linejoin: miter"/>
   </g>
   <g id="patch_80">
    <path d="M 843.486814 268.38 
L 850.500655 268.38 
L 850.500655 240.209311 
L 843.486814 240.209311 
z
" clip-path="url(#pefc9a5443f)" style="fill: #4ab31a; fill-opacity: 0.5; stroke: #ffffff; stroke-width: 0.66513; stroke-linejoin: miter"/>
   </g>
   <g id="patch_81">
    <path d="M 850.500655 268.38 
L 857.514496 268.38 
L 857.514496 236.367853 
L 850.500655 236.367853 
z
" clip-path="url(#pefc9a5443f)" style="fill: #4ab31a; fill-opacity: 0.5; stroke: #ffffff; stroke-width: 0.66513; stroke-linejoin: miter"/>
   </g>
   <g id="patch_82">
    <path d="M 857.514496 268.38 
L 864.528337 268.38 
L 864.528337 241.916625 
L 857.514496 241.916625 
z
" clip-path="url(#pefc9a5443f)" style="fill: #4ab31a; fill-opacity: 0.5; stroke: #ffffff; stroke-width: 0.66513; stroke-linejoin: miter"/>
   </g>
   <g id="patch_83">
    <path d="M 864.528337 268.38 
L 871.542178 268.38 
L 871.542178 241.489797 
L 864.528337 241.489797 
z
" clip-path="url(#pefc9a5443f)" style="fill: #4ab31a; fill-opacity: 0.5; stroke: #ffffff; stroke-width: 0.66513; stroke-linejoin: miter"/>
   </g>
   <g id="patch_84">
    <path d="M 871.542178 268.38 
L 878.556019 268.38 
L 878.556019 247.892226 
L 871.542178 247.892226 
z
" clip-path="url(#pefc9a5443f)" style="fill: #4ab31a; fill-opacity: 0.5; stroke: #ffffff; stroke-width: 0.66513; stroke-linejoin: miter"/>
   </g>
   <g id="patch_85">
    <path d="M 878.556019 268.38 
L 885.56986 268.38 
L 885.56986 247.892226 
L 878.556019 247.892226 
z
" clip-path="url(#pefc9a5443f)" style="fill: #4ab31a; fill-opacity: 0.5; stroke: #ffffff; stroke-width: 0.66513; stroke-linejoin: miter"/>
   </g>
   <g id="patch_86">
    <path d="M 885.56986 268.38 
L 892.583701 268.38 
L 892.583701 247.465397 
L 885.56986 247.465397 
z
" clip-path="url(#pefc9a5443f)" style="fill: #4ab31a; fill-opacity: 0.5; stroke: #ffffff; stroke-width: 0.66513; stroke-linejoin: miter"/>
   </g>
   <g id="patch_87">
    <path d="M 892.583701 268.38 
L 899.597542 268.38 
L 899.597542 250.453198 
L 892.583701 250.453198 
z
" clip-path="url(#pefc9a5443f)" style="fill: #4ab31a; fill-opacity: 0.5; stroke: #ffffff; stroke-width: 0.66513; stroke-linejoin: miter"/>
   </g>
   <g id="patch_88">
    <path d="M 899.597542 268.38 
L 906.611383 268.38 
L 906.611383 251.306855 
L 899.597542 251.306855 
z
" clip-path="url(#pefc9a5443f)" style="fill: #4ab31a; fill-opacity: 0.5; stroke: #ffffff; stroke-width: 0.66513; stroke-linejoin: miter"/>
   </g>
   <g id="patch_89">
    <path d="M 906.611383 268.38 
L 913.625224 268.38 
L 913.625224 257.282456 
L 906.611383 257.282456 
z
" clip-path="url(#pefc9a5443f)" style="fill: #4ab31a; fill-opacity: 0.5; stroke: #ffffff; stroke-width: 0.66513; stroke-linejoin: miter"/>
   </g>
   <g id="patch_90">
    <path d="M 913.625224 268.38 
L 920.639065 268.38 
L 920.639065 253.867827 
L 913.625224 253.867827 
z
" clip-path="url(#pefc9a5443f)" style="fill: #4ab31a; fill-opacity: 0.5; stroke: #ffffff; stroke-width: 0.66513; stroke-linejoin: miter"/>
   </g>
   <g id="patch_91">
    <path d="M 920.639065 268.38 
L 927.652907 268.38 
L 927.652907 251.733684 
L 920.639065 251.733684 
z
" clip-path="url(#pefc9a5443f)" style="fill: #4ab31a; fill-opacity: 0.5; stroke: #ffffff; stroke-width: 0.66513; stroke-linejoin: miter"/>
   </g>
   <g id="patch_92">
    <path d="M 927.652907 268.38 
L 934.666748 268.38 
L 934.666748 253.867827 
L 927.652907 253.867827 
z
" clip-path="url(#pefc9a5443f)" style="fill: #4ab31a; fill-opacity: 0.5; stroke: #ffffff; stroke-width: 0.66513; stroke-linejoin: miter"/>
   </g>
   <g id="patch_93">
    <path d="M 934.666748 268.38 
L 941.680589 268.38 
L 941.680589 250.880026 
L 934.666748 250.880026 
z
" clip-path="url(#pefc9a5443f)" style="fill: #4ab31a; fill-opacity: 0.5; stroke: #ffffff; stroke-width: 0.66513; stroke-linejoin: miter"/>
   </g>
   <g id="patch_94">
    <path d="M 941.680589 268.38 
L 948.69443 268.38 
L 948.69443 247.465397 
L 941.680589 247.465397 
z
" clip-path="url(#pefc9a5443f)" style="fill: #4ab31a; fill-opacity: 0.5; stroke: #ffffff; stroke-width: 0.66513; stroke-linejoin: miter"/>
   </g>
   <g id="patch_95">
    <path d="M 948.69443 268.38 
L 955.708271 268.38 
L 955.708271 251.733684 
L 948.69443 251.733684 
z
" clip-path="url(#pefc9a5443f)" style="fill: #4ab31a; fill-opacity: 0.5; stroke: #ffffff; stroke-width: 0.66513; stroke-linejoin: miter"/>
   </g>
   <g id="patch_96">
    <path d="M 955.708271 268.38 
L 962.722112 268.38 
L 962.722112 249.172712 
L 955.708271 249.172712 
z
" clip-path="url(#pefc9a5443f)" style="fill: #4ab31a; fill-opacity: 0.5; stroke: #ffffff; stroke-width: 0.66513; stroke-linejoin: miter"/>
   </g>
   <g id="patch_97">
    <path d="M 962.722112 268.38 
L 969.735953 268.38 
L 969.735953 252.160512 
L 962.722112 252.160512 
z
" clip-path="url(#pefc9a5443f)" style="fill: #4ab31a; fill-opacity: 0.5; stroke: #ffffff; stroke-width: 0.66513; stroke-linejoin: miter"/>
   </g>
   <g id="patch_98">
    <path d="M 969.735953 268.38 
L 976.749794 268.38 
L 976.749794 252.587341 
L 969.735953 252.587341 
z
" clip-path="url(#pefc9a5443f)" style="fill: #4ab31a; fill-opacity: 0.5; stroke: #ffffff; stroke-width: 0.66513; stroke-linejoin: miter"/>
   </g>
   <g id="patch_99">
    <path d="M 976.749794 268.38 
L 983.763635 268.38 
L 983.763635 253.440998 
L 976.749794 253.440998 
z
" clip-path="url(#pefc9a5443f)" style="fill: #4ab31a; fill-opacity: 0.5; stroke: #ffffff; stroke-width: 0.66513; stroke-linejoin: miter"/>
   </g>
   <g id="patch_100">
    <path d="M 983.763635 268.38 
L 990.777476 268.38 
L 990.777476 257.282456 
L 983.763635 257.282456 
z
" clip-path="url(#pefc9a5443f)" style="fill: #4ab31a; fill-opacity: 0.5; stroke: #ffffff; stroke-width: 0.66513; stroke-linejoin: miter"/>
   </g>
   <g id="patch_101">
    <path d="M 990.777476 268.38 
L 997.791317 268.38 
L 997.791317 256.00197 
L 990.777476 256.00197 
z
" clip-path="url(#pefc9a5443f)" style="fill: #4ab31a; fill-opacity: 0.5; stroke: #ffffff; stroke-width: 0.66513; stroke-linejoin: miter"/>
   </g>
   <g id="patch_102">
    <path d="M 997.791317 268.38 
L 1004.805158 268.38 
L 1004.805158 260.697085 
L 997.791317 260.697085 
z
" clip-path="url(#pefc9a5443f)" style="fill: #4ab31a; fill-opacity: 0.5; stroke: #ffffff; stroke-width: 0.66513; stroke-linejoin: miter"/>
   </g>
   <g id="patch_103">
    <path d="M 1004.805158 268.38 
L 1011.818999 268.38 
L 1011.818999 264.111714 
L 1004.805158 264.111714 
z
" clip-path="url(#pefc9a5443f)" style="fill: #4ab31a; fill-opacity: 0.5; stroke: #ffffff; stroke-width: 0.66513; stroke-linejoin: miter"/>
   </g>
   <g id="patch_104">
    <path d="M 1011.818999 268.38 
L 1018.83284 268.38 
L 1018.83284 267.526343 
L 1011.818999 267.526343 
z
" clip-path="url(#pefc9a5443f)" style="fill: #4ab31a; fill-opacity: 0.5; stroke: #ffffff; stroke-width: 0.66513; stroke-linejoin: miter"/>
   </g>
   <g id="line2d_20">
    <path d="M 654.113105 209.19001 
L 655.945868 207.551006 
L 657.77863 206.832976 
L 659.611393 206.857827 
L 661.444155 207.36823 
L 663.276917 208.057385 
L 665.10968 208.603577 
L 666.942442 208.704048 
L 668.775205 208.103355 
L 670.607967 206.612824 
L 672.44073 204.119649 
L 674.273492 200.586102 
L 676.106255 196.04081 
L 677.939017 190.564934 
L 679.77178 184.276269 
L 681.604542 177.313877 
L 685.270067 161.955989 
L 696.266642 113.690936 
L 699.932167 99.435664 
L 701.76493 92.922985 
L 703.597692 86.854909 
L 705.430455 81.241428 
L 707.263217 76.082093 
L 709.09598 71.368772 
L 710.928742 67.08867 
L 712.761505 63.227162 
L 714.594267 59.770021 
L 716.42703 56.704817 
L 718.259792 54.021457 
L 720.092555 51.712073 
L 721.925317 49.770548 
L 723.75808 48.192062 
L 725.590842 46.972906 
L 727.423605 46.110705 
L 729.256367 45.604963 
L 731.08913 45.457723 
L 732.921892 45.674035 
L 734.754655 46.261925 
L 736.587417 47.231677 
L 738.42018 48.594379 
L 740.252942 50.359837 
L 742.085705 52.534149 
L 743.918467 55.117263 
L 745.75123 58.100888 
L 747.583992 61.467077 
L 749.416754 65.18767 
L 751.249517 69.224685 
L 754.915042 78.055386 
L 760.413329 92.354042 
L 765.911617 106.616849 
L 769.577142 115.572067 
L 773.242667 123.909532 
L 776.908192 131.628071 
L 780.573717 138.816934 
L 784.239242 145.600927 
L 789.737529 155.246418 
L 795.235817 164.401838 
L 800.734104 173.091865 
L 808.065154 184.105841 
L 828.225542 213.869428 
L 831.891066 218.834469 
L 835.556591 223.396445 
L 839.222116 227.452544 
L 842.887641 230.924951 
L 844.720404 232.430473 
L 846.553166 233.784152 
L 850.218691 236.070574 
L 853.884216 237.896151 
L 857.549741 239.416195 
L 864.880791 242.089762 
L 872.211841 244.602369 
L 877.710129 246.243652 
L 883.208416 247.580567 
L 899.703279 251.18293 
L 905.201566 252.484015 
L 908.867091 253.17216 
L 912.532616 253.588264 
L 916.198141 253.681254 
L 919.863666 253.477673 
L 925.361953 252.81559 
L 934.525766 251.562525 
L 940.024053 251.013249 
L 945.522341 250.694392 
L 951.020628 250.614292 
L 956.518916 250.74632 
L 962.017203 251.087388 
L 967.515491 251.697504 
L 973.013778 252.635049 
L 978.512066 253.862912 
L 985.843116 255.767651 
L 991.341403 257.358271 
L 996.83969 259.170955 
L 1004.17074 261.928937 
L 1009.669028 263.996492 
L 1013.334553 265.212401 
L 1017.000078 266.220829 
L 1018.83284 266.637537 
L 1018.83284 266.637537 
" clip-path="url(#pefc9a5443f)" style="fill: none; stroke: #4ab31a; stroke-width: 3; stroke-linecap: round"/>
   </g>
   <g id="patch_105">
    <path d="M 635.877118 268.38 
L 635.877118 25.92 
" style="fill: none; stroke: #ffffff; stroke-width: 2.5; stroke-linejoin: miter; stroke-linecap: square"/>
   </g>
   <g id="patch_106">
    <path d="M 1037.068827 268.38 
L 1037.068827 25.92 
" style="fill: none; stroke: #ffffff; stroke-width: 2.5; stroke-linejoin: miter; stroke-linecap: square"/>
   </g>
   <g id="patch_107">
    <path d="M 635.877118 268.38 
L 1037.068827 268.38 
" style="fill: none; stroke: #ffffff; stroke-width: 2.5; stroke-linejoin: miter; stroke-linecap: square"/>
   </g>
   <g id="patch_108">
    <path d="M 635.877118 25.92 
L 1037.068827 25.92 
" style="fill: none; stroke: #ffffff; stroke-width: 2.5; stroke-linejoin: miter; stroke-linecap: square"/>
   </g>
  </g>
 </g>
 <defs>
  <clipPath id="p5a62d4d441">
   <rect x="111.345" y="25.92" width="401.191709" height="242.46"/>
  </clipPath>
  <clipPath id="pefc9a5443f">
   <rect x="635.877118" y="25.92" width="401.191709" height="242.46"/>
  </clipPath>
 </defs>
</svg>
