<?xml version="1.0" encoding="utf-8" standalone="no"?>
<!DOCTYPE svg PUBLIC "-//W3C//DTD SVG 1.1//EN"
  "http://www.w3.org/Graphics/SVG/1.1/DTD/svg11.dtd">
<svg xmlns:xlink="http://www.w3.org/1999/xlink" width="1080pt" height="360pt" viewBox="0 0 1080 360" xmlns="http://www.w3.org/2000/svg" version="1.1">
 <metadata>
  <rdf:RDF xmlns:dc="http://purl.org/dc/elements/1.1/" xmlns:cc="http://creativecommons.org/ns#" xmlns:rdf="http://www.w3.org/1999/02/22-rdf-syntax-ns#">
   <cc:Work>
    <dc:type rdf:resource="http://purl.org/dc/dcmitype/StillImage"/>
    <dc:date>2026-02-17T10:17:22.750306</dc:date>
    <dc:format>image/svg+xml</dc:format>
    <dc:creator>
     <cc:Agent>
      <dc:title>Matplotlib v3.10.8, https://matplotlib.org/</dc:title>
     </cc:Agent>
    </dc:creator>
   </cc:Work>
  </rdf:RDF>
 </metadata>
 <defs>
  <style type="text/css">*{stroke-linejoin: round; stroke-linecap: butt}</style>
 </defs>
 <g id="figure_1">
  <g id="patch_1">
   <path d="M 0 360 
L 1080 360 
L 1080 0 
L 0 0 
z
" style="fill: #ffffff"/>
  </g>
  <g id="axes_1">
   <g id="patch_2">
    <path d="M 111.345 268.38 
L 511.452238 268.38 
L 511.452238 25.92 
L 111.345 25.92 
z
" style="fill: #eaeaf2"/>
   </g>
   <g id="matplotlib.axis_1">
    <g id="xtick_1">
     <g id="line2d_1">
      <path d="M 129.531693 268.38 
L 129.531693 25.92 
" clip-path="url(#pc4e67566cb)" style="fill: none; stroke: #ffffff; stroke-width: 2; stroke-linecap: round"/>
     </g>
     <g id="text_1">
      <!-- 0.0 -->
      <g style="fill: #262626" transform="translate(112.038255 300.596563) scale(0.22 -0.22)">
       <defs>
        <path id="DejaVuSans-30" d="M 2034 4250 
Q 1547 4250 1301 3770 
Q 1056 3291 1056 2328 
Q 1056 1369 1301 889 
Q 1547 409 2034 409 
Q 2525 409 2770 889 
Q 3016 1369 3016 2328 
Q 3016 3291 2770 3770 
Q 2525 4250 2034 4250 
z
M 2034 4750 
Q 2819 4750 3233 4129 
Q 3647 3509 3647 2328 
Q 3647 1150 3233 529 
Q 2819 -91 2034 -91 
Q 1250 -91 836 529 
Q 422 1150 422 2328 
Q 422 3509 836 4129 
Q 1250 4750 2034 4750 
z
" transform="scale(0.015625)"/>
        <path id="DejaVuSans-2e" d="M 684 794 
L 1344 794 
L 1344 0 
L 684 0 
L 684 794 
z
" transform="scale(0.015625)"/>
       </defs>
       <use xlink:href="#DejaVuSans-30"/>
       <use xlink:href="#DejaVuSans-2e" transform="translate(63.623047 0)"/>
       <use xlink:href="#DejaVuSans-30" transform="translate(95.410156 0)"/>
      </g>
     </g>
    </g>
    <g id="xtick_2">
     <g id="line2d_2">
      <path d="M 203.453092 268.38 
L 203.453092 25.92 
" clip-path="url(#pc4e67566cb)" style="fill: none; stroke: #ffffff; stroke-width: 2; stroke-linecap: round"/>
     </g>
     <g id="text_2">
      <!-- 0.2 -->
      <g style="fill: #262626" transform="translate(185.959655 300.596563) scale(0.22 -0.22)">
       <defs>
        <path id="DejaVuSans-32" d="M 1228 531 
L 3431 531 
L 3431 0 
L 469 0 
L 469 531 
Q 828 903 1448 1529 
Q 2069 2156 2228 2338 
Q 2531 2678 2651 2914 
Q 2772 3150 2772 3378 
Q 2772 3750 2511 3984 
Q 2250 4219 1831 4219 
Q 1534 4219 1204 4116 
Q 875 4013 500 3803 
L 500 4441 
Q 881 4594 1212 4672 
Q 1544 4750 1819 4750 
Q 2544 4750 2975 4387 
Q 3406 4025 3406 3419 
Q 3406 3131 3298 2873 
Q 3191 2616 2906 2266 
Q 2828 2175 2409 1742 
Q 1991 1309 1228 531 
z
" transform="scale(0.015625)"/>
       </defs>
       <use xlink:href="#DejaVuSans-30"/>
       <use xlink:href="#DejaVuSans-2e" transform="translate(63.623047 0)"/>
       <use xlink:href="#DejaVuSans-32" transform="translate(95.410156 0)"/>
      </g>
     </g>
    </g>
    <g id="xtick_3">
     <g id="line2d_3">
      <path d="M 277.374492 268.38 
L 277.374492 25.92 
" clip-path="url(#pc4e67566cb)" style="fill: none; stroke: #ffffff; stroke-width: 2; stroke-linecap: round"/>
     </g>
     <g id="text_3">
      <!-- 0.4 -->
      <g style="fill: #262626" transform="translate(259.881054 300.596563) scale(0.22 -0.22)">
       <defs>
        <path id="DejaVuSans-34" d="M 2419 4116 
L 825 1625 
L 2419 1625 
L 2419 4116 
z
M 2253 4666 
L 3047 4666 
L 3047 1625 
L 3713 1625 
L 3713 1100 
L 3047 1100 
L 3047 0 
L 2419 0 
L 2419 1100 
L 313 1100 
L 313 1709 
L 2253 4666 
z
" transform="scale(0.015625)"/>
       </defs>
       <use xlink:href="#DejaVuSans-30"/>
       <use xlink:href="#DejaVuSans-2e" transform="translate(63.623047 0)"/>
       <use xlink:href="#DejaVuSans-34" transform="translate(95.410156 0)"/>
      </g>
     </g>
    </g>
    <g id="xtick_4">
     <g id="line2d_4">
      <path d="M 351.295891 268.38 
L 351.295891 25.92 
" clip-path="url(#pc4e67566cb)" style="fill: none; stroke: #ffffff; stroke-width: 2; stroke-linecap: round"/>
     </g>
     <g id="text_4">
      <!-- 0.6 -->
      <g style="fill: #262626" transform="translate(333.802453 300.596563) scale(0.22 -0.22)">
       <defs>
        <path id="DejaVuSans-36" d="M 2113 2584 
Q 1688 2584 1439 2293 
Q 1191 2003 1191 1497 
Q 1191 994 1439 701 
Q 1688 409 2113 409 
Q 2538 409 2786 701 
Q 3034 994 3034 1497 
Q 3034 2003 2786 2293 
Q 2538 2584 2113 2584 
z
M 3366 4563 
L 3366 3988 
Q 3128 4100 2886 4159 
Q 2644 4219 2406 4219 
Q 1781 4219 1451 3797 
Q 1122 3375 1075 2522 
Q 1259 2794 1537 2939 
Q 1816 3084 2150 3084 
Q 2853 3084 3261 2657 
Q 3669 2231 3669 1497 
Q 3669 778 3244 343 
Q 2819 -91 2113 -91 
Q 1303 -91 875 529 
Q 447 1150 447 2328 
Q 447 3434 972 4092 
Q 1497 4750 2381 4750 
Q 2619 4750 2861 4703 
Q 3103 4656 3366 4563 
z
" transform="scale(0.015625)"/>
       </defs>
       <use xlink:href="#DejaVuSans-30"/>
       <use xlink:href="#DejaVuSans-2e" transform="translate(63.623047 0)"/>
       <use xlink:href="#DejaVuSans-36" transform="translate(95.410156 0)"/>
      </g>
     </g>
    </g>
    <g id="xtick_5">
     <g id="line2d_5">
      <path d="M 425.21729 268.38 
L 425.21729 25.92 
" clip-path="url(#pc4e67566cb)" style="fill: none; stroke: #ffffff; stroke-width: 2; stroke-linecap: round"/>
     </g>
     <g id="text_5">
      <!-- 0.8 -->
      <g style="fill: #262626" transform="translate(407.723853 300.596563) scale(0.22 -0.22)">
       <defs>
        <path id="DejaVuSans-38" d="M 2034 2216 
Q 1584 2216 1326 1975 
Q 1069 1734 1069 1313 
Q 1069 891 1326 650 
Q 1584 409 2034 409 
Q 2484 409 2743 651 
Q 3003 894 3003 1313 
Q 3003 1734 2745 1975 
Q 2488 2216 2034 2216 
z
M 1403 2484 
Q 997 2584 770 2862 
Q 544 3141 544 3541 
Q 544 4100 942 4425 
Q 1341 4750 2034 4750 
Q 2731 4750 3128 4425 
Q 3525 4100 3525 3541 
Q 3525 3141 3298 2862 
Q 3072 2584 2669 2484 
Q 3125 2378 3379 2068 
Q 3634 1759 3634 1313 
Q 3634 634 3220 271 
Q 2806 -91 2034 -91 
Q 1263 -91 848 271 
Q 434 634 434 1313 
Q 434 1759 690 2068 
Q 947 2378 1403 2484 
z
M 1172 3481 
Q 1172 3119 1398 2916 
Q 1625 2713 2034 2713 
Q 2441 2713 2670 2916 
Q 2900 3119 2900 3481 
Q 2900 3844 2670 4047 
Q 2441 4250 2034 4250 
Q 1625 4250 1398 4047 
Q 1172 3844 1172 3481 
z
" transform="scale(0.015625)"/>
       </defs>
       <use xlink:href="#DejaVuSans-30"/>
       <use xlink:href="#DejaVuSans-2e" transform="translate(63.623047 0)"/>
       <use xlink:href="#DejaVuSans-38" transform="translate(95.410156 0)"/>
      </g>
     </g>
    </g>
    <g id="xtick_6">
     <g id="line2d_6">
      <path d="M 499.13869 268.38 
L 499.13869 25.92 
" clip-path="url(#pc4e67566cb)" style="fill: none; stroke: #ffffff; stroke-width: 2; stroke-linecap: round"/>
     </g>
     <g id="text_6">
      <!-- 1.0 -->
      <g style="fill: #262626" transform="translate(481.645252 300.596563) scale(0.22 -0.22)">
       <defs>
        <path id="DejaVuSans-31" d="M 794 531 
L 1825 531 
L 1825 4091 
L 703 3866 
L 703 4441 
L 1819 4666 
L 2450 4666 
L 2450 531 
L 3481 531 
L 3481 0 
L 794 0 
L 794 531 
z
" transform="scale(0.015625)"/>
       </defs>
       <use xlink:href="#DejaVuSans-31"/>
       <use xlink:href="#DejaVuSans-2e" transform="translate(63.623047 0)"/>
       <use xlink:href="#DejaVuSans-30" transform="translate(95.410156 0)"/>
      </g>
     </g>
    </g>
    <g id="text_7">
     <!-- iou -->
     <g style="fill: #262626" transform="translate(293.117369 327.408125) scale(0.24 -0.24)">
      <defs>
       <path id="DejaVuSans-69" d="M 603 3500 
L 1178 3500 
L 1178 0 
L 603 0 
L 603 3500 
z
M 603 4863 
L 1178 4863 
L 1178 4134 
L 603 4134 
L 603 4863 
z
" transform="scale(0.015625)"/>
       <path id="DejaVuSans-6f" d="M 1959 3097 
Q 1497 3097 1228 2736 
Q 959 2375 959 1747 
Q 959 1119 1226 758 
Q 1494 397 1959 397 
Q 2419 397 2687 759 
Q 2956 1122 2956 1747 
Q 2956 2369 2687 2733 
Q 2419 3097 1959 3097 
z
M 1959 3584 
Q 2709 3584 3137 3096 
Q 3566 2609 3566 1747 
Q 3566 888 3137 398 
Q 2709 -91 1959 -91 
Q 1206 -91 779 398 
Q 353 888 353 1747 
Q 353 2609 779 3096 
Q 1206 3584 1959 3584 
z
" transform="scale(0.015625)"/>
       <path id="DejaVuSans-75" d="M 544 1381 
L 544 3500 
L 1119 3500 
L 1119 1403 
Q 1119 906 1312 657 
Q 1506 409 1894 409 
Q 2359 409 2629 706 
Q 2900 1003 2900 1516 
L 2900 3500 
L 3475 3500 
L 3475 0 
L 2900 0 
L 2900 538 
Q 2691 219 2414 64 
Q 2138 -91 1772 -91 
Q 1169 -91 856 284 
Q 544 659 544 1381 
z
M 1991 3584 
L 1991 3584 
z
" transform="scale(0.015625)"/>
      </defs>
      <use xlink:href="#DejaVuSans-69"/>
      <use xlink:href="#DejaVuSans-6f" transform="translate(27.783203 0)"/>
      <use xlink:href="#DejaVuSans-75" transform="translate(88.964844 0)"/>
     </g>
    </g>
   </g>
   <g id="matplotlib.axis_2">
    <g id="ytick_1">
     <g id="line2d_7">
      <path d="M 111.345 268.38 
L 511.452238 268.38 
" clip-path="url(#pc4e67566cb)" style="fill: none; stroke: #ffffff; stroke-width: 2; stroke-linecap: round"/>
     </g>
     <g id="text_8">
      <!-- 0 -->
      <g style="fill: #262626" transform="translate(81.8475 276.738281) scale(0.22 -0.22)">
       <use xlink:href="#DejaVuSans-30"/>
      </g>
     </g>
    </g>
    <g id="ytick_2">
     <g id="line2d_8">
      <path d="M 111.345 180.746495 
L 511.452238 180.746495 
" clip-path="url(#pc4e67566cb)" style="fill: none; stroke: #ffffff; stroke-width: 2; stroke-linecap: round"/>
     </g>
     <g id="text_9">
      <!-- 200 -->
      <g style="fill: #262626" transform="translate(53.8525 189.104776) scale(0.22 -0.22)">
       <use xlink:href="#DejaVuSans-32"/>
       <use xlink:href="#DejaVuSans-30" transform="translate(63.623047 0)"/>
       <use xlink:href="#DejaVuSans-30" transform="translate(127.246094 0)"/>
      </g>
     </g>
    </g>
    <g id="ytick_3">
     <g id="line2d_9">
      <path d="M 111.345 93.11299 
L 511.452238 93.11299 
" clip-path="url(#pc4e67566cb)" style="fill: none; stroke: #ffffff; stroke-width: 2; stroke-linecap: round"/>
     </g>
     <g id="text_10">
      <!-- 400 -->
      <g style="fill: #262626" transform="translate(53.8525 101.471271) scale(0.22 -0.22)">
       <use xlink:href="#DejaVuSans-34"/>
       <use xlink:href="#DejaVuSans-30" transform="translate(63.623047 0)"/>
       <use xlink:href="#DejaVuSans-30" transform="translate(127.246094 0)"/>
      </g>
     </g>
    </g>
    <g id="text_11">
     <!-- Count -->
     <g style="fill: #262626" transform="translate(44.86125 182.78625) rotate(-90) scale(0.24 -0.24)">
      <defs>
       <path id="DejaVuSans-43" d="M 4122 4306 
L 4122 3641 
Q 3803 3938 3442 4084 
Q 3081 4231 2675 4231 
Q 1875 4231 1450 3742 
Q 1025 3253 1025 2328 
Q 1025 1406 1450 917 
Q 1875 428 2675 428 
Q 3081 428 3442 575 
Q 3803 722 4122 1019 
L 4122 359 
Q 3791 134 3420 21 
Q 3050 -91 2638 -91 
Q 1578 -91 968 557 
Q 359 1206 359 2328 
Q 359 3453 968 4101 
Q 1578 4750 2638 4750 
Q 3056 4750 3426 4639 
Q 3797 4528 4122 4306 
z
" transform="scale(0.015625)"/>
       <path id="DejaVuSans-6e" d="M 3513 2113 
L 3513 0 
L 2938 0 
L 2938 2094 
Q 2938 2591 2744 2837 
Q 2550 3084 2163 3084 
Q 1697 3084 1428 2787 
Q 1159 2491 1159 1978 
L 1159 0 
L 581 0 
L 581 3500 
L 1159 3500 
L 1159 2956 
Q 1366 3272 1645 3428 
Q 1925 3584 2291 3584 
Q 2894 3584 3203 3211 
Q 3513 2838 3513 2113 
z
" transform="scale(0.015625)"/>
       <path id="DejaVuSans-74" d="M 1172 4494 
L 1172 3500 
L 2356 3500 
L 2356 3053 
L 1172 3053 
L 1172 1153 
Q 1172 725 1289 603 
Q 1406 481 1766 481 
L 2356 481 
L 2356 0 
L 1766 0 
Q 1100 0 847 248 
Q 594 497 594 1153 
L 594 3053 
L 172 3053 
L 172 3500 
L 594 3500 
L 594 4494 
L 1172 4494 
z
" transform="scale(0.015625)"/>
      </defs>
      <use xlink:href="#DejaVuSans-43"/>
      <use xlink:href="#DejaVuSans-6f" transform="translate(69.824219 0)"/>
      <use xlink:href="#DejaVuSans-75" transform="translate(131.005859 0)"/>
      <use xlink:href="#DejaVuSans-6e" transform="translate(194.384766 0)"/>
      <use xlink:href="#DejaVuSans-74" transform="translate(257.763672 0)"/>
     </g>
    </g>
   </g>
   <g id="patch_3">
    <path d="M 129.531693 268.38 
L 137.270711 268.38 
L 137.270711 195.206023 
L 129.531693 195.206023 
z
" clip-path="url(#pc4e67566cb)" style="fill: #4ab31a; fill-opacity: 0.5; stroke: #ffffff; stroke-width: 0.735889; stroke-linejoin: miter"/>
   </g>
   <g id="patch_4">
    <path d="M 137.270711 268.38 
L 145.009729 268.38 
L 145.009729 264.436492 
L 137.270711 264.436492 
z
" clip-path="url(#pc4e67566cb)" style="fill: #4ab31a; fill-opacity: 0.5; stroke: #ffffff; stroke-width: 0.735889; stroke-linejoin: miter"/>
   </g>
   <g id="patch_5">
    <path d="M 145.009729 268.38 
L 152.748747 268.38 
L 152.748747 266.62733 
L 145.009729 266.62733 
z
" clip-path="url(#pc4e67566cb)" style="fill: #4ab31a; fill-opacity: 0.5; stroke: #ffffff; stroke-width: 0.735889; stroke-linejoin: miter"/>
   </g>
   <g id="patch_6">
    <path d="M 152.748747 268.38 
L 160.487765 268.38 
L 160.487765 263.560157 
L 152.748747 263.560157 
z
" clip-path="url(#pc4e67566cb)" style="fill: #4ab31a; fill-opacity: 0.5; stroke: #ffffff; stroke-width: 0.735889; stroke-linejoin: miter"/>
   </g>
   <g id="patch_7">
    <path d="M 160.487765 268.38 
L 168.226783 268.38 
L 168.226783 253.920472 
L 160.487765 253.920472 
z
" clip-path="url(#pc4e67566cb)" style="fill: #4ab31a; fill-opacity: 0.5; stroke: #ffffff; stroke-width: 0.735889; stroke-linejoin: miter"/>
   </g>
   <g id="patch_8">
    <path d="M 168.226783 268.38 
L 175.965802 268.38 
L 175.965802 257.425812 
L 168.226783 257.425812 
z
" clip-path="url(#pc4e67566cb)" style="fill: #4ab31a; fill-opacity: 0.5; stroke: #ffffff; stroke-width: 0.735889; stroke-linejoin: miter"/>
   </g>
   <g id="patch_9">
    <path d="M 175.965802 268.38 
L 183.70482 268.38 
L 183.70482 248.224294 
L 175.965802 248.224294 
z
" clip-path="url(#pc4e67566cb)" style="fill: #4ab31a; fill-opacity: 0.5; stroke: #ffffff; stroke-width: 0.735889; stroke-linejoin: miter"/>
   </g>
   <g id="patch_10">
    <path d="M 183.70482 268.38 
L 191.443838 268.38 
L 191.443838 248.224294 
L 183.70482 248.224294 
z
" clip-path="url(#pc4e67566cb)" style="fill: #4ab31a; fill-opacity: 0.5; stroke: #ffffff; stroke-width: 0.735889; stroke-linejoin: miter"/>
   </g>
   <g id="patch_11">
    <path d="M 191.443838 268.38 
L 199.182856 268.38 
L 199.182856 232.88843 
L 191.443838 232.88843 
z
" clip-path="url(#pc4e67566cb)" style="fill: #4ab31a; fill-opacity: 0.5; stroke: #ffffff; stroke-width: 0.735889; stroke-linejoin: miter"/>
   </g>
   <g id="patch_12">
    <path d="M 199.182856 268.38 
L 206.921874 268.38 
L 206.921874 230.697593 
L 199.182856 230.697593 
z
" clip-path="url(#pc4e67566cb)" style="fill: #4ab31a; fill-opacity: 0.5; stroke: #ffffff; stroke-width: 0.735889; stroke-linejoin: miter"/>
   </g>
   <g id="patch_13">
    <path d="M 206.921874 268.38 
L 214.660892 268.38 
L 214.660892 207.036546 
L 206.921874 207.036546 
z
" clip-path="url(#pc4e67566cb)" style="fill: #4ab31a; fill-opacity: 0.5; stroke: #ffffff; stroke-width: 0.735889; stroke-linejoin: miter"/>
   </g>
   <g id="patch_14">
    <path d="M 214.660892 268.38 
L 222.39991 268.38 
L 222.39991 199.149531 
L 214.660892 199.149531 
z
" clip-path="url(#pc4e67566cb)" style="fill: #4ab31a; fill-opacity: 0.5; stroke: #ffffff; stroke-width: 0.735889; stroke-linejoin: miter"/>
   </g>
   <g id="patch_15">
    <path d="M 222.39991 268.38 
L 230.138929 268.38 
L 230.138929 195.644191 
L 222.39991 195.644191 
z
" clip-path="url(#pc4e67566cb)" style="fill: #4ab31a; fill-opacity: 0.5; stroke: #ffffff; stroke-width: 0.735889; stroke-linejoin: miter"/>
   </g>
   <g id="patch_16">
    <path d="M 230.138929 268.38 
L 237.877947 268.38 
L 237.877947 161.467124 
L 230.138929 161.467124 
z
" clip-path="url(#pc4e67566cb)" style="fill: #4ab31a; fill-opacity: 0.5; stroke: #ffffff; stroke-width: 0.735889; stroke-linejoin: miter"/>
   </g>
   <g id="patch_17">
    <path d="M 237.877947 268.38 
L 245.616965 268.38 
L 245.616965 134.300737 
L 237.877947 134.300737 
z
" clip-path="url(#pc4e67566cb)" style="fill: #4ab31a; fill-opacity: 0.5; stroke: #ffffff; stroke-width: 0.735889; stroke-linejoin: miter"/>
   </g>
   <g id="patch_18">
    <path d="M 245.616965 268.38 
L 253.355983 268.38 
L 253.355983 131.671732 
L 245.616965 131.671732 
z
" clip-path="url(#pc4e67566cb)" style="fill: #4ab31a; fill-opacity: 0.5; stroke: #ffffff; stroke-width: 0.735889; stroke-linejoin: miter"/>
   </g>
   <g id="patch_19">
    <path d="M 253.355983 268.38 
L 261.095001 268.38 
L 261.095001 103.190843 
L 253.355983 103.190843 
z
" clip-path="url(#pc4e67566cb)" style="fill: #4ab31a; fill-opacity: 0.5; stroke: #ffffff; stroke-width: 0.735889; stroke-linejoin: miter"/>
   </g>
   <g id="patch_20">
    <path d="M 261.095001 268.38 
L 268.834019 268.38 
L 268.834019 90.483985 
L 261.095001 90.483985 
z
" clip-path="url(#pc4e67566cb)" style="fill: #4ab31a; fill-opacity: 0.5; stroke: #ffffff; stroke-width: 0.735889; stroke-linejoin: miter"/>
   </g>
   <g id="patch_21">
    <path d="M 268.834019 268.38 
L 276.573038 268.38 
L 276.573038 83.473304 
L 268.834019 83.473304 
z
" clip-path="url(#pc4e67566cb)" style="fill: #4ab31a; fill-opacity: 0.5; stroke: #ffffff; stroke-width: 0.735889; stroke-linejoin: miter"/>
   </g>
   <g id="patch_22">
    <path d="M 276.573038 268.38 
L 284.312056 268.38 
L 284.312056 58.497755 
L 276.573038 58.497755 
z
" clip-path="url(#pc4e67566cb)" style="fill: #4ab31a; fill-opacity: 0.5; stroke: #ffffff; stroke-width: 0.735889; stroke-linejoin: miter"/>
   </g>
   <g id="patch_23">
    <path d="M 284.312056 268.38 
L 292.051074 268.38 
L 292.051074 47.981735 
L 284.312056 47.981735 
z
" clip-path="url(#pc4e67566cb)" style="fill: #4ab31a; fill-opacity: 0.5; stroke: #ffffff; stroke-width: 0.735889; stroke-linejoin: miter"/>
   </g>
   <g id="patch_24">
    <path d="M 292.051074 268.38 
L 299.790092 268.38 
L 299.790092 37.465714 
L 292.051074 37.465714 
z
" clip-path="url(#pc4e67566cb)" style="fill: #4ab31a; fill-opacity: 0.5; stroke: #ffffff; stroke-width: 0.735889; stroke-linejoin: miter"/>
   </g>
   <g id="patch_25">
    <path d="M 299.790092 268.38 
L 307.52911 268.38 
L 307.52911 37.465714 
L 299.790092 37.465714 
z
" clip-path="url(#pc4e67566cb)" style="fill: #4ab31a; fill-opacity: 0.5; stroke: #ffffff; stroke-width: 0.735889; stroke-linejoin: miter"/>
   </g>
   <g id="patch_26">
    <path d="M 307.52911 268.38 
L 315.268128 268.38 
L 315.268128 58.497755 
L 307.52911 58.497755 
z
" clip-path="url(#pc4e67566cb)" style="fill: #4ab31a; fill-opacity: 0.5; stroke: #ffffff; stroke-width: 0.735889; stroke-linejoin: miter"/>
   </g>
   <g id="patch_27">
    <path d="M 315.268128 268.38 
L 323.007146 268.38 
L 323.007146 82.158802 
L 315.268128 82.158802 
z
" clip-path="url(#pc4e67566cb)" style="fill: #4ab31a; fill-opacity: 0.5; stroke: #ffffff; stroke-width: 0.735889; stroke-linejoin: miter"/>
   </g>
   <g id="patch_28">
    <path d="M 323.007146 268.38 
L 330.746165 268.38 
L 330.746165 78.215294 
L 323.007146 78.215294 
z
" clip-path="url(#pc4e67566cb)" style="fill: #4ab31a; fill-opacity: 0.5; stroke: #ffffff; stroke-width: 0.735889; stroke-linejoin: miter"/>
   </g>
   <g id="patch_29">
    <path d="M 330.746165 268.38 
L 338.485183 268.38 
L 338.485183 106.258016 
L 330.746165 106.258016 
z
" clip-path="url(#pc4e67566cb)" style="fill: #4ab31a; fill-opacity: 0.5; stroke: #ffffff; stroke-width: 0.735889; stroke-linejoin: miter"/>
   </g>
   <g id="patch_30">
    <path d="M 338.485183 268.38 
L 346.224201 268.38 
L 346.224201 112.392361 
L 338.485183 112.392361 
z
" clip-path="url(#pc4e67566cb)" style="fill: #4ab31a; fill-opacity: 0.5; stroke: #ffffff; stroke-width: 0.735889; stroke-linejoin: miter"/>
   </g>
   <g id="patch_31">
    <path d="M 346.224201 268.38 
L 353.963219 268.38 
L 353.963219 132.548067 
L 346.224201 132.548067 
z
" clip-path="url(#pc4e67566cb)" style="fill: #4ab31a; fill-opacity: 0.5; stroke: #ffffff; stroke-width: 0.735889; stroke-linejoin: miter"/>
   </g>
   <g id="patch_32">
    <path d="M 353.963219 268.38 
L 361.702237 268.38 
L 361.702237 133.424402 
L 353.963219 133.424402 
z
" clip-path="url(#pc4e67566cb)" style="fill: #4ab31a; fill-opacity: 0.5; stroke: #ffffff; stroke-width: 0.735889; stroke-linejoin: miter"/>
   </g>
   <g id="patch_33">
    <path d="M 361.702237 268.38 
L 369.441255 268.38 
L 369.441255 156.209114 
L 361.702237 156.209114 
z
" clip-path="url(#pc4e67566cb)" style="fill: #4ab31a; fill-opacity: 0.5; stroke: #ffffff; stroke-width: 0.735889; stroke-linejoin: miter"/>
   </g>
   <g id="patch_34">
    <path d="M 369.441255 268.38 
L 377.180273 268.38 
L 377.180273 179.87016 
L 369.441255 179.87016 
z
" clip-path="url(#pc4e67566cb)" style="fill: #4ab31a; fill-opacity: 0.5; stroke: #ffffff; stroke-width: 0.735889; stroke-linejoin: miter"/>
   </g>
   <g id="patch_35">
    <path d="M 377.180273 268.38 
L 384.919292 268.38 
L 384.919292 190.824348 
L 377.180273 190.824348 
z
" clip-path="url(#pc4e67566cb)" style="fill: #4ab31a; fill-opacity: 0.5; stroke: #ffffff; stroke-width: 0.735889; stroke-linejoin: miter"/>
   </g>
   <g id="patch_36">
    <path d="M 384.919292 268.38 
L 392.65831 268.38 
L 392.65831 213.609059 
L 384.919292 213.609059 
z
" clip-path="url(#pc4e67566cb)" style="fill: #4ab31a; fill-opacity: 0.5; stroke: #ffffff; stroke-width: 0.735889; stroke-linejoin: miter"/>
   </g>
   <g id="patch_37">
    <path d="M 392.65831 268.38 
L 400.397328 268.38 
L 400.397328 210.103719 
L 392.65831 210.103719 
z
" clip-path="url(#pc4e67566cb)" style="fill: #4ab31a; fill-opacity: 0.5; stroke: #ffffff; stroke-width: 0.735889; stroke-linejoin: miter"/>
   </g>
   <g id="patch_38">
    <path d="M 400.397328 268.38 
L 408.136346 268.38 
L 408.136346 227.192253 
L 400.397328 227.192253 
z
" clip-path="url(#pc4e67566cb)" style="fill: #4ab31a; fill-opacity: 0.5; stroke: #ffffff; stroke-width: 0.735889; stroke-linejoin: miter"/>
   </g>
   <g id="patch_39">
    <path d="M 408.136346 268.38 
L 415.875364 268.38 
L 415.875364 228.506755 
L 408.136346 228.506755 
z
" clip-path="url(#pc4e67566cb)" style="fill: #4ab31a; fill-opacity: 0.5; stroke: #ffffff; stroke-width: 0.735889; stroke-linejoin: miter"/>
   </g>
   <g id="patch_40">
    <path d="M 415.875364 268.38 
L 423.614382 268.38 
L 423.614382 241.651781 
L 415.875364 241.651781 
z
" clip-path="url(#pc4e67566cb)" style="fill: #4ab31a; fill-opacity: 0.5; stroke: #ffffff; stroke-width: 0.735889; stroke-linejoin: miter"/>
   </g>
   <g id="patch_41">
    <path d="M 423.614382 268.38 
L 431.353401 268.38 
L 431.353401 235.955603 
L 423.614382 235.955603 
z
" clip-path="url(#pc4e67566cb)" style="fill: #4ab31a; fill-opacity: 0.5; stroke: #ffffff; stroke-width: 0.735889; stroke-linejoin: miter"/>
   </g>
   <g id="patch_42">
    <path d="M 431.353401 268.38 
L 439.092419 268.38 
L 439.092419 226.754085 
L 431.353401 226.754085 
z
" clip-path="url(#pc4e67566cb)" style="fill: #4ab31a; fill-opacity: 0.5; stroke: #ffffff; stroke-width: 0.735889; stroke-linejoin: miter"/>
   </g>
   <g id="patch_43">
    <path d="M 439.092419 268.38 
L 446.831437 268.38 
L 446.831437 225.001415 
L 439.092419 225.001415 
z
" clip-path="url(#pc4e67566cb)" style="fill: #4ab31a; fill-opacity: 0.5; stroke: #ffffff; stroke-width: 0.735889; stroke-linejoin: miter"/>
   </g>
   <g id="patch_44">
    <path d="M 446.831437 268.38 
L 454.570455 268.38 
L 454.570455 221.057907 
L 446.831437 221.057907 
z
" clip-path="url(#pc4e67566cb)" style="fill: #4ab31a; fill-opacity: 0.5; stroke: #ffffff; stroke-width: 0.735889; stroke-linejoin: miter"/>
   </g>
   <g id="patch_45">
    <path d="M 454.570455 268.38 
L 462.309473 268.38 
L 462.309473 225.87775 
L 454.570455 225.87775 
z
" clip-path="url(#pc4e67566cb)" style="fill: #4ab31a; fill-opacity: 0.5; stroke: #ffffff; stroke-width: 0.735889; stroke-linejoin: miter"/>
   </g>
   <g id="patch_46">
    <path d="M 462.309473 268.38 
L 470.048491 268.38 
L 470.048491 222.810577 
L 462.309473 222.810577 
z
" clip-path="url(#pc4e67566cb)" style="fill: #4ab31a; fill-opacity: 0.5; stroke: #ffffff; stroke-width: 0.735889; stroke-linejoin: miter"/>
   </g>
   <g id="patch_47">
    <path d="M 470.048491 268.38 
L 477.787509 268.38 
L 477.787509 229.38309 
L 470.048491 229.38309 
z
" clip-path="url(#pc4e67566cb)" style="fill: #4ab31a; fill-opacity: 0.5; stroke: #ffffff; stroke-width: 0.735889; stroke-linejoin: miter"/>
   </g>
   <g id="patch_48">
    <path d="M 477.787509 268.38 
L 485.526528 268.38 
L 485.526528 239.899111 
L 477.787509 239.899111 
z
" clip-path="url(#pc4e67566cb)" style="fill: #4ab31a; fill-opacity: 0.5; stroke: #ffffff; stroke-width: 0.735889; stroke-linejoin: miter"/>
   </g>
   <g id="patch_49">
    <path d="M 485.526528 268.38 
L 493.265546 268.38 
L 493.265546 256.111309 
L 485.526528 256.111309 
z
" clip-path="url(#pc4e67566cb)" style="fill: #4ab31a; fill-opacity: 0.5; stroke: #ffffff; stroke-width: 0.735889; stroke-linejoin: miter"/>
   </g>
   <g id="line2d_10">
    <path d="M 129.531693 247.205071 
L 131.359501 247.287052 
L 133.187309 247.870859 
L 135.015118 248.893261 
L 136.842926 250.257449 
L 140.498542 253.527521 
L 144.154159 256.706854 
L 145.981967 258.014584 
L 147.809776 259.052419 
L 149.637584 259.793904 
L 151.465392 260.237634 
L 153.293201 260.402158 
L 155.121009 260.319837 
L 156.948817 260.030605 
L 158.776626 259.576357 
L 162.432242 258.324355 
L 166.087859 256.798985 
L 171.571284 254.20552 
L 175.2269 252.242997 
L 178.882517 249.996013 
L 182.538134 247.361985 
L 186.19375 244.247133 
L 189.849367 240.586949 
L 193.504983 236.369889 
L 197.1606 231.655436 
L 200.816217 226.56883 
L 208.12745 215.837427 
L 213.610875 207.429201 
L 217.266491 201.367775 
L 220.922108 194.609597 
L 224.577725 186.918342 
L 228.233341 178.242038 
L 231.888958 168.777408 
L 241.027999 144.450758 
L 244.683616 135.481302 
L 248.339233 127.16277 
L 251.994849 119.36835 
L 259.306082 104.530289 
L 272.100741 79.081256 
L 275.756357 72.168215 
L 279.411974 65.644122 
L 283.06759 59.679325 
L 284.895399 56.974378 
L 286.723207 54.500468 
L 288.551015 52.29947 
L 290.378824 50.418533 
L 292.206632 48.908069 
L 294.03444 47.818285 
L 295.862249 47.194466 
L 297.690057 47.071553 
L 299.517865 47.468866 
L 301.345673 48.385905 
L 303.173482 49.800144 
L 305.00129 51.667412 
L 306.829098 53.925046 
L 308.656907 56.497498 
L 312.312523 62.264582 
L 330.590606 92.892721 
L 336.074031 102.713906 
L 350.696498 129.832646 
L 358.007731 143.580744 
L 363.491156 154.299465 
L 370.802389 169.212334 
L 379.941431 187.993668 
L 383.597047 195.046571 
L 387.252664 201.556691 
L 390.908281 207.401244 
L 394.563897 212.550976 
L 398.219514 217.058874 
L 401.87513 221.011079 
L 405.530747 224.468142 
L 409.186364 227.426216 
L 411.014172 228.697619 
L 412.84198 229.81315 
L 414.669789 230.758166 
L 416.497597 231.519004 
L 418.325405 232.084957 
L 420.153213 232.45011 
L 421.981022 232.614795 
L 423.80883 232.586448 
L 425.636638 232.37972 
L 427.464447 232.015793 
L 431.120063 230.924844 
L 436.603488 228.82861 
L 442.086913 226.793637 
L 445.74253 225.691146 
L 449.398146 224.881179 
L 453.053763 224.431206 
L 454.881571 224.367358 
L 456.70938 224.428357 
L 458.537188 224.629243 
L 460.364996 224.985974 
L 462.192804 225.514533 
L 464.020613 226.229815 
L 465.848421 227.144382 
L 467.676229 228.267215 
L 469.504038 229.602575 
L 471.331846 231.149093 
L 473.159654 232.899147 
L 474.987463 234.838576 
L 478.643079 239.196778 
L 484.126504 246.45405 
L 487.782121 251.313839 
L 491.437737 255.809257 
L 493.265546 257.832528 
L 493.265546 257.832528 
" clip-path="url(#pc4e67566cb)" style="fill: none; stroke: #4ab31a; stroke-width: 3; stroke-linecap: round"/>
   </g>
   <g id="patch_50">
    <path d="M 111.345 268.38 
L 111.345 25.92 
" style="fill: none; stroke: #ffffff; stroke-width: 2.5; stroke-linejoin: miter; stroke-linecap: square"/>
   </g>
   <g id="patch_51">
    <path d="M 511.452238 268.38 
L 511.452238 25.92 
" style="fill: none; stroke: #ffffff; stroke-width: 2.5; stroke-linejoin: miter; stroke-linecap: square"/>
   </g>
   <g id="patch_52">
    <path d="M 111.345 268.38 
L 511.452238 268.38 
" style="fill: none; stroke: #ffffff; stroke-width: 2.5; stroke-linejoin: miter; stroke-linecap: square"/>
   </g>
   <g id="patch_53">
    <path d="M 111.345 25.92 
L 511.452238 25.92 
" style="fill: none; stroke: #ffffff; stroke-width: 2.5; stroke-linejoin: miter; stroke-linecap: square"/>
   </g>
  </g>
  <g id="axes_2">
   <g id="patch_54">
    <path d="M 635.501014 268.38 
L 1035.608252 268.38 
L 1035.608252 25.92 
L 635.501014 25.92 
z
" style="fill: #eaeaf2"/>
   </g>
   <g id="matplotlib.axis_3">
    <g id="xtick_7">
     <g id="line2d_11">
      <path d="M 653.687706 268.38 
L 653.687706 25.92 
" clip-path="url(#pda48905c6a)" style="fill: none; stroke: #ffffff; stroke-width: 2; stroke-linecap: round"/>
     </g>
     <g id="text_12">
      <!-- 0.0 -->
      <g style="fill: #262626" transform="translate(636.194269 300.596563) scale(0.22 -0.22)">
       <use xlink:href="#DejaVuSans-30"/>
       <use xlink:href="#DejaVuSans-2e" transform="translate(63.623047 0)"/>
       <use xlink:href="#DejaVuSans-30" transform="translate(95.410156 0)"/>
      </g>
     </g>
    </g>
    <g id="xtick_8">
     <g id="line2d_12">
      <path d="M 728.82229 268.38 
L 728.82229 25.92 
" clip-path="url(#pda48905c6a)" style="fill: none; stroke: #ffffff; stroke-width: 2; stroke-linecap: round"/>
     </g>
     <g id="text_13">
      <!-- 0.2 -->
      <g style="fill: #262626" transform="translate(711.328853 300.596563) scale(0.22 -0.22)">
       <use xlink:href="#DejaVuSans-30"/>
       <use xlink:href="#DejaVuSans-2e" transform="translate(63.623047 0)"/>
       <use xlink:href="#DejaVuSans-32" transform="translate(95.410156 0)"/>
      </g>
     </g>
    </g>
    <g id="xtick_9">
     <g id="line2d_13">
      <path d="M 803.956874 268.38 
L 803.956874 25.92 
" clip-path="url(#pda48905c6a)" style="fill: none; stroke: #ffffff; stroke-width: 2; stroke-linecap: round"/>
     </g>
     <g id="text_14">
      <!-- 0.4 -->
      <g style="fill: #262626" transform="translate(786.463437 300.596563) scale(0.22 -0.22)">
       <use xlink:href="#DejaVuSans-30"/>
       <use xlink:href="#DejaVuSans-2e" transform="translate(63.623047 0)"/>
       <use xlink:href="#DejaVuSans-34" transform="translate(95.410156 0)"/>
      </g>
     </g>
    </g>
    <g id="xtick_10">
     <g id="line2d_14">
      <path d="M 879.091458 268.38 
L 879.091458 25.92 
" clip-path="url(#pda48905c6a)" style="fill: none; stroke: #ffffff; stroke-width: 2; stroke-linecap: round"/>
     </g>
     <g id="text_15">
      <!-- 0.6 -->
      <g style="fill: #262626" transform="translate(861.59802 300.596563) scale(0.22 -0.22)">
       <use xlink:href="#DejaVuSans-30"/>
       <use xlink:href="#DejaVuSans-2e" transform="translate(63.623047 0)"/>
       <use xlink:href="#DejaVuSans-36" transform="translate(95.410156 0)"/>
      </g>
     </g>
    </g>
    <g id="xtick_11">
     <g id="line2d_15">
      <path d="M 954.226042 268.38 
L 954.226042 25.92 
" clip-path="url(#pda48905c6a)" style="fill: none; stroke: #ffffff; stroke-width: 2; stroke-linecap: round"/>
     </g>
     <g id="text_16">
      <!-- 0.8 -->
      <g style="fill: #262626" transform="translate(936.732604 300.596563) scale(0.22 -0.22)">
       <use xlink:href="#DejaVuSans-30"/>
       <use xlink:href="#DejaVuSans-2e" transform="translate(63.623047 0)"/>
       <use xlink:href="#DejaVuSans-38" transform="translate(95.410156 0)"/>
      </g>
     </g>
    </g>
    <g id="xtick_12">
     <g id="line2d_16">
      <path d="M 1029.360626 268.38 
L 1029.360626 25.92 
" clip-path="url(#pda48905c6a)" style="fill: none; stroke: #ffffff; stroke-width: 2; stroke-linecap: round"/>
     </g>
     <g id="text_17">
      <!-- 1.0 -->
      <g style="fill: #262626" transform="translate(1011.867188 300.596563) scale(0.22 -0.22)">
       <use xlink:href="#DejaVuSans-31"/>
       <use xlink:href="#DejaVuSans-2e" transform="translate(63.623047 0)"/>
       <use xlink:href="#DejaVuSans-30" transform="translate(95.410156 0)"/>
      </g>
     </g>
    </g>
    <g id="text_18">
     <!-- lrp -->
     <g style="fill: #262626" transform="translate(819.669633 327.408125) scale(0.24 -0.24)">
      <defs>
       <path id="DejaVuSans-6c" d="M 603 4863 
L 1178 4863 
L 1178 0 
L 603 0 
L 603 4863 
z
" transform="scale(0.015625)"/>
       <path id="DejaVuSans-72" d="M 2631 2963 
Q 2534 3019 2420 3045 
Q 2306 3072 2169 3072 
Q 1681 3072 1420 2755 
Q 1159 2438 1159 1844 
L 1159 0 
L 581 0 
L 581 3500 
L 1159 3500 
L 1159 2956 
Q 1341 3275 1631 3429 
Q 1922 3584 2338 3584 
Q 2397 3584 2469 3576 
Q 2541 3569 2628 3553 
L 2631 2963 
z
" transform="scale(0.015625)"/>
       <path id="DejaVuSans-70" d="M 1159 525 
L 1159 -1331 
L 581 -1331 
L 581 3500 
L 1159 3500 
L 1159 2969 
Q 1341 3281 1617 3432 
Q 1894 3584 2278 3584 
Q 2916 3584 3314 3078 
Q 3713 2572 3713 1747 
Q 3713 922 3314 415 
Q 2916 -91 2278 -91 
Q 1894 -91 1617 61 
Q 1341 213 1159 525 
z
M 3116 1747 
Q 3116 2381 2855 2742 
Q 2594 3103 2138 3103 
Q 1681 3103 1420 2742 
Q 1159 2381 1159 1747 
Q 1159 1113 1420 752 
Q 1681 391 2138 391 
Q 2594 391 2855 752 
Q 3116 1113 3116 1747 
z
" transform="scale(0.015625)"/>
      </defs>
      <use xlink:href="#DejaVuSans-6c"/>
      <use xlink:href="#DejaVuSans-72" transform="translate(27.783203 0)"/>
      <use xlink:href="#DejaVuSans-70" transform="translate(68.896484 0)"/>
     </g>
    </g>
   </g>
   <g id="matplotlib.axis_4">
    <g id="ytick_4">
     <g id="line2d_17">
      <path d="M 635.501014 268.38 
L 1035.608252 268.38 
" clip-path="url(#pda48905c6a)" style="fill: none; stroke: #ffffff; stroke-width: 2; stroke-linecap: round"/>
     </g>
     <g id="text_19">
      <!-- 0 -->
      <g style="fill: #262626" transform="translate(606.003514 276.738281) scale(0.22 -0.22)">
       <use xlink:href="#DejaVuSans-30"/>
      </g>
     </g>
    </g>
    <g id="ytick_5">
     <g id="line2d_18">
      <path d="M 635.501014 182.697519 
L 1035.608252 182.697519 
" clip-path="url(#pda48905c6a)" style="fill: none; stroke: #ffffff; stroke-width: 2; stroke-linecap: round"/>
     </g>
     <g id="text_20">
      <!-- 200 -->
      <g style="fill: #262626" transform="translate(578.008514 191.0558) scale(0.22 -0.22)">
       <use xlink:href="#DejaVuSans-32"/>
       <use xlink:href="#DejaVuSans-30" transform="translate(63.623047 0)"/>
       <use xlink:href="#DejaVuSans-30" transform="translate(127.246094 0)"/>
      </g>
     </g>
    </g>
    <g id="ytick_6">
     <g id="line2d_19">
      <path d="M 635.501014 97.015038 
L 1035.608252 97.015038 
" clip-path="url(#pda48905c6a)" style="fill: none; stroke: #ffffff; stroke-width: 2; stroke-linecap: round"/>
     </g>
     <g id="text_21">
      <!-- 400 -->
      <g style="fill: #262626" transform="translate(578.008514 105.37332) scale(0.22 -0.22)">
       <use xlink:href="#DejaVuSans-34"/>
       <use xlink:href="#DejaVuSans-30" transform="translate(63.623047 0)"/>
       <use xlink:href="#DejaVuSans-30" transform="translate(127.246094 0)"/>
      </g>
     </g>
    </g>
    <g id="text_22">
     <!-- Count -->
     <g style="fill: #262626" transform="translate(569.017264 182.78625) rotate(-90) scale(0.24 -0.24)">
      <use xlink:href="#DejaVuSans-43"/>
      <use xlink:href="#DejaVuSans-6f" transform="translate(69.824219 0)"/>
      <use xlink:href="#DejaVuSans-75" transform="translate(131.005859 0)"/>
      <use xlink:href="#DejaVuSans-6e" transform="translate(194.384766 0)"/>
      <use xlink:href="#DejaVuSans-74" transform="translate(257.763672 0)"/>
     </g>
    </g>
   </g>
   <g id="patch_55">
    <path d="M 653.687706 268.38 
L 660.819743 268.38 
L 660.819743 178.841808 
L 653.687706 178.841808 
z
" clip-path="url(#pda48905c6a)" style="fill: #4ab31a; fill-opacity: 0.5; stroke: #ffffff; stroke-width: 0.678172; stroke-linejoin: miter"/>
   </g>
   <g id="patch_56">
    <path d="M 660.819743 268.38 
L 667.951779 268.38 
L 667.951779 264.524288 
L 660.819743 264.524288 
z
" clip-path="url(#pda48905c6a)" style="fill: #4ab31a; fill-opacity: 0.5; stroke: #ffffff; stroke-width: 0.678172; stroke-linejoin: miter"/>
   </g>
   <g id="patch_57">
    <path d="M 667.951779 268.38 
L 675.083815 268.38 
L 675.083815 259.811752 
L 667.951779 259.811752 
z
" clip-path="url(#pda48905c6a)" style="fill: #4ab31a; fill-opacity: 0.5; stroke: #ffffff; stroke-width: 0.678172; stroke-linejoin: miter"/>
   </g>
   <g id="patch_58">
    <path d="M 675.083815 268.38 
L 682.215852 268.38 
L 682.215852 247.387792 
L 675.083815 247.387792 
z
" clip-path="url(#pda48905c6a)" style="fill: #4ab31a; fill-opacity: 0.5; stroke: #ffffff; stroke-width: 0.678172; stroke-linejoin: miter"/>
   </g>
   <g id="patch_59">
    <path d="M 682.215852 268.38 
L 689.347888 268.38 
L 689.347888 243.960493 
L 682.215852 243.960493 
z
" clip-path="url(#pda48905c6a)" style="fill: #4ab31a; fill-opacity: 0.5; stroke: #ffffff; stroke-width: 0.678172; stroke-linejoin: miter"/>
   </g>
   <g id="patch_60">
    <path d="M 689.347888 268.38 
L 696.479924 268.38 
L 696.479924 231.964946 
L 689.347888 231.964946 
z
" clip-path="url(#pda48905c6a)" style="fill: #4ab31a; fill-opacity: 0.5; stroke: #ffffff; stroke-width: 0.678172; stroke-linejoin: miter"/>
   </g>
   <g id="patch_61">
    <path d="M 696.479924 268.38 
L 703.611961 268.38 
L 703.611961 212.686387 
L 696.479924 212.686387 
z
" clip-path="url(#pda48905c6a)" style="fill: #4ab31a; fill-opacity: 0.5; stroke: #ffffff; stroke-width: 0.678172; stroke-linejoin: miter"/>
   </g>
   <g id="patch_62">
    <path d="M 703.611961 268.38 
L 710.743997 268.38 
L 710.743997 201.119253 
L 703.611961 201.119253 
z
" clip-path="url(#pda48905c6a)" style="fill: #4ab31a; fill-opacity: 0.5; stroke: #ffffff; stroke-width: 0.678172; stroke-linejoin: miter"/>
   </g>
   <g id="patch_63">
    <path d="M 710.743997 268.38 
L 717.876033 268.38 
L 717.876033 175.842921 
L 710.743997 175.842921 
z
" clip-path="url(#pda48905c6a)" style="fill: #4ab31a; fill-opacity: 0.5; stroke: #ffffff; stroke-width: 0.678172; stroke-linejoin: miter"/>
   </g>
   <g id="patch_64">
    <path d="M 717.876033 268.38 
L 725.00807 268.38 
L 725.00807 144.140403 
L 717.876033 144.140403 
z
" clip-path="url(#pda48905c6a)" style="fill: #4ab31a; fill-opacity: 0.5; stroke: #ffffff; stroke-width: 0.678172; stroke-linejoin: miter"/>
   </g>
   <g id="patch_65">
    <path d="M 725.00807 268.38 
L 732.140106 268.38 
L 732.140106 146.710877 
L 725.00807 146.710877 
z
" clip-path="url(#pda48905c6a)" style="fill: #4ab31a; fill-opacity: 0.5; stroke: #ffffff; stroke-width: 0.678172; stroke-linejoin: miter"/>
   </g>
   <g id="patch_66">
    <path d="M 732.140106 268.38 
L 739.272142 268.38 
L 739.272142 111.152648 
L 732.140106 111.152648 
z
" clip-path="url(#pda48905c6a)" style="fill: #4ab31a; fill-opacity: 0.5; stroke: #ffffff; stroke-width: 0.678172; stroke-linejoin: miter"/>
   </g>
   <g id="patch_67">
    <path d="M 739.272142 268.38 
L 746.404179 268.38 
L 746.404179 77.308068 
L 739.272142 77.308068 
z
" clip-path="url(#pda48905c6a)" style="fill: #4ab31a; fill-opacity: 0.5; stroke: #ffffff; stroke-width: 0.678172; stroke-linejoin: miter"/>
   </g>
   <g id="patch_68">
    <path d="M 746.404179 268.38 
L 753.536215 268.38 
L 753.536215 67.882995 
L 746.404179 67.882995 
z
" clip-path="url(#pda48905c6a)" style="fill: #4ab31a; fill-opacity: 0.5; stroke: #ffffff; stroke-width: 0.678172; stroke-linejoin: miter"/>
   </g>
   <g id="patch_69">
    <path d="M 753.536215 268.38 
L 760.668251 268.38 
L 760.668251 63.598871 
L 753.536215 63.598871 
z
" clip-path="url(#pda48905c6a)" style="fill: #4ab31a; fill-opacity: 0.5; stroke: #ffffff; stroke-width: 0.678172; stroke-linejoin: miter"/>
   </g>
   <g id="patch_70">
    <path d="M 760.668251 268.38 
L 767.800288 268.38 
L 767.800288 48.176024 
L 760.668251 48.176024 
z
" clip-path="url(#pda48905c6a)" style="fill: #4ab31a; fill-opacity: 0.5; stroke: #ffffff; stroke-width: 0.678172; stroke-linejoin: miter"/>
   </g>
   <g id="patch_71">
    <path d="M 767.800288 268.38 
L 774.932324 268.38 
L 774.932324 37.465714 
L 767.800288 37.465714 
z
" clip-path="url(#pda48905c6a)" style="fill: #4ab31a; fill-opacity: 0.5; stroke: #ffffff; stroke-width: 0.678172; stroke-linejoin: miter"/>
   </g>
   <g id="patch_72">
    <path d="M 774.932324 268.38 
L 782.06436 268.38 
L 782.06436 69.596645 
L 774.932324 69.596645 
z
" clip-path="url(#pda48905c6a)" style="fill: #4ab31a; fill-opacity: 0.5; stroke: #ffffff; stroke-width: 0.678172; stroke-linejoin: miter"/>
   </g>
   <g id="patch_73">
    <path d="M 782.06436 268.38 
L 789.196397 268.38 
L 789.196397 70.881882 
L 782.06436 70.881882 
z
" clip-path="url(#pda48905c6a)" style="fill: #4ab31a; fill-opacity: 0.5; stroke: #ffffff; stroke-width: 0.678172; stroke-linejoin: miter"/>
   </g>
   <g id="patch_74">
    <path d="M 789.196397 268.38 
L 796.328433 268.38 
L 796.328433 69.596645 
L 789.196397 69.596645 
z
" clip-path="url(#pda48905c6a)" style="fill: #4ab31a; fill-opacity: 0.5; stroke: #ffffff; stroke-width: 0.678172; stroke-linejoin: miter"/>
   </g>
   <g id="patch_75">
    <path d="M 796.328433 268.38 
L 803.460469 268.38 
L 803.460469 97.443451 
L 796.328433 97.443451 
z
" clip-path="url(#pda48905c6a)" style="fill: #4ab31a; fill-opacity: 0.5; stroke: #ffffff; stroke-width: 0.678172; stroke-linejoin: miter"/>
   </g>
   <g id="patch_76">
    <path d="M 803.460469 268.38 
L 810.592506 268.38 
L 810.592506 91.445677 
L 803.460469 91.445677 
z
" clip-path="url(#pda48905c6a)" style="fill: #4ab31a; fill-opacity: 0.5; stroke: #ffffff; stroke-width: 0.678172; stroke-linejoin: miter"/>
   </g>
   <g id="patch_77">
    <path d="M 810.592506 268.38 
L 817.724542 268.38 
L 817.724542 93.159327 
L 810.592506 93.159327 
z
" clip-path="url(#pda48905c6a)" style="fill: #4ab31a; fill-opacity: 0.5; stroke: #ffffff; stroke-width: 0.678172; stroke-linejoin: miter"/>
   </g>
   <g id="patch_78">
    <path d="M 817.724542 268.38 
L 824.856578 268.38 
L 824.856578 133.858505 
L 817.724542 133.858505 
z
" clip-path="url(#pda48905c6a)" style="fill: #4ab31a; fill-opacity: 0.5; stroke: #ffffff; stroke-width: 0.678172; stroke-linejoin: miter"/>
   </g>
   <g id="patch_79">
    <path d="M 824.856578 268.38 
L 831.988615 268.38 
L 831.988615 141.141516 
L 824.856578 141.141516 
z
" clip-path="url(#pda48905c6a)" style="fill: #4ab31a; fill-opacity: 0.5; stroke: #ffffff; stroke-width: 0.678172; stroke-linejoin: miter"/>
   </g>
   <g id="patch_80">
    <path d="M 831.988615 268.38 
L 839.120651 268.38 
L 839.120651 161.705311 
L 831.988615 161.705311 
z
" clip-path="url(#pda48905c6a)" style="fill: #4ab31a; fill-opacity: 0.5; stroke: #ffffff; stroke-width: 0.678172; stroke-linejoin: miter"/>
   </g>
   <g id="patch_81">
    <path d="M 839.120651 268.38 
L 846.252687 268.38 
L 846.252687 172.844034 
L 839.120651 172.844034 
z
" clip-path="url(#pda48905c6a)" style="fill: #4ab31a; fill-opacity: 0.5; stroke: #ffffff; stroke-width: 0.678172; stroke-linejoin: miter"/>
   </g>
   <g id="patch_82">
    <path d="M 846.252687 268.38 
L 853.384724 268.38 
L 853.384724 172.415622 
L 846.252687 172.415622 
z
" clip-path="url(#pda48905c6a)" style="fill: #4ab31a; fill-opacity: 0.5; stroke: #ffffff; stroke-width: 0.678172; stroke-linejoin: miter"/>
   </g>
   <g id="patch_83">
    <path d="M 853.384724 268.38 
L 860.51676 268.38 
L 860.51676 203.689727 
L 853.384724 203.689727 
z
" clip-path="url(#pda48905c6a)" style="fill: #4ab31a; fill-opacity: 0.5; stroke: #ffffff; stroke-width: 0.678172; stroke-linejoin: miter"/>
   </g>
   <g id="patch_84">
    <path d="M 860.51676 268.38 
L 867.648796 268.38 
L 867.648796 206.260201 
L 860.51676 206.260201 
z
" clip-path="url(#pda48905c6a)" style="fill: #4ab31a; fill-opacity: 0.5; stroke: #ffffff; stroke-width: 0.678172; stroke-linejoin: miter"/>
   </g>
   <g id="patch_85">
    <path d="M 867.648796 268.38 
L 874.780833 268.38 
L 874.780833 222.968285 
L 867.648796 222.968285 
z
" clip-path="url(#pda48905c6a)" style="fill: #4ab31a; fill-opacity: 0.5; stroke: #ffffff; stroke-width: 0.678172; stroke-linejoin: miter"/>
   </g>
   <g id="patch_86">
    <path d="M 874.780833 268.38 
L 881.912869 268.38 
L 881.912869 221.683048 
L 874.780833 221.683048 
z
" clip-path="url(#pda48905c6a)" style="fill: #4ab31a; fill-opacity: 0.5; stroke: #ffffff; stroke-width: 0.678172; stroke-linejoin: miter"/>
   </g>
   <g id="patch_87">
    <path d="M 881.912869 268.38 
L 889.044905 268.38 
L 889.044905 232.393358 
L 881.912869 232.393358 
z
" clip-path="url(#pda48905c6a)" style="fill: #4ab31a; fill-opacity: 0.5; stroke: #ffffff; stroke-width: 0.678172; stroke-linejoin: miter"/>
   </g>
   <g id="patch_88">
    <path d="M 889.044905 268.38 
L 896.176942 268.38 
L 896.176942 238.391132 
L 889.044905 238.391132 
z
" clip-path="url(#pda48905c6a)" style="fill: #4ab31a; fill-opacity: 0.5; stroke: #ffffff; stroke-width: 0.678172; stroke-linejoin: miter"/>
   </g>
   <g id="patch_89">
    <path d="M 896.176942 268.38 
L 903.308978 268.38 
L 903.308978 234.963832 
L 896.176942 234.963832 
z
" clip-path="url(#pda48905c6a)" style="fill: #4ab31a; fill-opacity: 0.5; stroke: #ffffff; stroke-width: 0.678172; stroke-linejoin: miter"/>
   </g>
   <g id="patch_90">
    <path d="M 903.308978 268.38 
L 910.441014 268.38 
L 910.441014 236.677482 
L 903.308978 236.677482 
z
" clip-path="url(#pda48905c6a)" style="fill: #4ab31a; fill-opacity: 0.5; stroke: #ffffff; stroke-width: 0.678172; stroke-linejoin: miter"/>
   </g>
   <g id="patch_91">
    <path d="M 910.441014 268.38 
L 917.573051 268.38 
L 917.573051 240.961606 
L 910.441014 240.961606 
z
" clip-path="url(#pda48905c6a)" style="fill: #4ab31a; fill-opacity: 0.5; stroke: #ffffff; stroke-width: 0.678172; stroke-linejoin: miter"/>
   </g>
   <g id="patch_92">
    <path d="M 917.573051 268.38 
L 924.705087 268.38 
L 924.705087 249.101442 
L 917.573051 249.101442 
z
" clip-path="url(#pda48905c6a)" style="fill: #4ab31a; fill-opacity: 0.5; stroke: #ffffff; stroke-width: 0.678172; stroke-linejoin: miter"/>
   </g>
   <g id="patch_93">
    <path d="M 924.705087 268.38 
L 931.837123 268.38 
L 931.837123 244.817318 
L 924.705087 244.817318 
z
" clip-path="url(#pda48905c6a)" style="fill: #4ab31a; fill-opacity: 0.5; stroke: #ffffff; stroke-width: 0.678172; stroke-linejoin: miter"/>
   </g>
   <g id="patch_94">
    <path d="M 931.837123 268.38 
L 938.96916 268.38 
L 938.96916 243.960493 
L 931.837123 243.960493 
z
" clip-path="url(#pda48905c6a)" style="fill: #4ab31a; fill-opacity: 0.5; stroke: #ffffff; stroke-width: 0.678172; stroke-linejoin: miter"/>
   </g>
   <g id="patch_95">
    <path d="M 938.96916 268.38 
L 946.101196 268.38 
L 946.101196 248.244617 
L 938.96916 248.244617 
z
" clip-path="url(#pda48905c6a)" style="fill: #4ab31a; fill-opacity: 0.5; stroke: #ffffff; stroke-width: 0.678172; stroke-linejoin: miter"/>
   </g>
   <g id="patch_96">
    <path d="M 946.101196 268.38 
L 953.233232 268.38 
L 953.233232 251.243504 
L 946.101196 251.243504 
z
" clip-path="url(#pda48905c6a)" style="fill: #4ab31a; fill-opacity: 0.5; stroke: #ffffff; stroke-width: 0.678172; stroke-linejoin: miter"/>
   </g>
   <g id="patch_97">
    <path d="M 953.233232 268.38 
L 960.365269 268.38 
L 960.365269 246.530967 
L 953.233232 246.530967 
z
" clip-path="url(#pda48905c6a)" style="fill: #4ab31a; fill-opacity: 0.5; stroke: #ffffff; stroke-width: 0.678172; stroke-linejoin: miter"/>
   </g>
   <g id="patch_98">
    <path d="M 960.365269 268.38 
L 967.497305 268.38 
L 967.497305 247.387792 
L 960.365269 247.387792 
z
" clip-path="url(#pda48905c6a)" style="fill: #4ab31a; fill-opacity: 0.5; stroke: #ffffff; stroke-width: 0.678172; stroke-linejoin: miter"/>
   </g>
   <g id="patch_99">
    <path d="M 967.497305 268.38 
L 974.629341 268.38 
L 974.629341 247.816205 
L 967.497305 247.816205 
z
" clip-path="url(#pda48905c6a)" style="fill: #4ab31a; fill-opacity: 0.5; stroke: #ffffff; stroke-width: 0.678172; stroke-linejoin: miter"/>
   </g>
   <g id="patch_100">
    <path d="M 974.629341 268.38 
L 981.761378 268.38 
L 981.761378 253.385566 
L 974.629341 253.385566 
z
" clip-path="url(#pda48905c6a)" style="fill: #4ab31a; fill-opacity: 0.5; stroke: #ffffff; stroke-width: 0.678172; stroke-linejoin: miter"/>
   </g>
   <g id="patch_101">
    <path d="M 981.761378 268.38 
L 988.893414 268.38 
L 988.893414 253.813978 
L 981.761378 253.813978 
z
" clip-path="url(#pda48905c6a)" style="fill: #4ab31a; fill-opacity: 0.5; stroke: #ffffff; stroke-width: 0.678172; stroke-linejoin: miter"/>
   </g>
   <g id="patch_102">
    <path d="M 988.893414 268.38 
L 996.02545 268.38 
L 996.02545 253.813978 
L 988.893414 253.813978 
z
" clip-path="url(#pda48905c6a)" style="fill: #4ab31a; fill-opacity: 0.5; stroke: #ffffff; stroke-width: 0.678172; stroke-linejoin: miter"/>
   </g>
   <g id="patch_103">
    <path d="M 996.02545 268.38 
L 1003.157487 268.38 
L 1003.157487 260.240164 
L 996.02545 260.240164 
z
" clip-path="url(#pda48905c6a)" style="fill: #4ab31a; fill-opacity: 0.5; stroke: #ffffff; stroke-width: 0.678172; stroke-linejoin: miter"/>
   </g>
   <g id="patch_104">
    <path d="M 1003.157487 268.38 
L 1010.289523 268.38 
L 1010.289523 261.096989 
L 1003.157487 261.096989 
z
" clip-path="url(#pda48905c6a)" style="fill: #4ab31a; fill-opacity: 0.5; stroke: #ffffff; stroke-width: 0.678172; stroke-linejoin: miter"/>
   </g>
   <g id="patch_105">
    <path d="M 1010.289523 268.38 
L 1017.421559 268.38 
L 1017.421559 264.952701 
L 1010.289523 264.952701 
z
" clip-path="url(#pda48905c6a)" style="fill: #4ab31a; fill-opacity: 0.5; stroke: #ffffff; stroke-width: 0.678172; stroke-linejoin: miter"/>
   </g>
   <g id="line2d_20">
    <path d="M 653.687706 242.732985 
L 655.515515 242.545615 
L 657.343323 242.943118 
L 659.171131 243.829842 
L 660.99894 245.064179 
L 664.654556 247.89193 
L 666.482364 249.146013 
L 668.310173 250.104122 
L 670.137981 250.66885 
L 671.965789 250.783285 
L 673.793598 250.428122 
L 675.621406 249.614684 
L 677.449214 248.375803 
L 679.277023 246.756427 
L 681.104831 244.805372 
L 682.932639 242.569033 
L 684.760448 240.087317 
L 688.416064 234.504273 
L 692.071681 228.203622 
L 695.727297 221.22039 
L 699.382914 213.525724 
L 703.038531 205.084303 
L 706.694147 195.914223 
L 710.349764 186.12686 
L 715.833189 170.707685 
L 723.144422 149.533484 
L 730.455655 127.621501 
L 737.766888 105.403189 
L 741.422505 94.941737 
L 745.078122 85.41665 
L 746.90593 81.087916 
L 748.733738 77.073234 
L 750.561547 73.38098 
L 752.389355 70.014379 
L 754.217163 66.974739 
L 756.044971 64.264627 
L 757.87278 61.890397 
L 759.700588 59.863535 
L 761.528396 58.200409 
L 763.356205 56.920286 
L 765.184013 56.041849 
L 767.011821 55.578782 
L 768.83963 55.535305 
L 770.667438 55.90265 
L 772.495246 56.657339 
L 774.323055 57.761757 
L 776.150863 59.167034 
L 777.978671 60.817692 
L 781.634288 64.632925 
L 787.117713 70.987257 
L 796.256754 82.016731 
L 801.740179 88.924106 
L 805.395796 93.931935 
L 809.051412 99.576673 
L 810.879221 102.721737 
L 812.707029 106.109841 
L 816.362646 113.611398 
L 820.018262 121.9121 
L 829.157304 143.497916 
L 832.81292 151.401455 
L 836.468537 158.60207 
L 840.124154 165.226005 
L 851.091003 184.551131 
L 858.402237 197.867056 
L 862.057853 204.004376 
L 865.71347 209.470627 
L 869.369087 214.214136 
L 873.024703 218.324849 
L 876.68032 221.952431 
L 880.335936 225.218263 
L 883.991553 228.16293 
L 887.64717 230.751107 
L 891.302786 232.926625 
L 894.958403 234.681615 
L 898.614019 236.095762 
L 913.236486 241.206255 
L 918.719911 243.227618 
L 922.375527 244.351789 
L 926.031144 245.23094 
L 931.514569 246.211341 
L 940.65361 247.52549 
L 944.309227 247.898412 
L 947.964844 248.098336 
L 953.448269 248.120511 
L 958.931694 248.128548 
L 962.58731 248.334239 
L 966.242927 248.784704 
L 969.898543 249.479682 
L 975.381968 250.862315 
L 984.52101 253.539776 
L 991.832243 255.886597 
L 997.315668 257.89658 
L 1006.45471 261.594824 
L 1011.938134 263.737001 
L 1015.593751 265.005283 
L 1017.421559 265.569488 
L 1017.421559 265.569488 
" clip-path="url(#pda48905c6a)" style="fill: none; stroke: #4ab31a; stroke-width: 3; stroke-linecap: round"/>
   </g>
   <g id="patch_106">
    <path d="M 635.501014 268.38 
L 635.501014 25.92 
" style="fill: none; stroke: #ffffff; stroke-width: 2.5; stroke-linejoin: miter; stroke-linecap: square"/>
   </g>
   <g id="patch_107">
    <path d="M 1035.608252 268.38 
L 1035.608252 25.92 
" style="fill: none; stroke: #ffffff; stroke-width: 2.5; stroke-linejoin: miter; stroke-linecap: square"/>
   </g>
   <g id="patch_108">
    <path d="M 635.501014 268.38 
L 1035.608252 268.38 
" style="fill: none; stroke: #ffffff; stroke-width: 2.5; stroke-linejoin: miter; stroke-linecap: square"/>
   </g>
   <g id="patch_109">
    <path d="M 635.501014 25.92 
L 1035.608252 25.92 
" style="fill: none; stroke: #ffffff; stroke-width: 2.5; stroke-linejoin: miter; stroke-linecap: square"/>
   </g>
  </g>
 </g>
 <defs>
  <clipPath id="pc4e67566cb">
   <rect x="111.345" y="25.92" width="400.107238" height="242.46"/>
  </clipPath>
  <clipPath id="pda48905c6a">
   <rect x="635.501014" y="25.92" width="400.107238" height="242.46"/>
  </clipPath>
 </defs>
</svg>
