<?xml version="1.0" encoding="utf-8" standalone="no"?>
<!DOCTYPE svg PUBLIC "-//W3C//DTD SVG 1.1//EN"
  "http://www.w3.org/Graphics/SVG/1.1/DTD/svg11.dtd">
<svg xmlns:xlink="http://www.w3.org/1999/xlink" width="504pt" height="864pt" viewBox="0 0 504 864" xmlns="http://www.w3.org/2000/svg" version="1.1">
 <metadata>
  <rdf:RDF xmlns:dc="http://purl.org/dc/elements/1.1/" xmlns:cc="http://creativecommons.org/ns#" xmlns:rdf="http://www.w3.org/1999/02/22-rdf-syntax-ns#">
   <cc:Work>
    <dc:type rdf:resource="http://purl.org/dc/dcmitype/StillImage"/>
    <dc:date>2026-01-28T11:25:08.747949</dc:date>
    <dc:format>image/svg+xml</dc:format>
    <dc:creator>
     <cc:Agent>
      <dc:title>Matplotlib v3.10.8, https://matplotlib.org/</dc:title>
     </cc:Agent>
    </dc:creator>
   </cc:Work>
  </rdf:RDF>
 </metadata>
 <defs>
  <style type="text/css">*{stroke-linejoin: round; stroke-linecap: butt}</style>
 </defs>
 <g id="figure_1">
  <g id="patch_1">
   <path d="M 0 864 
L 504 864 
L 504 0 
L 0 0 
z
" style="fill: #ffffff"/>
  </g>
  <g id="axes_1">
   <g id="patch_2">
    <path d="M 63 394.08 
L 453.6 394.08 
L 453.6 103.68 
L 63 103.68 
z
" style="fill: #ffffff"/>
   </g>
   <g id="FillBetweenPolyCollection_1">
    <path d="M 82.53 354.778783 
L 82.53 394.08 
L 121.59 366.650466 
L 160.65 334.518677 
L 199.71 304.693133 
L 238.77 244.145171 
L 238.77 221.327476 
L 238.77 221.327476 
L 199.71 298.234503 
L 160.65 331.271612 
L 121.59 358.460199 
L 82.53 354.778783 
z
" clip-path="url(#p38664bccca)" style="fill: #f77189; fill-opacity: 0.15"/>
   </g>
   <g id="FillBetweenPolyCollection_2">
    <path d="M 82.53 394.08 
L 82.53 394.08 
L 121.59 353.276533 
L 160.65 327.275119 
L 199.71 302.697886 
L 238.77 272.22263 
L 277.83 250.307454 
L 316.89 210.25233 
L 355.95 178.901073 
L 395.01 137.013932 
L 395.01 137.013932 
L 395.01 137.013932 
L 355.95 145.007921 
L 316.89 171.83867 
L 277.83 212.043727 
L 238.77 256.74083 
L 199.71 295.242074 
L 160.65 323.780787 
L 121.59 349.542042 
L 82.53 394.08 
z
" clip-path="url(#p38664bccca)" style="fill: #bb9832; fill-opacity: 0.15"/>
   </g>
   <g id="matplotlib.axis_1">
    <g id="xtick_1">
     <g id="line2d_1">
      <path d="M 63 394.08 
L 63 103.68 
" clip-path="url(#p38664bccca)" style="fill: none; stroke-dasharray: 0.8,1.32; stroke-dashoffset: 0; stroke: #b0b0b0; stroke-opacity: 0.6; stroke-width: 0.8"/>
     </g>
     <g id="line2d_2">
      <defs>
       <path id="ma90cc36481" d="M 0 0 
L 0 3.5 
" style="stroke: #000000; stroke-width: 0.8"/>
      </defs>
      <g>
       <use xlink:href="#ma90cc36481" x="63" y="394.08" style="stroke: #000000; stroke-width: 0.8"/>
      </g>
     </g>
     <g id="text_1">
      <!-- 0.0 -->
      <g transform="translate(55.048437 408.678438) scale(0.1 -0.1)">
       <defs>
        <path id="DejaVuSans-30" d="M 2034 4250 
Q 1547 4250 1301 3770 
Q 1056 3291 1056 2328 
Q 1056 1369 1301 889 
Q 1547 409 2034 409 
Q 2525 409 2770 889 
Q 3016 1369 3016 2328 
Q 3016 3291 2770 3770 
Q 2525 4250 2034 4250 
z
M 2034 4750 
Q 2819 4750 3233 4129 
Q 3647 3509 3647 2328 
Q 3647 1150 3233 529 
Q 2819 -91 2034 -91 
Q 1250 -91 836 529 
Q 422 1150 422 2328 
Q 422 3509 836 4129 
Q 1250 4750 2034 4750 
z
" transform="scale(0.015625)"/>
        <path id="DejaVuSans-2e" d="M 684 794 
L 1344 794 
L 1344 0 
L 684 0 
L 684 794 
z
" transform="scale(0.015625)"/>
       </defs>
       <use xlink:href="#DejaVuSans-30"/>
       <use xlink:href="#DejaVuSans-2e" transform="translate(63.623047 0)"/>
       <use xlink:href="#DejaVuSans-30" transform="translate(95.410156 0)"/>
      </g>
     </g>
    </g>
    <g id="xtick_2">
     <g id="line2d_3">
      <path d="M 141.12 394.08 
L 141.12 103.68 
" clip-path="url(#p38664bccca)" style="fill: none; stroke-dasharray: 0.8,1.32; stroke-dashoffset: 0; stroke: #b0b0b0; stroke-opacity: 0.6; stroke-width: 0.8"/>
     </g>
     <g id="line2d_4">
      <g>
       <use xlink:href="#ma90cc36481" x="141.12" y="394.08" style="stroke: #000000; stroke-width: 0.8"/>
      </g>
     </g>
     <g id="text_2">
      <!-- 0.2 -->
      <g transform="translate(133.168438 408.678438) scale(0.1 -0.1)">
       <defs>
        <path id="DejaVuSans-32" d="M 1228 531 
L 3431 531 
L 3431 0 
L 469 0 
L 469 531 
Q 828 903 1448 1529 
Q 2069 2156 2228 2338 
Q 2531 2678 2651 2914 
Q 2772 3150 2772 3378 
Q 2772 3750 2511 3984 
Q 2250 4219 1831 4219 
Q 1534 4219 1204 4116 
Q 875 4013 500 3803 
L 500 4441 
Q 881 4594 1212 4672 
Q 1544 4750 1819 4750 
Q 2544 4750 2975 4387 
Q 3406 4025 3406 3419 
Q 3406 3131 3298 2873 
Q 3191 2616 2906 2266 
Q 2828 2175 2409 1742 
Q 1991 1309 1228 531 
z
" transform="scale(0.015625)"/>
       </defs>
       <use xlink:href="#DejaVuSans-30"/>
       <use xlink:href="#DejaVuSans-2e" transform="translate(63.623047 0)"/>
       <use xlink:href="#DejaVuSans-32" transform="translate(95.410156 0)"/>
      </g>
     </g>
    </g>
    <g id="xtick_3">
     <g id="line2d_5">
      <path d="M 219.24 394.08 
L 219.24 103.68 
" clip-path="url(#p38664bccca)" style="fill: none; stroke-dasharray: 0.8,1.32; stroke-dashoffset: 0; stroke: #b0b0b0; stroke-opacity: 0.6; stroke-width: 0.8"/>
     </g>
     <g id="line2d_6">
      <g>
       <use xlink:href="#ma90cc36481" x="219.24" y="394.08" style="stroke: #000000; stroke-width: 0.8"/>
      </g>
     </g>
     <g id="text_3">
      <!-- 0.4 -->
      <g transform="translate(211.288438 408.678438) scale(0.1 -0.1)">
       <defs>
        <path id="DejaVuSans-34" d="M 2419 4116 
L 825 1625 
L 2419 1625 
L 2419 4116 
z
M 2253 4666 
L 3047 4666 
L 3047 1625 
L 3713 1625 
L 3713 1100 
L 3047 1100 
L 3047 0 
L 2419 0 
L 2419 1100 
L 313 1100 
L 313 1709 
L 2253 4666 
z
" transform="scale(0.015625)"/>
       </defs>
       <use xlink:href="#DejaVuSans-30"/>
       <use xlink:href="#DejaVuSans-2e" transform="translate(63.623047 0)"/>
       <use xlink:href="#DejaVuSans-34" transform="translate(95.410156 0)"/>
      </g>
     </g>
    </g>
    <g id="xtick_4">
     <g id="line2d_7">
      <path d="M 297.36 394.08 
L 297.36 103.68 
" clip-path="url(#p38664bccca)" style="fill: none; stroke-dasharray: 0.8,1.32; stroke-dashoffset: 0; stroke: #b0b0b0; stroke-opacity: 0.6; stroke-width: 0.8"/>
     </g>
     <g id="line2d_8">
      <g>
       <use xlink:href="#ma90cc36481" x="297.36" y="394.08" style="stroke: #000000; stroke-width: 0.8"/>
      </g>
     </g>
     <g id="text_4">
      <!-- 0.6 -->
      <g transform="translate(289.408437 408.678438) scale(0.1 -0.1)">
       <defs>
        <path id="DejaVuSans-36" d="M 2113 2584 
Q 1688 2584 1439 2293 
Q 1191 2003 1191 1497 
Q 1191 994 1439 701 
Q 1688 409 2113 409 
Q 2538 409 2786 701 
Q 3034 994 3034 1497 
Q 3034 2003 2786 2293 
Q 2538 2584 2113 2584 
z
M 3366 4563 
L 3366 3988 
Q 3128 4100 2886 4159 
Q 2644 4219 2406 4219 
Q 1781 4219 1451 3797 
Q 1122 3375 1075 2522 
Q 1259 2794 1537 2939 
Q 1816 3084 2150 3084 
Q 2853 3084 3261 2657 
Q 3669 2231 3669 1497 
Q 3669 778 3244 343 
Q 2819 -91 2113 -91 
Q 1303 -91 875 529 
Q 447 1150 447 2328 
Q 447 3434 972 4092 
Q 1497 4750 2381 4750 
Q 2619 4750 2861 4703 
Q 3103 4656 3366 4563 
z
" transform="scale(0.015625)"/>
       </defs>
       <use xlink:href="#DejaVuSans-30"/>
       <use xlink:href="#DejaVuSans-2e" transform="translate(63.623047 0)"/>
       <use xlink:href="#DejaVuSans-36" transform="translate(95.410156 0)"/>
      </g>
     </g>
    </g>
    <g id="xtick_5">
     <g id="line2d_9">
      <path d="M 375.48 394.08 
L 375.48 103.68 
" clip-path="url(#p38664bccca)" style="fill: none; stroke-dasharray: 0.8,1.32; stroke-dashoffset: 0; stroke: #b0b0b0; stroke-opacity: 0.6; stroke-width: 0.8"/>
     </g>
     <g id="line2d_10">
      <g>
       <use xlink:href="#ma90cc36481" x="375.48" y="394.08" style="stroke: #000000; stroke-width: 0.8"/>
      </g>
     </g>
     <g id="text_5">
      <!-- 0.8 -->
      <g transform="translate(367.528437 408.678438) scale(0.1 -0.1)">
       <defs>
        <path id="DejaVuSans-38" d="M 2034 2216 
Q 1584 2216 1326 1975 
Q 1069 1734 1069 1313 
Q 1069 891 1326 650 
Q 1584 409 2034 409 
Q 2484 409 2743 651 
Q 3003 894 3003 1313 
Q 3003 1734 2745 1975 
Q 2488 2216 2034 2216 
z
M 1403 2484 
Q 997 2584 770 2862 
Q 544 3141 544 3541 
Q 544 4100 942 4425 
Q 1341 4750 2034 4750 
Q 2731 4750 3128 4425 
Q 3525 4100 3525 3541 
Q 3525 3141 3298 2862 
Q 3072 2584 2669 2484 
Q 3125 2378 3379 2068 
Q 3634 1759 3634 1313 
Q 3634 634 3220 271 
Q 2806 -91 2034 -91 
Q 1263 -91 848 271 
Q 434 634 434 1313 
Q 434 1759 690 2068 
Q 947 2378 1403 2484 
z
M 1172 3481 
Q 1172 3119 1398 2916 
Q 1625 2713 2034 2713 
Q 2441 2713 2670 2916 
Q 2900 3119 2900 3481 
Q 2900 3844 2670 4047 
Q 2441 4250 2034 4250 
Q 1625 4250 1398 4047 
Q 1172 3844 1172 3481 
z
" transform="scale(0.015625)"/>
       </defs>
       <use xlink:href="#DejaVuSans-30"/>
       <use xlink:href="#DejaVuSans-2e" transform="translate(63.623047 0)"/>
       <use xlink:href="#DejaVuSans-38" transform="translate(95.410156 0)"/>
      </g>
     </g>
    </g>
    <g id="xtick_6">
     <g id="line2d_11">
      <path d="M 453.6 394.08 
L 453.6 103.68 
" clip-path="url(#p38664bccca)" style="fill: none; stroke-dasharray: 0.8,1.32; stroke-dashoffset: 0; stroke: #b0b0b0; stroke-opacity: 0.6; stroke-width: 0.8"/>
     </g>
     <g id="line2d_12">
      <g>
       <use xlink:href="#ma90cc36481" x="453.6" y="394.08" style="stroke: #000000; stroke-width: 0.8"/>
      </g>
     </g>
     <g id="text_6">
      <!-- 1.0 -->
      <g transform="translate(445.648438 408.678438) scale(0.1 -0.1)">
       <defs>
        <path id="DejaVuSans-31" d="M 794 531 
L 1825 531 
L 1825 4091 
L 703 3866 
L 703 4441 
L 1819 4666 
L 2450 4666 
L 2450 531 
L 3481 531 
L 3481 0 
L 794 0 
L 794 531 
z
" transform="scale(0.015625)"/>
       </defs>
       <use xlink:href="#DejaVuSans-31"/>
       <use xlink:href="#DejaVuSans-2e" transform="translate(63.623047 0)"/>
       <use xlink:href="#DejaVuSans-30" transform="translate(95.410156 0)"/>
      </g>
     </g>
    </g>
    <g id="text_7">
     <!-- Predicted IoU (bin center) -->
     <g transform="translate(194.148438 422.356563) scale(0.1 -0.1)">
      <defs>
       <path id="DejaVuSans-50" d="M 1259 4147 
L 1259 2394 
L 2053 2394 
Q 2494 2394 2734 2622 
Q 2975 2850 2975 3272 
Q 2975 3691 2734 3919 
Q 2494 4147 2053 4147 
L 1259 4147 
z
M 628 4666 
L 2053 4666 
Q 2838 4666 3239 4311 
Q 3641 3956 3641 3272 
Q 3641 2581 3239 2228 
Q 2838 1875 2053 1875 
L 1259 1875 
L 1259 0 
L 628 0 
L 628 4666 
z
" transform="scale(0.015625)"/>
       <path id="DejaVuSans-72" d="M 2631 2963 
Q 2534 3019 2420 3045 
Q 2306 3072 2169 3072 
Q 1681 3072 1420 2755 
Q 1159 2438 1159 1844 
L 1159 0 
L 581 0 
L 581 3500 
L 1159 3500 
L 1159 2956 
Q 1341 3275 1631 3429 
Q 1922 3584 2338 3584 
Q 2397 3584 2469 3576 
Q 2541 3569 2628 3553 
L 2631 2963 
z
" transform="scale(0.015625)"/>
       <path id="DejaVuSans-65" d="M 3597 1894 
L 3597 1613 
L 953 1613 
Q 991 1019 1311 708 
Q 1631 397 2203 397 
Q 2534 397 2845 478 
Q 3156 559 3463 722 
L 3463 178 
Q 3153 47 2828 -22 
Q 2503 -91 2169 -91 
Q 1331 -91 842 396 
Q 353 884 353 1716 
Q 353 2575 817 3079 
Q 1281 3584 2069 3584 
Q 2775 3584 3186 3129 
Q 3597 2675 3597 1894 
z
M 3022 2063 
Q 3016 2534 2758 2815 
Q 2500 3097 2075 3097 
Q 1594 3097 1305 2825 
Q 1016 2553 972 2059 
L 3022 2063 
z
" transform="scale(0.015625)"/>
       <path id="DejaVuSans-64" d="M 2906 2969 
L 2906 4863 
L 3481 4863 
L 3481 0 
L 2906 0 
L 2906 525 
Q 2725 213 2448 61 
Q 2172 -91 1784 -91 
Q 1150 -91 751 415 
Q 353 922 353 1747 
Q 353 2572 751 3078 
Q 1150 3584 1784 3584 
Q 2172 3584 2448 3432 
Q 2725 3281 2906 2969 
z
M 947 1747 
Q 947 1113 1208 752 
Q 1469 391 1925 391 
Q 2381 391 2643 752 
Q 2906 1113 2906 1747 
Q 2906 2381 2643 2742 
Q 2381 3103 1925 3103 
Q 1469 3103 1208 2742 
Q 947 2381 947 1747 
z
" transform="scale(0.015625)"/>
       <path id="DejaVuSans-69" d="M 603 3500 
L 1178 3500 
L 1178 0 
L 603 0 
L 603 3500 
z
M 603 4863 
L 1178 4863 
L 1178 4134 
L 603 4134 
L 603 4863 
z
" transform="scale(0.015625)"/>
       <path id="DejaVuSans-63" d="M 3122 3366 
L 3122 2828 
Q 2878 2963 2633 3030 
Q 2388 3097 2138 3097 
Q 1578 3097 1268 2742 
Q 959 2388 959 1747 
Q 959 1106 1268 751 
Q 1578 397 2138 397 
Q 2388 397 2633 464 
Q 2878 531 3122 666 
L 3122 134 
Q 2881 22 2623 -34 
Q 2366 -91 2075 -91 
Q 1284 -91 818 406 
Q 353 903 353 1747 
Q 353 2603 823 3093 
Q 1294 3584 2113 3584 
Q 2378 3584 2631 3529 
Q 2884 3475 3122 3366 
z
" transform="scale(0.015625)"/>
       <path id="DejaVuSans-74" d="M 1172 4494 
L 1172 3500 
L 2356 3500 
L 2356 3053 
L 1172 3053 
L 1172 1153 
Q 1172 725 1289 603 
Q 1406 481 1766 481 
L 2356 481 
L 2356 0 
L 1766 0 
Q 1100 0 847 248 
Q 594 497 594 1153 
L 594 3053 
L 172 3053 
L 172 3500 
L 594 3500 
L 594 4494 
L 1172 4494 
z
" transform="scale(0.015625)"/>
       <path id="DejaVuSans-20" transform="scale(0.015625)"/>
       <path id="DejaVuSans-49" d="M 628 4666 
L 1259 4666 
L 1259 0 
L 628 0 
L 628 4666 
z
" transform="scale(0.015625)"/>
       <path id="DejaVuSans-6f" d="M 1959 3097 
Q 1497 3097 1228 2736 
Q 959 2375 959 1747 
Q 959 1119 1226 758 
Q 1494 397 1959 397 
Q 2419 397 2687 759 
Q 2956 1122 2956 1747 
Q 2956 2369 2687 2733 
Q 2419 3097 1959 3097 
z
M 1959 3584 
Q 2709 3584 3137 3096 
Q 3566 2609 3566 1747 
Q 3566 888 3137 398 
Q 2709 -91 1959 -91 
Q 1206 -91 779 398 
Q 353 888 353 1747 
Q 353 2609 779 3096 
Q 1206 3584 1959 3584 
z
" transform="scale(0.015625)"/>
       <path id="DejaVuSans-55" d="M 556 4666 
L 1191 4666 
L 1191 1831 
Q 1191 1081 1462 751 
Q 1734 422 2344 422 
Q 2950 422 3222 751 
Q 3494 1081 3494 1831 
L 3494 4666 
L 4128 4666 
L 4128 1753 
Q 4128 841 3676 375 
Q 3225 -91 2344 -91 
Q 1459 -91 1007 375 
Q 556 841 556 1753 
L 556 4666 
z
" transform="scale(0.015625)"/>
       <path id="DejaVuSans-28" d="M 1984 4856 
Q 1566 4138 1362 3434 
Q 1159 2731 1159 2009 
Q 1159 1288 1364 580 
Q 1569 -128 1984 -844 
L 1484 -844 
Q 1016 -109 783 600 
Q 550 1309 550 2009 
Q 550 2706 781 3412 
Q 1013 4119 1484 4856 
L 1984 4856 
z
" transform="scale(0.015625)"/>
       <path id="DejaVuSans-62" d="M 3116 1747 
Q 3116 2381 2855 2742 
Q 2594 3103 2138 3103 
Q 1681 3103 1420 2742 
Q 1159 2381 1159 1747 
Q 1159 1113 1420 752 
Q 1681 391 2138 391 
Q 2594 391 2855 752 
Q 3116 1113 3116 1747 
z
M 1159 2969 
Q 1341 3281 1617 3432 
Q 1894 3584 2278 3584 
Q 2916 3584 3314 3078 
Q 3713 2572 3713 1747 
Q 3713 922 3314 415 
Q 2916 -91 2278 -91 
Q 1894 -91 1617 61 
Q 1341 213 1159 525 
L 1159 0 
L 581 0 
L 581 4863 
L 1159 4863 
L 1159 2969 
z
" transform="scale(0.015625)"/>
       <path id="DejaVuSans-6e" d="M 3513 2113 
L 3513 0 
L 2938 0 
L 2938 2094 
Q 2938 2591 2744 2837 
Q 2550 3084 2163 3084 
Q 1697 3084 1428 2787 
Q 1159 2491 1159 1978 
L 1159 0 
L 581 0 
L 581 3500 
L 1159 3500 
L 1159 2956 
Q 1366 3272 1645 3428 
Q 1925 3584 2291 3584 
Q 2894 3584 3203 3211 
Q 3513 2838 3513 2113 
z
" transform="scale(0.015625)"/>
       <path id="DejaVuSans-29" d="M 513 4856 
L 1013 4856 
Q 1481 4119 1714 3412 
Q 1947 2706 1947 2009 
Q 1947 1309 1714 600 
Q 1481 -109 1013 -844 
L 513 -844 
Q 928 -128 1133 580 
Q 1338 1288 1338 2009 
Q 1338 2731 1133 3434 
Q 928 4138 513 4856 
z
" transform="scale(0.015625)"/>
      </defs>
      <use xlink:href="#DejaVuSans-50"/>
      <use xlink:href="#DejaVuSans-72" transform="translate(58.552734 0)"/>
      <use xlink:href="#DejaVuSans-65" transform="translate(97.416016 0)"/>
      <use xlink:href="#DejaVuSans-64" transform="translate(158.939453 0)"/>
      <use xlink:href="#DejaVuSans-69" transform="translate(222.416016 0)"/>
      <use xlink:href="#DejaVuSans-63" transform="translate(250.199219 0)"/>
      <use xlink:href="#DejaVuSans-74" transform="translate(305.179688 0)"/>
      <use xlink:href="#DejaVuSans-65" transform="translate(344.388672 0)"/>
      <use xlink:href="#DejaVuSans-64" transform="translate(405.912109 0)"/>
      <use xlink:href="#DejaVuSans-20" transform="translate(469.388672 0)"/>
      <use xlink:href="#DejaVuSans-49" transform="translate(501.175781 0)"/>
      <use xlink:href="#DejaVuSans-6f" transform="translate(530.667969 0)"/>
      <use xlink:href="#DejaVuSans-55" transform="translate(591.849609 0)"/>
      <use xlink:href="#DejaVuSans-20" transform="translate(665.042969 0)"/>
      <use xlink:href="#DejaVuSans-28" transform="translate(696.830078 0)"/>
      <use xlink:href="#DejaVuSans-62" transform="translate(735.84375 0)"/>
      <use xlink:href="#DejaVuSans-69" transform="translate(799.320312 0)"/>
      <use xlink:href="#DejaVuSans-6e" transform="translate(827.103516 0)"/>
      <use xlink:href="#DejaVuSans-20" transform="translate(890.482422 0)"/>
      <use xlink:href="#DejaVuSans-63" transform="translate(922.269531 0)"/>
      <use xlink:href="#DejaVuSans-65" transform="translate(977.25 0)"/>
      <use xlink:href="#DejaVuSans-6e" transform="translate(1038.773438 0)"/>
      <use xlink:href="#DejaVuSans-74" transform="translate(1102.152344 0)"/>
      <use xlink:href="#DejaVuSans-65" transform="translate(1141.361328 0)"/>
      <use xlink:href="#DejaVuSans-72" transform="translate(1202.884766 0)"/>
      <use xlink:href="#DejaVuSans-29" transform="translate(1243.998047 0)"/>
     </g>
    </g>
   </g>
   <g id="matplotlib.axis_2">
    <g id="ytick_1">
     <g id="line2d_13">
      <path d="M 63 394.08 
L 453.6 394.08 
" clip-path="url(#p38664bccca)" style="fill: none; stroke-dasharray: 0.8,1.32; stroke-dashoffset: 0; stroke: #b0b0b0; stroke-opacity: 0.6; stroke-width: 0.8"/>
     </g>
     <g id="line2d_14">
      <defs>
       <path id="m05f8fb79df" d="M 0 0 
L -3.5 0 
" style="stroke: #000000; stroke-width: 0.8"/>
      </defs>
      <g>
       <use xlink:href="#m05f8fb79df" x="63" y="394.08" style="stroke: #000000; stroke-width: 0.8"/>
      </g>
     </g>
     <g id="text_8">
      <!-- 0.0 -->
      <g transform="translate(40.096875 397.879219) scale(0.1 -0.1)">
       <use xlink:href="#DejaVuSans-30"/>
       <use xlink:href="#DejaVuSans-2e" transform="translate(63.623047 0)"/>
       <use xlink:href="#DejaVuSans-30" transform="translate(95.410156 0)"/>
      </g>
     </g>
    </g>
    <g id="ytick_2">
     <g id="line2d_15">
      <path d="M 63 336 
L 453.6 336 
" clip-path="url(#p38664bccca)" style="fill: none; stroke-dasharray: 0.8,1.32; stroke-dashoffset: 0; stroke: #b0b0b0; stroke-opacity: 0.6; stroke-width: 0.8"/>
     </g>
     <g id="line2d_16">
      <g>
       <use xlink:href="#m05f8fb79df" x="63" y="336" style="stroke: #000000; stroke-width: 0.8"/>
      </g>
     </g>
     <g id="text_9">
      <!-- 0.2 -->
      <g transform="translate(40.096875 339.799219) scale(0.1 -0.1)">
       <use xlink:href="#DejaVuSans-30"/>
       <use xlink:href="#DejaVuSans-2e" transform="translate(63.623047 0)"/>
       <use xlink:href="#DejaVuSans-32" transform="translate(95.410156 0)"/>
      </g>
     </g>
    </g>
    <g id="ytick_3">
     <g id="line2d_17">
      <path d="M 63 277.92 
L 453.6 277.92 
" clip-path="url(#p38664bccca)" style="fill: none; stroke-dasharray: 0.8,1.32; stroke-dashoffset: 0; stroke: #b0b0b0; stroke-opacity: 0.6; stroke-width: 0.8"/>
     </g>
     <g id="line2d_18">
      <g>
       <use xlink:href="#m05f8fb79df" x="63" y="277.92" style="stroke: #000000; stroke-width: 0.8"/>
      </g>
     </g>
     <g id="text_10">
      <!-- 0.4 -->
      <g transform="translate(40.096875 281.719219) scale(0.1 -0.1)">
       <use xlink:href="#DejaVuSans-30"/>
       <use xlink:href="#DejaVuSans-2e" transform="translate(63.623047 0)"/>
       <use xlink:href="#DejaVuSans-34" transform="translate(95.410156 0)"/>
      </g>
     </g>
    </g>
    <g id="ytick_4">
     <g id="line2d_19">
      <path d="M 63 219.84 
L 453.6 219.84 
" clip-path="url(#p38664bccca)" style="fill: none; stroke-dasharray: 0.8,1.32; stroke-dashoffset: 0; stroke: #b0b0b0; stroke-opacity: 0.6; stroke-width: 0.8"/>
     </g>
     <g id="line2d_20">
      <g>
       <use xlink:href="#m05f8fb79df" x="63" y="219.84" style="stroke: #000000; stroke-width: 0.8"/>
      </g>
     </g>
     <g id="text_11">
      <!-- 0.6 -->
      <g transform="translate(40.096875 223.639219) scale(0.1 -0.1)">
       <use xlink:href="#DejaVuSans-30"/>
       <use xlink:href="#DejaVuSans-2e" transform="translate(63.623047 0)"/>
       <use xlink:href="#DejaVuSans-36" transform="translate(95.410156 0)"/>
      </g>
     </g>
    </g>
    <g id="ytick_5">
     <g id="line2d_21">
      <path d="M 63 161.76 
L 453.6 161.76 
" clip-path="url(#p38664bccca)" style="fill: none; stroke-dasharray: 0.8,1.32; stroke-dashoffset: 0; stroke: #b0b0b0; stroke-opacity: 0.6; stroke-width: 0.8"/>
     </g>
     <g id="line2d_22">
      <g>
       <use xlink:href="#m05f8fb79df" x="63" y="161.76" style="stroke: #000000; stroke-width: 0.8"/>
      </g>
     </g>
     <g id="text_12">
      <!-- 0.8 -->
      <g transform="translate(40.096875 165.559219) scale(0.1 -0.1)">
       <use xlink:href="#DejaVuSans-30"/>
       <use xlink:href="#DejaVuSans-2e" transform="translate(63.623047 0)"/>
       <use xlink:href="#DejaVuSans-38" transform="translate(95.410156 0)"/>
      </g>
     </g>
    </g>
    <g id="ytick_6">
     <g id="line2d_23">
      <path d="M 63 103.68 
L 453.6 103.68 
" clip-path="url(#p38664bccca)" style="fill: none; stroke-dasharray: 0.8,1.32; stroke-dashoffset: 0; stroke: #b0b0b0; stroke-opacity: 0.6; stroke-width: 0.8"/>
     </g>
     <g id="line2d_24">
      <g>
       <use xlink:href="#m05f8fb79df" x="63" y="103.68" style="stroke: #000000; stroke-width: 0.8"/>
      </g>
     </g>
     <g id="text_13">
      <!-- 1.0 -->
      <g transform="translate(40.096875 107.479219) scale(0.1 -0.1)">
       <use xlink:href="#DejaVuSans-31"/>
       <use xlink:href="#DejaVuSans-2e" transform="translate(63.623047 0)"/>
       <use xlink:href="#DejaVuSans-30" transform="translate(95.410156 0)"/>
      </g>
     </g>
    </g>
    <g id="text_14">
     <!-- Observed IoU (median) -->
     <g transform="translate(34.017187 306.953437) rotate(-90) scale(0.1 -0.1)">
      <defs>
       <path id="DejaVuSans-4f" d="M 2522 4238 
Q 1834 4238 1429 3725 
Q 1025 3213 1025 2328 
Q 1025 1447 1429 934 
Q 1834 422 2522 422 
Q 3209 422 3611 934 
Q 4013 1447 4013 2328 
Q 4013 3213 3611 3725 
Q 3209 4238 2522 4238 
z
M 2522 4750 
Q 3503 4750 4090 4092 
Q 4678 3434 4678 2328 
Q 4678 1225 4090 567 
Q 3503 -91 2522 -91 
Q 1538 -91 948 565 
Q 359 1222 359 2328 
Q 359 3434 948 4092 
Q 1538 4750 2522 4750 
z
" transform="scale(0.015625)"/>
       <path id="DejaVuSans-73" d="M 2834 3397 
L 2834 2853 
Q 2591 2978 2328 3040 
Q 2066 3103 1784 3103 
Q 1356 3103 1142 2972 
Q 928 2841 928 2578 
Q 928 2378 1081 2264 
Q 1234 2150 1697 2047 
L 1894 2003 
Q 2506 1872 2764 1633 
Q 3022 1394 3022 966 
Q 3022 478 2636 193 
Q 2250 -91 1575 -91 
Q 1294 -91 989 -36 
Q 684 19 347 128 
L 347 722 
Q 666 556 975 473 
Q 1284 391 1588 391 
Q 1994 391 2212 530 
Q 2431 669 2431 922 
Q 2431 1156 2273 1281 
Q 2116 1406 1581 1522 
L 1381 1569 
Q 847 1681 609 1914 
Q 372 2147 372 2553 
Q 372 3047 722 3315 
Q 1072 3584 1716 3584 
Q 2034 3584 2315 3537 
Q 2597 3491 2834 3397 
z
" transform="scale(0.015625)"/>
       <path id="DejaVuSans-76" d="M 191 3500 
L 800 3500 
L 1894 563 
L 2988 3500 
L 3597 3500 
L 2284 0 
L 1503 0 
L 191 3500 
z
" transform="scale(0.015625)"/>
       <path id="DejaVuSans-6d" d="M 3328 2828 
Q 3544 3216 3844 3400 
Q 4144 3584 4550 3584 
Q 5097 3584 5394 3201 
Q 5691 2819 5691 2113 
L 5691 0 
L 5113 0 
L 5113 2094 
Q 5113 2597 4934 2840 
Q 4756 3084 4391 3084 
Q 3944 3084 3684 2787 
Q 3425 2491 3425 1978 
L 3425 0 
L 2847 0 
L 2847 2094 
Q 2847 2600 2669 2842 
Q 2491 3084 2119 3084 
Q 1678 3084 1418 2786 
Q 1159 2488 1159 1978 
L 1159 0 
L 581 0 
L 581 3500 
L 1159 3500 
L 1159 2956 
Q 1356 3278 1631 3431 
Q 1906 3584 2284 3584 
Q 2666 3584 2933 3390 
Q 3200 3197 3328 2828 
z
" transform="scale(0.015625)"/>
       <path id="DejaVuSans-61" d="M 2194 1759 
Q 1497 1759 1228 1600 
Q 959 1441 959 1056 
Q 959 750 1161 570 
Q 1363 391 1709 391 
Q 2188 391 2477 730 
Q 2766 1069 2766 1631 
L 2766 1759 
L 2194 1759 
z
M 3341 1997 
L 3341 0 
L 2766 0 
L 2766 531 
Q 2569 213 2275 61 
Q 1981 -91 1556 -91 
Q 1019 -91 701 211 
Q 384 513 384 1019 
Q 384 1609 779 1909 
Q 1175 2209 1959 2209 
L 2766 2209 
L 2766 2266 
Q 2766 2663 2505 2880 
Q 2244 3097 1772 3097 
Q 1472 3097 1187 3025 
Q 903 2953 641 2809 
L 641 3341 
Q 956 3463 1253 3523 
Q 1550 3584 1831 3584 
Q 2591 3584 2966 3190 
Q 3341 2797 3341 1997 
z
" transform="scale(0.015625)"/>
      </defs>
      <use xlink:href="#DejaVuSans-4f"/>
      <use xlink:href="#DejaVuSans-62" transform="translate(78.710938 0)"/>
      <use xlink:href="#DejaVuSans-73" transform="translate(142.1875 0)"/>
      <use xlink:href="#DejaVuSans-65" transform="translate(194.287109 0)"/>
      <use xlink:href="#DejaVuSans-72" transform="translate(255.810547 0)"/>
      <use xlink:href="#DejaVuSans-76" transform="translate(296.923828 0)"/>
      <use xlink:href="#DejaVuSans-65" transform="translate(356.103516 0)"/>
      <use xlink:href="#DejaVuSans-64" transform="translate(417.626953 0)"/>
      <use xlink:href="#DejaVuSans-20" transform="translate(481.103516 0)"/>
      <use xlink:href="#DejaVuSans-49" transform="translate(512.890625 0)"/>
      <use xlink:href="#DejaVuSans-6f" transform="translate(542.382812 0)"/>
      <use xlink:href="#DejaVuSans-55" transform="translate(603.564453 0)"/>
      <use xlink:href="#DejaVuSans-20" transform="translate(676.757812 0)"/>
      <use xlink:href="#DejaVuSans-28" transform="translate(708.544922 0)"/>
      <use xlink:href="#DejaVuSans-6d" transform="translate(747.558594 0)"/>
      <use xlink:href="#DejaVuSans-65" transform="translate(844.970703 0)"/>
      <use xlink:href="#DejaVuSans-64" transform="translate(906.494141 0)"/>
      <use xlink:href="#DejaVuSans-69" transform="translate(969.970703 0)"/>
      <use xlink:href="#DejaVuSans-61" transform="translate(997.753906 0)"/>
      <use xlink:href="#DejaVuSans-6e" transform="translate(1059.033203 0)"/>
      <use xlink:href="#DejaVuSans-29" transform="translate(1122.412109 0)"/>
     </g>
    </g>
   </g>
   <g id="line2d_25">
    <path d="M 63 394.08 
L 453.6 103.68 
" clip-path="url(#p38664bccca)" style="fill: none; stroke-dasharray: 3.7,1.6; stroke-dashoffset: 0; stroke: #808080"/>
   </g>
   <g id="line2d_26">
    <path d="M 82.53 394.08 
L 121.59 362.621441 
L 160.65 332.835988 
L 199.71 301.745283 
L 238.77 230.2846 
" clip-path="url(#p38664bccca)" style="fill: none; stroke: #f77189; stroke-width: 1.5; stroke-linecap: square"/>
    <defs>
     <path id="md100ab2451" d="M 0 3 
C 0.795609 3 1.55874 2.683901 2.12132 2.12132 
C 2.683901 1.55874 3 0.795609 3 0 
C 3 -0.795609 2.683901 -1.55874 2.12132 -2.12132 
C 1.55874 -2.683901 0.795609 -3 0 -3 
C -0.795609 -3 -1.55874 -2.683901 -2.12132 -2.12132 
C -2.683901 -1.55874 -3 -0.795609 -3 0 
C -3 0.795609 -2.683901 1.55874 -2.12132 2.12132 
C -1.55874 2.683901 -0.795609 3 0 3 
z
" style="stroke: #f77189"/>
    </defs>
    <g clip-path="url(#p38664bccca)">
     <use xlink:href="#md100ab2451" x="82.53" y="394.08" style="fill: #f77189; stroke: #f77189"/>
     <use xlink:href="#md100ab2451" x="121.59" y="362.621441" style="fill: #f77189; stroke: #f77189"/>
     <use xlink:href="#md100ab2451" x="160.65" y="332.835988" style="fill: #f77189; stroke: #f77189"/>
     <use xlink:href="#md100ab2451" x="199.71" y="301.745283" style="fill: #f77189; stroke: #f77189"/>
     <use xlink:href="#md100ab2451" x="238.77" y="230.2846" style="fill: #f77189; stroke: #f77189"/>
    </g>
   </g>
   <g id="line2d_27">
    <path d="M 82.53 394.08 
L 121.59 350.965805 
L 160.65 325.549892 
L 199.71 298.98484 
L 238.77 265.615839 
L 277.83 231.153391 
L 316.89 188.998965 
L 355.95 165.858034 
L 395.01 137.013932 
" clip-path="url(#p38664bccca)" style="fill: none; stroke: #bb9832; stroke-width: 1.5; stroke-linecap: square"/>
    <defs>
     <path id="maa5eff15d6" d="M 0 3 
C 0.795609 3 1.55874 2.683901 2.12132 2.12132 
C 2.683901 1.55874 3 0.795609 3 0 
C 3 -0.795609 2.683901 -1.55874 2.12132 -2.12132 
C 1.55874 -2.683901 0.795609 -3 0 -3 
C -0.795609 -3 -1.55874 -2.683901 -2.12132 -2.12132 
C -2.683901 -1.55874 -3 -0.795609 -3 0 
C -3 0.795609 -2.683901 1.55874 -2.12132 2.12132 
C -1.55874 2.683901 -0.795609 3 0 3 
z
" style="stroke: #bb9832"/>
    </defs>
    <g clip-path="url(#p38664bccca)">
     <use xlink:href="#maa5eff15d6" x="82.53" y="394.08" style="fill: #bb9832; stroke: #bb9832"/>
     <use xlink:href="#maa5eff15d6" x="121.59" y="350.965805" style="fill: #bb9832; stroke: #bb9832"/>
     <use xlink:href="#maa5eff15d6" x="160.65" y="325.549892" style="fill: #bb9832; stroke: #bb9832"/>
     <use xlink:href="#maa5eff15d6" x="199.71" y="298.98484" style="fill: #bb9832; stroke: #bb9832"/>
     <use xlink:href="#maa5eff15d6" x="238.77" y="265.615839" style="fill: #bb9832; stroke: #bb9832"/>
     <use xlink:href="#maa5eff15d6" x="277.83" y="231.153391" style="fill: #bb9832; stroke: #bb9832"/>
     <use xlink:href="#maa5eff15d6" x="316.89" y="188.998965" style="fill: #bb9832; stroke: #bb9832"/>
     <use xlink:href="#maa5eff15d6" x="355.95" y="165.858034" style="fill: #bb9832; stroke: #bb9832"/>
     <use xlink:href="#maa5eff15d6" x="395.01" y="137.013932" style="fill: #bb9832; stroke: #bb9832"/>
    </g>
   </g>
   <g id="patch_3">
    <path d="M 63 394.08 
L 63 103.68 
" style="fill: none; stroke: #000000; stroke-width: 0.8; stroke-linejoin: miter; stroke-linecap: square"/>
   </g>
   <g id="patch_4">
    <path d="M 453.6 394.08 
L 453.6 103.68 
" style="fill: none; stroke: #000000; stroke-width: 0.8; stroke-linejoin: miter; stroke-linecap: square"/>
   </g>
   <g id="patch_5">
    <path d="M 63 394.08 
L 453.6 394.08 
" style="fill: none; stroke: #000000; stroke-width: 0.8; stroke-linejoin: miter; stroke-linecap: square"/>
   </g>
   <g id="patch_6">
    <path d="M 63 103.68 
L 453.6 103.68 
" style="fill: none; stroke: #000000; stroke-width: 0.8; stroke-linejoin: miter; stroke-linecap: square"/>
   </g>
   <g id="legend_1">
    <g id="patch_7">
     <path d="M 70 155.714375 
L 154.5375 155.714375 
Q 156.5375 155.714375 156.5375 153.714375 
L 156.5375 110.68 
Q 156.5375 108.68 154.5375 108.68 
L 70 108.68 
Q 68 108.68 68 110.68 
L 68 153.714375 
Q 68 155.714375 70 155.714375 
z
" style="fill: #ffffff; opacity: 0.8; stroke: #cccccc; stroke-linejoin: miter"/>
    </g>
    <g id="line2d_28">
     <path d="M 72 116.778437 
L 82 116.778437 
L 92 116.778437 
" style="fill: none; stroke-dasharray: 3.7,1.6; stroke-dashoffset: 0; stroke: #808080"/>
    </g>
    <g id="text_15">
     <!-- Perfect -->
     <g transform="translate(100 120.278437) scale(0.1 -0.1)">
      <defs>
       <path id="DejaVuSans-66" d="M 2375 4863 
L 2375 4384 
L 1825 4384 
Q 1516 4384 1395 4259 
Q 1275 4134 1275 3809 
L 1275 3500 
L 2222 3500 
L 2222 3053 
L 1275 3053 
L 1275 0 
L 697 0 
L 697 3053 
L 147 3053 
L 147 3500 
L 697 3500 
L 697 3744 
Q 697 4328 969 4595 
Q 1241 4863 1831 4863 
L 2375 4863 
z
" transform="scale(0.015625)"/>
      </defs>
      <use xlink:href="#DejaVuSans-50"/>
      <use xlink:href="#DejaVuSans-65" transform="translate(56.677734 0)"/>
      <use xlink:href="#DejaVuSans-72" transform="translate(118.201172 0)"/>
      <use xlink:href="#DejaVuSans-66" transform="translate(159.314453 0)"/>
      <use xlink:href="#DejaVuSans-65" transform="translate(194.519531 0)"/>
      <use xlink:href="#DejaVuSans-63" transform="translate(256.042969 0)"/>
      <use xlink:href="#DejaVuSans-74" transform="translate(311.023438 0)"/>
     </g>
    </g>
    <g id="line2d_29">
     <path d="M 72 131.456563 
L 82 131.456563 
L 92 131.456563 
" style="fill: none; stroke: #f77189; stroke-width: 1.5; stroke-linecap: square"/>
     <g>
      <use xlink:href="#md100ab2451" x="82" y="131.456563" style="fill: #f77189; stroke: #f77189"/>
     </g>
    </g>
    <g id="text_16">
     <!-- Baseline -->
     <g transform="translate(100 134.956563) scale(0.1 -0.1)">
      <defs>
       <path id="DejaVuSans-42" d="M 1259 2228 
L 1259 519 
L 2272 519 
Q 2781 519 3026 730 
Q 3272 941 3272 1375 
Q 3272 1813 3026 2020 
Q 2781 2228 2272 2228 
L 1259 2228 
z
M 1259 4147 
L 1259 2741 
L 2194 2741 
Q 2656 2741 2882 2914 
Q 3109 3088 3109 3444 
Q 3109 3797 2882 3972 
Q 2656 4147 2194 4147 
L 1259 4147 
z
M 628 4666 
L 2241 4666 
Q 2963 4666 3353 4366 
Q 3744 4066 3744 3513 
Q 3744 3084 3544 2831 
Q 3344 2578 2956 2516 
Q 3422 2416 3680 2098 
Q 3938 1781 3938 1306 
Q 3938 681 3513 340 
Q 3088 0 2303 0 
L 628 0 
L 628 4666 
z
" transform="scale(0.015625)"/>
       <path id="DejaVuSans-6c" d="M 603 4863 
L 1178 4863 
L 1178 0 
L 603 0 
L 603 4863 
z
" transform="scale(0.015625)"/>
      </defs>
      <use xlink:href="#DejaVuSans-42"/>
      <use xlink:href="#DejaVuSans-61" transform="translate(68.603516 0)"/>
      <use xlink:href="#DejaVuSans-73" transform="translate(129.882812 0)"/>
      <use xlink:href="#DejaVuSans-65" transform="translate(181.982422 0)"/>
      <use xlink:href="#DejaVuSans-6c" transform="translate(243.505859 0)"/>
      <use xlink:href="#DejaVuSans-69" transform="translate(271.289062 0)"/>
      <use xlink:href="#DejaVuSans-6e" transform="translate(299.072266 0)"/>
      <use xlink:href="#DejaVuSans-65" transform="translate(362.451172 0)"/>
     </g>
    </g>
    <g id="line2d_30">
     <path d="M 72 146.134688 
L 82 146.134688 
L 92 146.134688 
" style="fill: none; stroke: #bb9832; stroke-width: 1.5; stroke-linecap: square"/>
     <g>
      <use xlink:href="#maa5eff15d6" x="82" y="146.134688" style="fill: #bb9832; stroke: #bb9832"/>
     </g>
    </g>
    <g id="text_17">
     <!-- AutoGluon -->
     <g transform="translate(100 149.634688) scale(0.1 -0.1)">
      <defs>
       <path id="DejaVuSans-41" d="M 2188 4044 
L 1331 1722 
L 3047 1722 
L 2188 4044 
z
M 1831 4666 
L 2547 4666 
L 4325 0 
L 3669 0 
L 3244 1197 
L 1141 1197 
L 716 0 
L 50 0 
L 1831 4666 
z
" transform="scale(0.015625)"/>
       <path id="DejaVuSans-75" d="M 544 1381 
L 544 3500 
L 1119 3500 
L 1119 1403 
Q 1119 906 1312 657 
Q 1506 409 1894 409 
Q 2359 409 2629 706 
Q 2900 1003 2900 1516 
L 2900 3500 
L 3475 3500 
L 3475 0 
L 2900 0 
L 2900 538 
Q 2691 219 2414 64 
Q 2138 -91 1772 -91 
Q 1169 -91 856 284 
Q 544 659 544 1381 
z
M 1991 3584 
L 1991 3584 
z
" transform="scale(0.015625)"/>
       <path id="DejaVuSans-47" d="M 3809 666 
L 3809 1919 
L 2778 1919 
L 2778 2438 
L 4434 2438 
L 4434 434 
Q 4069 175 3628 42 
Q 3188 -91 2688 -91 
Q 1594 -91 976 548 
Q 359 1188 359 2328 
Q 359 3472 976 4111 
Q 1594 4750 2688 4750 
Q 3144 4750 3555 4637 
Q 3966 4525 4313 4306 
L 4313 3634 
Q 3963 3931 3569 4081 
Q 3175 4231 2741 4231 
Q 1884 4231 1454 3753 
Q 1025 3275 1025 2328 
Q 1025 1384 1454 906 
Q 1884 428 2741 428 
Q 3075 428 3337 486 
Q 3600 544 3809 666 
z
" transform="scale(0.015625)"/>
      </defs>
      <use xlink:href="#DejaVuSans-41"/>
      <use xlink:href="#DejaVuSans-75" transform="translate(68.408203 0)"/>
      <use xlink:href="#DejaVuSans-74" transform="translate(131.787109 0)"/>
      <use xlink:href="#DejaVuSans-6f" transform="translate(170.996094 0)"/>
      <use xlink:href="#DejaVuSans-47" transform="translate(232.177734 0)"/>
      <use xlink:href="#DejaVuSans-6c" transform="translate(309.667969 0)"/>
      <use xlink:href="#DejaVuSans-75" transform="translate(337.451172 0)"/>
      <use xlink:href="#DejaVuSans-6f" transform="translate(400.830078 0)"/>
      <use xlink:href="#DejaVuSans-6e" transform="translate(462.011719 0)"/>
     </g>
    </g>
   </g>
  </g>
  <g id="axes_2">
   <g id="patch_8">
    <path d="M 63 581.52 
L 453.6 581.52 
L 453.6 449.52 
L 63 449.52 
z
" style="fill: #ffffff"/>
   </g>
   <g id="patch_9">
    <path d="M 80.754545 581.52 
L 116.263636 581.52 
L 116.263636 580.306542 
L 80.754545 580.306542 
z
" clip-path="url(#p9c6f9215ba)" style="fill: #f77189; stroke: #000000; stroke-linejoin: miter"/>
   </g>
   <g id="patch_10">
    <path d="M 116.263636 581.52 
L 151.772727 581.52 
L 151.772727 564.774275 
L 116.263636 564.774275 
z
" clip-path="url(#p9c6f9215ba)" style="fill: #f77189; stroke: #000000; stroke-linejoin: miter"/>
   </g>
   <g id="patch_11">
    <path d="M 151.772727 581.52 
L 187.281818 581.52 
L 187.281818 455.805714 
L 151.772727 455.805714 
z
" clip-path="url(#p9c6f9215ba)" style="fill: #f77189; stroke: #000000; stroke-linejoin: miter"/>
   </g>
   <g id="patch_12">
    <path d="M 187.281818 581.52 
L 222.790909 581.52 
L 222.790909 509.076536 
L 187.281818 509.076536 
z
" clip-path="url(#p9c6f9215ba)" style="fill: #f77189; stroke: #000000; stroke-linejoin: miter"/>
   </g>
   <g id="patch_13">
    <path d="M 222.790909 581.52 
L 258.3 581.52 
L 258.3 559.253039 
L 222.790909 559.253039 
z
" clip-path="url(#p9c6f9215ba)" style="fill: #f77189; stroke: #000000; stroke-linejoin: miter"/>
   </g>
   <g id="patch_14">
    <path d="M 258.3 581.52 
L 293.809091 581.52 
L 293.809091 581.52 
L 258.3 581.52 
z
" clip-path="url(#p9c6f9215ba)" style="fill: #f77189; stroke: #000000; stroke-linejoin: miter"/>
   </g>
   <g id="patch_15">
    <path d="M 293.809091 581.52 
L 329.318182 581.52 
L 329.318182 581.52 
L 293.809091 581.52 
z
" clip-path="url(#p9c6f9215ba)" style="fill: #f77189; stroke: #000000; stroke-linejoin: miter"/>
   </g>
   <g id="patch_16">
    <path d="M 329.318182 581.52 
L 364.827273 581.52 
L 364.827273 581.52 
L 329.318182 581.52 
z
" clip-path="url(#p9c6f9215ba)" style="fill: #f77189; stroke: #000000; stroke-linejoin: miter"/>
   </g>
   <g id="patch_17">
    <path d="M 364.827273 581.52 
L 400.336364 581.52 
L 400.336364 581.52 
L 364.827273 581.52 
z
" clip-path="url(#p9c6f9215ba)" style="fill: #f77189; stroke: #000000; stroke-linejoin: miter"/>
   </g>
   <g id="patch_18">
    <path d="M 400.336364 581.52 
L 435.845455 581.52 
L 435.845455 581.52 
L 400.336364 581.52 
z
" clip-path="url(#p9c6f9215ba)" style="fill: #f77189; stroke: #000000; stroke-linejoin: miter"/>
   </g>
   <g id="patch_19">
    <path d="M 80.754545 581.52 
L 116.263636 581.52 
L 116.263636 551.304887 
L 80.754545 551.304887 
z
" clip-path="url(#p9c6f9215ba)" style="fill: url(#hc073a4b273); opacity: 0.25; stroke: #000000; stroke-linejoin: miter"/>
   </g>
   <g id="patch_20">
    <path d="M 116.263636 581.52 
L 151.772727 581.52 
L 151.772727 518.116801 
L 116.263636 518.116801 
z
" clip-path="url(#p9c6f9215ba)" style="fill: url(#hc073a4b273); opacity: 0.25; stroke: #000000; stroke-linejoin: miter"/>
   </g>
   <g id="patch_21">
    <path d="M 151.772727 581.52 
L 187.281818 581.52 
L 187.281818 516.539305 
L 151.772727 516.539305 
z
" clip-path="url(#p9c6f9215ba)" style="fill: url(#hc073a4b273); opacity: 0.25; stroke: #000000; stroke-linejoin: miter"/>
   </g>
   <g id="patch_22">
    <path d="M 187.281818 581.52 
L 222.790909 581.52 
L 222.790909 542.810678 
L 187.281818 542.810678 
z
" clip-path="url(#p9c6f9215ba)" style="fill: url(#hc073a4b273); opacity: 0.25; stroke: #000000; stroke-linejoin: miter"/>
   </g>
   <g id="patch_23">
    <path d="M 222.790909 581.52 
L 258.3 581.52 
L 258.3 560.709189 
L 222.790909 560.709189 
z
" clip-path="url(#p9c6f9215ba)" style="fill: url(#hc073a4b273); opacity: 0.25; stroke: #000000; stroke-linejoin: miter"/>
   </g>
   <g id="patch_24">
    <path d="M 258.3 581.52 
L 293.809091 581.52 
L 293.809091 571.690987 
L 258.3 571.690987 
z
" clip-path="url(#p9c6f9215ba)" style="fill: url(#hc073a4b273); opacity: 0.25; stroke: #000000; stroke-linejoin: miter"/>
   </g>
   <g id="patch_25">
    <path d="M 293.809091 581.52 
L 329.318182 581.52 
L 329.318182 576.302129 
L 293.809091 576.302129 
z
" clip-path="url(#p9c6f9215ba)" style="fill: url(#hc073a4b273); opacity: 0.25; stroke: #000000; stroke-linejoin: miter"/>
   </g>
   <g id="patch_26">
    <path d="M 329.318182 581.52 
L 364.827273 581.52 
L 364.827273 575.756073 
L 329.318182 575.756073 
z
" clip-path="url(#p9c6f9215ba)" style="fill: url(#hc073a4b273); opacity: 0.25; stroke: #000000; stroke-linejoin: miter"/>
   </g>
   <g id="patch_27">
    <path d="M 364.827273 581.52 
L 400.336364 581.52 
L 400.336364 577.090877 
L 364.827273 577.090877 
z
" clip-path="url(#p9c6f9215ba)" style="fill: url(#hc073a4b273); opacity: 0.25; stroke: #000000; stroke-linejoin: miter"/>
   </g>
   <g id="patch_28">
    <path d="M 400.336364 581.52 
L 435.845455 581.52 
L 435.845455 580.06385 
L 400.336364 580.06385 
z
" clip-path="url(#p9c6f9215ba)" style="fill: url(#hc073a4b273); opacity: 0.25; stroke: #000000; stroke-linejoin: miter"/>
   </g>
   <g id="matplotlib.axis_3">
    <g id="xtick_7">
     <g id="line2d_31">
      <g>
       <use xlink:href="#ma90cc36481" x="80.754545" y="581.52" style="stroke: #000000; stroke-width: 0.8"/>
      </g>
     </g>
     <g id="text_18">
      <!-- 0.0 -->
      <g transform="translate(72.802983 596.118438) scale(0.1 -0.1)">
       <use xlink:href="#DejaVuSans-30"/>
       <use xlink:href="#DejaVuSans-2e" transform="translate(63.623047 0)"/>
       <use xlink:href="#DejaVuSans-30" transform="translate(95.410156 0)"/>
      </g>
     </g>
    </g>
    <g id="xtick_8">
     <g id="line2d_32">
      <g>
       <use xlink:href="#ma90cc36481" x="151.772727" y="581.52" style="stroke: #000000; stroke-width: 0.8"/>
      </g>
     </g>
     <g id="text_19">
      <!-- 0.2 -->
      <g transform="translate(143.821165 596.118438) scale(0.1 -0.1)">
       <use xlink:href="#DejaVuSans-30"/>
       <use xlink:href="#DejaVuSans-2e" transform="translate(63.623047 0)"/>
       <use xlink:href="#DejaVuSans-32" transform="translate(95.410156 0)"/>
      </g>
     </g>
    </g>
    <g id="xtick_9">
     <g id="line2d_33">
      <g>
       <use xlink:href="#ma90cc36481" x="222.790909" y="581.52" style="stroke: #000000; stroke-width: 0.8"/>
      </g>
     </g>
     <g id="text_20">
      <!-- 0.4 -->
      <g transform="translate(214.839347 596.118438) scale(0.1 -0.1)">
       <use xlink:href="#DejaVuSans-30"/>
       <use xlink:href="#DejaVuSans-2e" transform="translate(63.623047 0)"/>
       <use xlink:href="#DejaVuSans-34" transform="translate(95.410156 0)"/>
      </g>
     </g>
    </g>
    <g id="xtick_10">
     <g id="line2d_34">
      <g>
       <use xlink:href="#ma90cc36481" x="293.809091" y="581.52" style="stroke: #000000; stroke-width: 0.8"/>
      </g>
     </g>
     <g id="text_21">
      <!-- 0.6 -->
      <g transform="translate(285.857528 596.118438) scale(0.1 -0.1)">
       <use xlink:href="#DejaVuSans-30"/>
       <use xlink:href="#DejaVuSans-2e" transform="translate(63.623047 0)"/>
       <use xlink:href="#DejaVuSans-36" transform="translate(95.410156 0)"/>
      </g>
     </g>
    </g>
    <g id="xtick_11">
     <g id="line2d_35">
      <g>
       <use xlink:href="#ma90cc36481" x="364.827273" y="581.52" style="stroke: #000000; stroke-width: 0.8"/>
      </g>
     </g>
     <g id="text_22">
      <!-- 0.8 -->
      <g transform="translate(356.87571 596.118438) scale(0.1 -0.1)">
       <use xlink:href="#DejaVuSans-30"/>
       <use xlink:href="#DejaVuSans-2e" transform="translate(63.623047 0)"/>
       <use xlink:href="#DejaVuSans-38" transform="translate(95.410156 0)"/>
      </g>
     </g>
    </g>
    <g id="xtick_12">
     <g id="line2d_36">
      <g>
       <use xlink:href="#ma90cc36481" x="435.845455" y="581.52" style="stroke: #000000; stroke-width: 0.8"/>
      </g>
     </g>
     <g id="text_23">
      <!-- 1.0 -->
      <g transform="translate(427.893892 596.118438) scale(0.1 -0.1)">
       <use xlink:href="#DejaVuSans-31"/>
       <use xlink:href="#DejaVuSans-2e" transform="translate(63.623047 0)"/>
       <use xlink:href="#DejaVuSans-30" transform="translate(95.410156 0)"/>
      </g>
     </g>
    </g>
    <g id="text_24">
     <!-- Bins -->
     <g transform="translate(247.707031 609.796562) scale(0.1 -0.1)">
      <use xlink:href="#DejaVuSans-42"/>
      <use xlink:href="#DejaVuSans-69" transform="translate(68.603516 0)"/>
      <use xlink:href="#DejaVuSans-6e" transform="translate(96.386719 0)"/>
      <use xlink:href="#DejaVuSans-73" transform="translate(159.765625 0)"/>
     </g>
    </g>
   </g>
   <g id="matplotlib.axis_4">
    <g id="ytick_7">
     <g id="line2d_37">
      <g>
       <use xlink:href="#m05f8fb79df" x="63" y="581.52" style="stroke: #000000; stroke-width: 0.8"/>
      </g>
     </g>
     <g id="text_25">
      <!-- 0 -->
      <g transform="translate(49.6375 585.319219) scale(0.1 -0.1)">
       <use xlink:href="#DejaVuSans-30"/>
      </g>
     </g>
    </g>
    <g id="ytick_8">
     <g id="line2d_38">
      <g>
       <use xlink:href="#m05f8fb79df" x="63" y="551.183541" style="stroke: #000000; stroke-width: 0.8"/>
      </g>
     </g>
     <g id="text_26">
      <!-- 500 -->
      <g transform="translate(36.9125 554.98276) scale(0.1 -0.1)">
       <defs>
        <path id="DejaVuSans-35" d="M 691 4666 
L 3169 4666 
L 3169 4134 
L 1269 4134 
L 1269 2991 
Q 1406 3038 1543 3061 
Q 1681 3084 1819 3084 
Q 2600 3084 3056 2656 
Q 3513 2228 3513 1497 
Q 3513 744 3044 326 
Q 2575 -91 1722 -91 
Q 1428 -91 1123 -41 
Q 819 9 494 109 
L 494 744 
Q 775 591 1075 516 
Q 1375 441 1709 441 
Q 2250 441 2565 725 
Q 2881 1009 2881 1497 
Q 2881 1984 2565 2268 
Q 2250 2553 1709 2553 
Q 1456 2553 1204 2497 
Q 953 2441 691 2322 
L 691 4666 
z
" transform="scale(0.015625)"/>
       </defs>
       <use xlink:href="#DejaVuSans-35"/>
       <use xlink:href="#DejaVuSans-30" transform="translate(63.623047 0)"/>
       <use xlink:href="#DejaVuSans-30" transform="translate(127.246094 0)"/>
      </g>
     </g>
    </g>
    <g id="ytick_9">
     <g id="line2d_39">
      <g>
       <use xlink:href="#m05f8fb79df" x="63" y="520.847082" style="stroke: #000000; stroke-width: 0.8"/>
      </g>
     </g>
     <g id="text_27">
      <!-- 1000 -->
      <g transform="translate(30.55 524.646301) scale(0.1 -0.1)">
       <use xlink:href="#DejaVuSans-31"/>
       <use xlink:href="#DejaVuSans-30" transform="translate(63.623047 0)"/>
       <use xlink:href="#DejaVuSans-30" transform="translate(127.246094 0)"/>
       <use xlink:href="#DejaVuSans-30" transform="translate(190.869141 0)"/>
      </g>
     </g>
    </g>
    <g id="ytick_10">
     <g id="line2d_40">
      <g>
       <use xlink:href="#m05f8fb79df" x="63" y="490.510623" style="stroke: #000000; stroke-width: 0.8"/>
      </g>
     </g>
     <g id="text_28">
      <!-- 1500 -->
      <g transform="translate(30.55 494.309842) scale(0.1 -0.1)">
       <use xlink:href="#DejaVuSans-31"/>
       <use xlink:href="#DejaVuSans-35" transform="translate(63.623047 0)"/>
       <use xlink:href="#DejaVuSans-30" transform="translate(127.246094 0)"/>
       <use xlink:href="#DejaVuSans-30" transform="translate(190.869141 0)"/>
      </g>
     </g>
    </g>
    <g id="ytick_11">
     <g id="line2d_41">
      <g>
       <use xlink:href="#m05f8fb79df" x="63" y="460.174164" style="stroke: #000000; stroke-width: 0.8"/>
      </g>
     </g>
     <g id="text_29">
      <!-- 2000 -->
      <g transform="translate(30.55 463.973383) scale(0.1 -0.1)">
       <use xlink:href="#DejaVuSans-32"/>
       <use xlink:href="#DejaVuSans-30" transform="translate(63.623047 0)"/>
       <use xlink:href="#DejaVuSans-30" transform="translate(127.246094 0)"/>
       <use xlink:href="#DejaVuSans-30" transform="translate(190.869141 0)"/>
      </g>
     </g>
    </g>
    <g id="text_30">
     <!-- Nº of instances -->
     <g transform="translate(24.470312 553.400469) rotate(-90) scale(0.1 -0.1)">
      <defs>
       <path id="DejaVuSans-4e" d="M 628 4666 
L 1478 4666 
L 3547 763 
L 3547 4666 
L 4159 4666 
L 4159 0 
L 3309 0 
L 1241 3903 
L 1241 0 
L 628 0 
L 628 4666 
z
" transform="scale(0.015625)"/>
       <path id="DejaVuSans-ba" d="M 434 1850 
L 2584 1850 
L 2584 1466 
L 434 1466 
L 434 1850 
z
M 1509 4750 
Q 2069 4750 2391 4404 
Q 2713 4059 2713 3463 
Q 2713 2866 2391 2523 
Q 2069 2181 1509 2181 
Q 950 2181 625 2525 
Q 300 2869 300 3463 
Q 300 4059 625 4404 
Q 950 4750 1509 4750 
z
M 1509 4391 
Q 1181 4391 984 4139 
Q 788 3888 788 3463 
Q 788 3047 986 2797 
Q 1184 2547 1509 2547 
Q 1838 2547 2033 2797 
Q 2228 3047 2228 3463 
Q 2228 3891 2034 4141 
Q 1841 4391 1509 4391 
z
" transform="scale(0.015625)"/>
      </defs>
      <use xlink:href="#DejaVuSans-4e"/>
      <use xlink:href="#DejaVuSans-ba" transform="translate(74.804688 0)"/>
      <use xlink:href="#DejaVuSans-20" transform="translate(121.923828 0)"/>
      <use xlink:href="#DejaVuSans-6f" transform="translate(153.710938 0)"/>
      <use xlink:href="#DejaVuSans-66" transform="translate(214.892578 0)"/>
      <use xlink:href="#DejaVuSans-20" transform="translate(250.097656 0)"/>
      <use xlink:href="#DejaVuSans-69" transform="translate(281.884766 0)"/>
      <use xlink:href="#DejaVuSans-6e" transform="translate(309.667969 0)"/>
      <use xlink:href="#DejaVuSans-73" transform="translate(373.046875 0)"/>
      <use xlink:href="#DejaVuSans-74" transform="translate(425.146484 0)"/>
      <use xlink:href="#DejaVuSans-61" transform="translate(464.355469 0)"/>
      <use xlink:href="#DejaVuSans-6e" transform="translate(525.634766 0)"/>
      <use xlink:href="#DejaVuSans-63" transform="translate(589.013672 0)"/>
      <use xlink:href="#DejaVuSans-65" transform="translate(643.994141 0)"/>
      <use xlink:href="#DejaVuSans-73" transform="translate(705.517578 0)"/>
     </g>
    </g>
   </g>
   <g id="patch_29">
    <path d="M 63 581.52 
L 63 449.52 
" style="fill: none; stroke: #000000; stroke-width: 0.8; stroke-linejoin: miter; stroke-linecap: square"/>
   </g>
   <g id="patch_30">
    <path d="M 453.6 581.52 
L 453.6 449.52 
" style="fill: none; stroke: #000000; stroke-width: 0.8; stroke-linejoin: miter; stroke-linecap: square"/>
   </g>
   <g id="patch_31">
    <path d="M 63 581.52 
L 453.6 581.52 
" style="fill: none; stroke: #000000; stroke-width: 0.8; stroke-linejoin: miter; stroke-linecap: square"/>
   </g>
   <g id="patch_32">
    <path d="M 63 449.52 
L 453.6 449.52 
" style="fill: none; stroke: #000000; stroke-width: 0.8; stroke-linejoin: miter; stroke-linecap: square"/>
   </g>
   <g id="text_31">
    <!-- Baseline -->
    <g transform="translate(232.860938 443.52) scale(0.12 -0.12)">
     <use xlink:href="#DejaVuSans-42"/>
     <use xlink:href="#DejaVuSans-61" transform="translate(68.603516 0)"/>
     <use xlink:href="#DejaVuSans-73" transform="translate(129.882812 0)"/>
     <use xlink:href="#DejaVuSans-65" transform="translate(181.982422 0)"/>
     <use xlink:href="#DejaVuSans-6c" transform="translate(243.505859 0)"/>
     <use xlink:href="#DejaVuSans-69" transform="translate(271.289062 0)"/>
     <use xlink:href="#DejaVuSans-6e" transform="translate(299.072266 0)"/>
     <use xlink:href="#DejaVuSans-65" transform="translate(362.451172 0)"/>
    </g>
   </g>
   <g id="legend_2">
    <g id="patch_33">
     <path d="M 372.201563 486.87625 
L 446.6 486.87625 
Q 448.6 486.87625 448.6 484.87625 
L 448.6 456.52 
Q 448.6 454.52 446.6 454.52 
L 372.201563 454.52 
Q 370.201563 454.52 370.201563 456.52 
L 370.201563 484.87625 
Q 370.201563 486.87625 372.201563 486.87625 
z
" style="fill: #ffffff; opacity: 0.8; stroke: #cccccc; stroke-linejoin: miter"/>
    </g>
    <g id="patch_34">
     <path d="M 374.201563 466.118437 
L 394.201563 466.118437 
L 394.201563 459.118437 
L 374.201563 459.118437 
z
" style="fill: #f77189; stroke: #000000; stroke-linejoin: miter"/>
    </g>
    <g id="text_32">
     <!-- Baseline -->
     <g transform="translate(402.201563 466.118437) scale(0.1 -0.1)">
      <use xlink:href="#DejaVuSans-42"/>
      <use xlink:href="#DejaVuSans-61" transform="translate(68.603516 0)"/>
      <use xlink:href="#DejaVuSans-73" transform="translate(129.882812 0)"/>
      <use xlink:href="#DejaVuSans-65" transform="translate(181.982422 0)"/>
      <use xlink:href="#DejaVuSans-6c" transform="translate(243.505859 0)"/>
      <use xlink:href="#DejaVuSans-69" transform="translate(271.289062 0)"/>
      <use xlink:href="#DejaVuSans-6e" transform="translate(299.072266 0)"/>
      <use xlink:href="#DejaVuSans-65" transform="translate(362.451172 0)"/>
     </g>
    </g>
    <g id="patch_35">
     <path d="M 374.201563 480.796562 
L 394.201563 480.796562 
L 394.201563 473.796562 
L 374.201563 473.796562 
z
" style="fill: url(#hc073a4b273); opacity: 0.25; stroke: #000000; stroke-linejoin: miter"/>
    </g>
    <g id="text_33">
     <!-- GT -->
     <g transform="translate(402.201563 480.796562) scale(0.1 -0.1)">
      <defs>
       <path id="DejaVuSans-54" d="M -19 4666 
L 3928 4666 
L 3928 4134 
L 2272 4134 
L 2272 0 
L 1638 0 
L 1638 4134 
L -19 4134 
L -19 4666 
z
" transform="scale(0.015625)"/>
      </defs>
      <use xlink:href="#DejaVuSans-47"/>
      <use xlink:href="#DejaVuSans-54" transform="translate(73.865234 0)"/>
     </g>
    </g>
   </g>
  </g>
  <g id="axes_3">
   <g id="patch_36">
    <path d="M 63 768.96 
L 453.6 768.96 
L 453.6 636.96 
L 63 636.96 
z
" style="fill: #ffffff"/>
   </g>
   <g id="patch_37">
    <path d="M 80.754545 768.96 
L 116.263636 768.96 
L 116.263636 755.312671 
L 80.754545 755.312671 
z
" clip-path="url(#p7a1cc16fd1)" style="fill: #f77189; stroke: #000000; stroke-linejoin: miter"/>
   </g>
   <g id="patch_38">
    <path d="M 116.263636 768.96 
L 151.772727 768.96 
L 151.772727 707.583123 
L 116.263636 707.583123 
z
" clip-path="url(#p7a1cc16fd1)" style="fill: #f77189; stroke: #000000; stroke-linejoin: miter"/>
   </g>
   <g id="patch_39">
    <path d="M 151.772727 768.96 
L 187.281818 768.96 
L 187.281818 643.245714 
L 151.772727 643.245714 
z
" clip-path="url(#p7a1cc16fd1)" style="fill: #f77189; stroke: #000000; stroke-linejoin: miter"/>
   </g>
   <g id="patch_40">
    <path d="M 187.281818 768.96 
L 222.790909 768.96 
L 222.790909 711.265736 
L 187.281818 711.265736 
z
" clip-path="url(#p7a1cc16fd1)" style="fill: #f77189; stroke: #000000; stroke-linejoin: miter"/>
   </g>
   <g id="patch_41">
    <path d="M 222.790909 768.96 
L 258.3 768.96 
L 258.3 754.157341 
L 222.790909 754.157341 
z
" clip-path="url(#p7a1cc16fd1)" style="fill: #f77189; stroke: #000000; stroke-linejoin: miter"/>
   </g>
   <g id="patch_42">
    <path d="M 258.3 768.96 
L 293.809091 768.96 
L 293.809091 761.666983 
L 258.3 761.666983 
z
" clip-path="url(#p7a1cc16fd1)" style="fill: #f77189; stroke: #000000; stroke-linejoin: miter"/>
   </g>
   <g id="patch_43">
    <path d="M 293.809091 768.96 
L 329.318182 768.96 
L 329.318182 761.37815 
L 293.809091 761.37815 
z
" clip-path="url(#p7a1cc16fd1)" style="fill: #f77189; stroke: #000000; stroke-linejoin: miter"/>
   </g>
   <g id="patch_44">
    <path d="M 329.318182 768.96 
L 364.827273 768.96 
L 364.827273 765.782844 
L 329.318182 765.782844 
z
" clip-path="url(#p7a1cc16fd1)" style="fill: #f77189; stroke: #000000; stroke-linejoin: miter"/>
   </g>
   <g id="patch_45">
    <path d="M 364.827273 768.96 
L 400.336364 768.96 
L 400.336364 768.887792 
L 364.827273 768.887792 
z
" clip-path="url(#p7a1cc16fd1)" style="fill: #f77189; stroke: #000000; stroke-linejoin: miter"/>
   </g>
   <g id="patch_46">
    <path d="M 400.336364 768.96 
L 435.845455 768.96 
L 435.845455 768.96 
L 400.336364 768.96 
z
" clip-path="url(#p7a1cc16fd1)" style="fill: #f77189; stroke: #000000; stroke-linejoin: miter"/>
   </g>
   <g id="patch_47">
    <path d="M 80.754545 768.96 
L 116.263636 768.96 
L 116.263636 733.000371 
L 80.754545 733.000371 
z
" clip-path="url(#p7a1cc16fd1)" style="fill: url(#hc073a4b273); opacity: 0.25; stroke: #000000; stroke-linejoin: miter"/>
   </g>
   <g id="patch_48">
    <path d="M 116.263636 768.96 
L 151.772727 768.96 
L 151.772727 693.502545 
L 116.263636 693.502545 
z
" clip-path="url(#p7a1cc16fd1)" style="fill: url(#hc073a4b273); opacity: 0.25; stroke: #000000; stroke-linejoin: miter"/>
   </g>
   <g id="patch_49">
    <path d="M 151.772727 768.96 
L 187.281818 768.96 
L 187.281818 691.625135 
L 151.772727 691.625135 
z
" clip-path="url(#p7a1cc16fd1)" style="fill: url(#hc073a4b273); opacity: 0.25; stroke: #000000; stroke-linejoin: miter"/>
   </g>
   <g id="patch_50">
    <path d="M 187.281818 768.96 
L 222.790909 768.96 
L 222.790909 722.891238 
L 187.281818 722.891238 
z
" clip-path="url(#p7a1cc16fd1)" style="fill: url(#hc073a4b273); opacity: 0.25; stroke: #000000; stroke-linejoin: miter"/>
   </g>
   <g id="patch_51">
    <path d="M 222.790909 768.96 
L 258.3 768.96 
L 258.3 744.192625 
L 222.790909 744.192625 
z
" clip-path="url(#p7a1cc16fd1)" style="fill: url(#hc073a4b273); opacity: 0.25; stroke: #000000; stroke-linejoin: miter"/>
   </g>
   <g id="patch_52">
    <path d="M 258.3 768.96 
L 293.809091 768.96 
L 293.809091 757.262289 
L 258.3 757.262289 
z
" clip-path="url(#p7a1cc16fd1)" style="fill: url(#hc073a4b273); opacity: 0.25; stroke: #000000; stroke-linejoin: miter"/>
   </g>
   <g id="patch_53">
    <path d="M 293.809091 768.96 
L 329.318182 768.96 
L 329.318182 762.750104 
L 293.809091 762.750104 
z
" clip-path="url(#p7a1cc16fd1)" style="fill: url(#hc073a4b273); opacity: 0.25; stroke: #000000; stroke-linejoin: miter"/>
   </g>
   <g id="patch_54">
    <path d="M 329.318182 768.96 
L 364.827273 768.96 
L 364.827273 762.100231 
L 329.318182 762.100231 
z
" clip-path="url(#p7a1cc16fd1)" style="fill: url(#hc073a4b273); opacity: 0.25; stroke: #000000; stroke-linejoin: miter"/>
   </g>
   <g id="patch_55">
    <path d="M 364.827273 768.96 
L 400.336364 768.96 
L 400.336364 763.688809 
L 364.827273 763.688809 
z
" clip-path="url(#p7a1cc16fd1)" style="fill: url(#hc073a4b273); opacity: 0.25; stroke: #000000; stroke-linejoin: miter"/>
   </g>
   <g id="patch_56">
    <path d="M 400.336364 768.96 
L 435.845455 768.96 
L 435.845455 767.227006 
L 400.336364 767.227006 
z
" clip-path="url(#p7a1cc16fd1)" style="fill: url(#hc073a4b273); opacity: 0.25; stroke: #000000; stroke-linejoin: miter"/>
   </g>
   <g id="matplotlib.axis_5">
    <g id="xtick_13">
     <g id="line2d_42">
      <g>
       <use xlink:href="#ma90cc36481" x="80.754545" y="768.96" style="stroke: #000000; stroke-width: 0.8"/>
      </g>
     </g>
     <g id="text_34">
      <!-- 0.0 -->
      <g transform="translate(72.802983 783.558437) scale(0.1 -0.1)">
       <use xlink:href="#DejaVuSans-30"/>
       <use xlink:href="#DejaVuSans-2e" transform="translate(63.623047 0)"/>
       <use xlink:href="#DejaVuSans-30" transform="translate(95.410156 0)"/>
      </g>
     </g>
    </g>
    <g id="xtick_14">
     <g id="line2d_43">
      <g>
       <use xlink:href="#ma90cc36481" x="151.772727" y="768.96" style="stroke: #000000; stroke-width: 0.8"/>
      </g>
     </g>
     <g id="text_35">
      <!-- 0.2 -->
      <g transform="translate(143.821165 783.558437) scale(0.1 -0.1)">
       <use xlink:href="#DejaVuSans-30"/>
       <use xlink:href="#DejaVuSans-2e" transform="translate(63.623047 0)"/>
       <use xlink:href="#DejaVuSans-32" transform="translate(95.410156 0)"/>
      </g>
     </g>
    </g>
    <g id="xtick_15">
     <g id="line2d_44">
      <g>
       <use xlink:href="#ma90cc36481" x="222.790909" y="768.96" style="stroke: #000000; stroke-width: 0.8"/>
      </g>
     </g>
     <g id="text_36">
      <!-- 0.4 -->
      <g transform="translate(214.839347 783.558437) scale(0.1 -0.1)">
       <use xlink:href="#DejaVuSans-30"/>
       <use xlink:href="#DejaVuSans-2e" transform="translate(63.623047 0)"/>
       <use xlink:href="#DejaVuSans-34" transform="translate(95.410156 0)"/>
      </g>
     </g>
    </g>
    <g id="xtick_16">
     <g id="line2d_45">
      <g>
       <use xlink:href="#ma90cc36481" x="293.809091" y="768.96" style="stroke: #000000; stroke-width: 0.8"/>
      </g>
     </g>
     <g id="text_37">
      <!-- 0.6 -->
      <g transform="translate(285.857528 783.558437) scale(0.1 -0.1)">
       <use xlink:href="#DejaVuSans-30"/>
       <use xlink:href="#DejaVuSans-2e" transform="translate(63.623047 0)"/>
       <use xlink:href="#DejaVuSans-36" transform="translate(95.410156 0)"/>
      </g>
     </g>
    </g>
    <g id="xtick_17">
     <g id="line2d_46">
      <g>
       <use xlink:href="#ma90cc36481" x="364.827273" y="768.96" style="stroke: #000000; stroke-width: 0.8"/>
      </g>
     </g>
     <g id="text_38">
      <!-- 0.8 -->
      <g transform="translate(356.87571 783.558437) scale(0.1 -0.1)">
       <use xlink:href="#DejaVuSans-30"/>
       <use xlink:href="#DejaVuSans-2e" transform="translate(63.623047 0)"/>
       <use xlink:href="#DejaVuSans-38" transform="translate(95.410156 0)"/>
      </g>
     </g>
    </g>
    <g id="xtick_18">
     <g id="line2d_47">
      <g>
       <use xlink:href="#ma90cc36481" x="435.845455" y="768.96" style="stroke: #000000; stroke-width: 0.8"/>
      </g>
     </g>
     <g id="text_39">
      <!-- 1.0 -->
      <g transform="translate(427.893892 783.558437) scale(0.1 -0.1)">
       <use xlink:href="#DejaVuSans-31"/>
       <use xlink:href="#DejaVuSans-2e" transform="translate(63.623047 0)"/>
       <use xlink:href="#DejaVuSans-30" transform="translate(95.410156 0)"/>
      </g>
     </g>
    </g>
    <g id="text_40">
     <!-- Bins -->
     <g transform="translate(247.707031 797.236562) scale(0.1 -0.1)">
      <use xlink:href="#DejaVuSans-42"/>
      <use xlink:href="#DejaVuSans-69" transform="translate(68.603516 0)"/>
      <use xlink:href="#DejaVuSans-6e" transform="translate(96.386719 0)"/>
      <use xlink:href="#DejaVuSans-73" transform="translate(159.765625 0)"/>
     </g>
    </g>
   </g>
   <g id="matplotlib.axis_6">
    <g id="ytick_12">
     <g id="line2d_48">
      <g>
       <use xlink:href="#m05f8fb79df" x="63" y="768.96" style="stroke: #000000; stroke-width: 0.8"/>
      </g>
     </g>
     <g id="text_41">
      <!-- 0 -->
      <g transform="translate(49.6375 772.759219) scale(0.1 -0.1)">
       <use xlink:href="#DejaVuSans-30"/>
      </g>
     </g>
    </g>
    <g id="ytick_13">
     <g id="line2d_49">
      <g>
       <use xlink:href="#m05f8fb79df" x="63" y="732.855955" style="stroke: #000000; stroke-width: 0.8"/>
      </g>
     </g>
     <g id="text_42">
      <!-- 500 -->
      <g transform="translate(36.9125 736.655173) scale(0.1 -0.1)">
       <use xlink:href="#DejaVuSans-35"/>
       <use xlink:href="#DejaVuSans-30" transform="translate(63.623047 0)"/>
       <use xlink:href="#DejaVuSans-30" transform="translate(127.246094 0)"/>
      </g>
     </g>
    </g>
    <g id="ytick_14">
     <g id="line2d_50">
      <g>
       <use xlink:href="#m05f8fb79df" x="63" y="696.751909" style="stroke: #000000; stroke-width: 0.8"/>
      </g>
     </g>
     <g id="text_43">
      <!-- 1000 -->
      <g transform="translate(30.55 700.551128) scale(0.1 -0.1)">
       <use xlink:href="#DejaVuSans-31"/>
       <use xlink:href="#DejaVuSans-30" transform="translate(63.623047 0)"/>
       <use xlink:href="#DejaVuSans-30" transform="translate(127.246094 0)"/>
       <use xlink:href="#DejaVuSans-30" transform="translate(190.869141 0)"/>
      </g>
     </g>
    </g>
    <g id="ytick_15">
     <g id="line2d_51">
      <g>
       <use xlink:href="#m05f8fb79df" x="63" y="660.647864" style="stroke: #000000; stroke-width: 0.8"/>
      </g>
     </g>
     <g id="text_44">
      <!-- 1500 -->
      <g transform="translate(30.55 664.447083) scale(0.1 -0.1)">
       <use xlink:href="#DejaVuSans-31"/>
       <use xlink:href="#DejaVuSans-35" transform="translate(63.623047 0)"/>
       <use xlink:href="#DejaVuSans-30" transform="translate(127.246094 0)"/>
       <use xlink:href="#DejaVuSans-30" transform="translate(190.869141 0)"/>
      </g>
     </g>
    </g>
    <g id="text_45">
     <!-- Nº of instances -->
     <g transform="translate(24.470312 740.840469) rotate(-90) scale(0.1 -0.1)">
      <use xlink:href="#DejaVuSans-4e"/>
      <use xlink:href="#DejaVuSans-ba" transform="translate(74.804688 0)"/>
      <use xlink:href="#DejaVuSans-20" transform="translate(121.923828 0)"/>
      <use xlink:href="#DejaVuSans-6f" transform="translate(153.710938 0)"/>
      <use xlink:href="#DejaVuSans-66" transform="translate(214.892578 0)"/>
      <use xlink:href="#DejaVuSans-20" transform="translate(250.097656 0)"/>
      <use xlink:href="#DejaVuSans-69" transform="translate(281.884766 0)"/>
      <use xlink:href="#DejaVuSans-6e" transform="translate(309.667969 0)"/>
      <use xlink:href="#DejaVuSans-73" transform="translate(373.046875 0)"/>
      <use xlink:href="#DejaVuSans-74" transform="translate(425.146484 0)"/>
      <use xlink:href="#DejaVuSans-61" transform="translate(464.355469 0)"/>
      <use xlink:href="#DejaVuSans-6e" transform="translate(525.634766 0)"/>
      <use xlink:href="#DejaVuSans-63" transform="translate(589.013672 0)"/>
      <use xlink:href="#DejaVuSans-65" transform="translate(643.994141 0)"/>
      <use xlink:href="#DejaVuSans-73" transform="translate(705.517578 0)"/>
     </g>
    </g>
   </g>
   <g id="patch_57">
    <path d="M 63 768.96 
L 63 636.96 
" style="fill: none; stroke: #000000; stroke-width: 0.8; stroke-linejoin: miter; stroke-linecap: square"/>
   </g>
   <g id="patch_58">
    <path d="M 453.6 768.96 
L 453.6 636.96 
" style="fill: none; stroke: #000000; stroke-width: 0.8; stroke-linejoin: miter; stroke-linecap: square"/>
   </g>
   <g id="patch_59">
    <path d="M 63 768.96 
L 453.6 768.96 
" style="fill: none; stroke: #000000; stroke-width: 0.8; stroke-linejoin: miter; stroke-linecap: square"/>
   </g>
   <g id="patch_60">
    <path d="M 63 636.96 
L 453.6 636.96 
" style="fill: none; stroke: #000000; stroke-width: 0.8; stroke-linejoin: miter; stroke-linecap: square"/>
   </g>
   <g id="text_46">
    <!-- AutoGluon -->
    <g transform="translate(226.7775 630.96) scale(0.12 -0.12)">
     <use xlink:href="#DejaVuSans-41"/>
     <use xlink:href="#DejaVuSans-75" transform="translate(68.408203 0)"/>
     <use xlink:href="#DejaVuSans-74" transform="translate(131.787109 0)"/>
     <use xlink:href="#DejaVuSans-6f" transform="translate(170.996094 0)"/>
     <use xlink:href="#DejaVuSans-47" transform="translate(232.177734 0)"/>
     <use xlink:href="#DejaVuSans-6c" transform="translate(309.667969 0)"/>
     <use xlink:href="#DejaVuSans-75" transform="translate(337.451172 0)"/>
     <use xlink:href="#DejaVuSans-6f" transform="translate(400.830078 0)"/>
     <use xlink:href="#DejaVuSans-6e" transform="translate(462.011719 0)"/>
    </g>
   </g>
   <g id="legend_3">
    <g id="patch_61">
     <path d="M 362.0625 674.31625 
L 446.6 674.31625 
Q 448.6 674.31625 448.6 672.31625 
L 448.6 643.96 
Q 448.6 641.96 446.6 641.96 
L 362.0625 641.96 
Q 360.0625 641.96 360.0625 643.96 
L 360.0625 672.31625 
Q 360.0625 674.31625 362.0625 674.31625 
z
" style="fill: #ffffff; opacity: 0.8; stroke: #cccccc; stroke-linejoin: miter"/>
    </g>
    <g id="patch_62">
     <path d="M 364.0625 653.558438 
L 384.0625 653.558438 
L 384.0625 646.558438 
L 364.0625 646.558438 
z
" style="fill: #f77189; stroke: #000000; stroke-linejoin: miter"/>
    </g>
    <g id="text_47">
     <!-- AutoGluon -->
     <g transform="translate(392.0625 653.558438) scale(0.1 -0.1)">
      <use xlink:href="#DejaVuSans-41"/>
      <use xlink:href="#DejaVuSans-75" transform="translate(68.408203 0)"/>
      <use xlink:href="#DejaVuSans-74" transform="translate(131.787109 0)"/>
      <use xlink:href="#DejaVuSans-6f" transform="translate(170.996094 0)"/>
      <use xlink:href="#DejaVuSans-47" transform="translate(232.177734 0)"/>
      <use xlink:href="#DejaVuSans-6c" transform="translate(309.667969 0)"/>
      <use xlink:href="#DejaVuSans-75" transform="translate(337.451172 0)"/>
      <use xlink:href="#DejaVuSans-6f" transform="translate(400.830078 0)"/>
      <use xlink:href="#DejaVuSans-6e" transform="translate(462.011719 0)"/>
     </g>
    </g>
    <g id="patch_63">
     <path d="M 364.0625 668.236562 
L 384.0625 668.236562 
L 384.0625 661.236562 
L 364.0625 661.236562 
z
" style="fill: url(#hc073a4b273); opacity: 0.25; stroke: #000000; stroke-linejoin: miter"/>
    </g>
    <g id="text_48">
     <!-- GT -->
     <g transform="translate(392.0625 668.236562) scale(0.1 -0.1)">
      <use xlink:href="#DejaVuSans-47"/>
      <use xlink:href="#DejaVuSans-54" transform="translate(73.865234 0)"/>
     </g>
    </g>
   </g>
  </g>
 </g>
 <defs>
  <clipPath id="p38664bccca">
   <rect x="63" y="103.68" width="390.6" height="290.4"/>
  </clipPath>
  <clipPath id="p9c6f9215ba">
   <rect x="63" y="449.52" width="390.6" height="132"/>
  </clipPath>
  <clipPath id="p7a1cc16fd1">
   <rect x="63" y="636.96" width="390.6" height="132"/>
  </clipPath>
 </defs>
 <defs>
  <pattern id="hc073a4b273" patternUnits="userSpaceOnUse" x="0" y="0" width="72" height="72">
   <rect x="0" y="0" width="73" height="73" fill="#f77189"/>
   <path d="M -36 36 
L 36 -36 
M -32 40 
L 40 -32 
M -28 44 
L 44 -28 
M -24 48 
L 48 -24 
M -20 52 
L 52 -20 
M -16 56 
L 56 -16 
M -12 60 
L 60 -12 
M -8 64 
L 64 -8 
M -4 68 
L 68 -4 
M 0 72 
L 72 0 
M 4 76 
L 76 4 
M 8 80 
L 80 8 
M 12 84 
L 84 12 
M 16 88 
L 88 16 
M 20 92 
L 92 20 
M 24 96 
L 96 24 
M 28 100 
L 100 28 
M 32 104 
L 104 32 
M 36 108 
L 108 36 
" style="fill: #000000; stroke: #000000; stroke-width: 1.0; stroke-linecap: butt; stroke-linejoin: miter; stroke-opacity: 0.25"/>
  </pattern>
 </defs>
</svg>
