<?xml version="1.0" encoding="utf-8" standalone="no"?>
<!DOCTYPE svg PUBLIC "-//W3C//DTD SVG 1.1//EN"
  "http://www.w3.org/Graphics/SVG/1.1/DTD/svg11.dtd">
<svg xmlns:xlink="http://www.w3.org/1999/xlink" width="1080pt" height="360pt" viewBox="0 0 1080 360" xmlns="http://www.w3.org/2000/svg" version="1.1">
 <metadata>
  <rdf:RDF xmlns:dc="http://purl.org/dc/elements/1.1/" xmlns:cc="http://creativecommons.org/ns#" xmlns:rdf="http://www.w3.org/1999/02/22-rdf-syntax-ns#">
   <cc:Work>
    <dc:type rdf:resource="http://purl.org/dc/dcmitype/StillImage"/>
    <dc:date>2026-02-20T10:46:58.707626</dc:date>
    <dc:format>image/svg+xml</dc:format>
    <dc:creator>
     <cc:Agent>
      <dc:title>Matplotlib v3.10.8, https://matplotlib.org/</dc:title>
     </cc:Agent>
    </dc:creator>
   </cc:Work>
  </rdf:RDF>
 </metadata>
 <defs>
  <style type="text/css">*{stroke-linejoin: round; stroke-linecap: butt}</style>
 </defs>
 <g id="figure_1">
  <g id="patch_1">
   <path d="M 0 360 
L 1080 360 
L 1080 0 
L 0 0 
z
" style="fill: #ffffff"/>
  </g>
  <g id="axes_1">
   <g id="patch_2">
    <path d="M 111.345 268.38 
L 510.20419 268.38 
L 510.20419 25.92 
L 111.345 25.92 
z
" style="fill: #eaeaf2"/>
   </g>
   <g id="matplotlib.axis_1">
    <g id="xtick_1">
     <g id="line2d_1">
      <path d="M 129.474963 268.38 
L 129.474963 25.92 
" clip-path="url(#p728feb435c)" style="fill: none; stroke: #ffffff; stroke-width: 2; stroke-linecap: round"/>
     </g>
     <g id="text_1">
      <!-- 0.0 -->
      <g style="fill: #262626" transform="translate(111.981526 300.596563) scale(0.22 -0.22)">
       <defs>
        <path id="DejaVuSans-30" d="M 2034 4250 
Q 1547 4250 1301 3770 
Q 1056 3291 1056 2328 
Q 1056 1369 1301 889 
Q 1547 409 2034 409 
Q 2525 409 2770 889 
Q 3016 1369 3016 2328 
Q 3016 3291 2770 3770 
Q 2525 4250 2034 4250 
z
M 2034 4750 
Q 2819 4750 3233 4129 
Q 3647 3509 3647 2328 
Q 3647 1150 3233 529 
Q 2819 -91 2034 -91 
Q 1250 -91 836 529 
Q 422 1150 422 2328 
Q 422 3509 836 4129 
Q 1250 4750 2034 4750 
z
" transform="scale(0.015625)"/>
        <path id="DejaVuSans-2e" d="M 684 794 
L 1344 794 
L 1344 0 
L 684 0 
L 684 794 
z
" transform="scale(0.015625)"/>
       </defs>
       <use xlink:href="#DejaVuSans-30"/>
       <use xlink:href="#DejaVuSans-2e" transform="translate(63.623047 0)"/>
       <use xlink:href="#DejaVuSans-30" transform="translate(95.410156 0)"/>
      </g>
     </g>
    </g>
    <g id="xtick_2">
     <g id="line2d_2">
      <path d="M 203.336196 268.38 
L 203.336196 25.92 
" clip-path="url(#p728feb435c)" style="fill: none; stroke: #ffffff; stroke-width: 2; stroke-linecap: round"/>
     </g>
     <g id="text_2">
      <!-- 0.2 -->
      <g style="fill: #262626" transform="translate(185.842759 300.596563) scale(0.22 -0.22)">
       <defs>
        <path id="DejaVuSans-32" d="M 1228 531 
L 3431 531 
L 3431 0 
L 469 0 
L 469 531 
Q 828 903 1448 1529 
Q 2069 2156 2228 2338 
Q 2531 2678 2651 2914 
Q 2772 3150 2772 3378 
Q 2772 3750 2511 3984 
Q 2250 4219 1831 4219 
Q 1534 4219 1204 4116 
Q 875 4013 500 3803 
L 500 4441 
Q 881 4594 1212 4672 
Q 1544 4750 1819 4750 
Q 2544 4750 2975 4387 
Q 3406 4025 3406 3419 
Q 3406 3131 3298 2873 
Q 3191 2616 2906 2266 
Q 2828 2175 2409 1742 
Q 1991 1309 1228 531 
z
" transform="scale(0.015625)"/>
       </defs>
       <use xlink:href="#DejaVuSans-30"/>
       <use xlink:href="#DejaVuSans-2e" transform="translate(63.623047 0)"/>
       <use xlink:href="#DejaVuSans-32" transform="translate(95.410156 0)"/>
      </g>
     </g>
    </g>
    <g id="xtick_3">
     <g id="line2d_3">
      <path d="M 277.19743 268.38 
L 277.19743 25.92 
" clip-path="url(#p728feb435c)" style="fill: none; stroke: #ffffff; stroke-width: 2; stroke-linecap: round"/>
     </g>
     <g id="text_3">
      <!-- 0.4 -->
      <g style="fill: #262626" transform="translate(259.703992 300.596563) scale(0.22 -0.22)">
       <defs>
        <path id="DejaVuSans-34" d="M 2419 4116 
L 825 1625 
L 2419 1625 
L 2419 4116 
z
M 2253 4666 
L 3047 4666 
L 3047 1625 
L 3713 1625 
L 3713 1100 
L 3047 1100 
L 3047 0 
L 2419 0 
L 2419 1100 
L 313 1100 
L 313 1709 
L 2253 4666 
z
" transform="scale(0.015625)"/>
       </defs>
       <use xlink:href="#DejaVuSans-30"/>
       <use xlink:href="#DejaVuSans-2e" transform="translate(63.623047 0)"/>
       <use xlink:href="#DejaVuSans-34" transform="translate(95.410156 0)"/>
      </g>
     </g>
    </g>
    <g id="xtick_4">
     <g id="line2d_4">
      <path d="M 351.058663 268.38 
L 351.058663 25.92 
" clip-path="url(#p728feb435c)" style="fill: none; stroke: #ffffff; stroke-width: 2; stroke-linecap: round"/>
     </g>
     <g id="text_4">
      <!-- 0.6 -->
      <g style="fill: #262626" transform="translate(333.565225 300.596563) scale(0.22 -0.22)">
       <defs>
        <path id="DejaVuSans-36" d="M 2113 2584 
Q 1688 2584 1439 2293 
Q 1191 2003 1191 1497 
Q 1191 994 1439 701 
Q 1688 409 2113 409 
Q 2538 409 2786 701 
Q 3034 994 3034 1497 
Q 3034 2003 2786 2293 
Q 2538 2584 2113 2584 
z
M 3366 4563 
L 3366 3988 
Q 3128 4100 2886 4159 
Q 2644 4219 2406 4219 
Q 1781 4219 1451 3797 
Q 1122 3375 1075 2522 
Q 1259 2794 1537 2939 
Q 1816 3084 2150 3084 
Q 2853 3084 3261 2657 
Q 3669 2231 3669 1497 
Q 3669 778 3244 343 
Q 2819 -91 2113 -91 
Q 1303 -91 875 529 
Q 447 1150 447 2328 
Q 447 3434 972 4092 
Q 1497 4750 2381 4750 
Q 2619 4750 2861 4703 
Q 3103 4656 3366 4563 
z
" transform="scale(0.015625)"/>
       </defs>
       <use xlink:href="#DejaVuSans-30"/>
       <use xlink:href="#DejaVuSans-2e" transform="translate(63.623047 0)"/>
       <use xlink:href="#DejaVuSans-36" transform="translate(95.410156 0)"/>
      </g>
     </g>
    </g>
    <g id="xtick_5">
     <g id="line2d_5">
      <path d="M 424.919896 268.38 
L 424.919896 25.92 
" clip-path="url(#p728feb435c)" style="fill: none; stroke: #ffffff; stroke-width: 2; stroke-linecap: round"/>
     </g>
     <g id="text_5">
      <!-- 0.8 -->
      <g style="fill: #262626" transform="translate(407.426459 300.596563) scale(0.22 -0.22)">
       <defs>
        <path id="DejaVuSans-38" d="M 2034 2216 
Q 1584 2216 1326 1975 
Q 1069 1734 1069 1313 
Q 1069 891 1326 650 
Q 1584 409 2034 409 
Q 2484 409 2743 651 
Q 3003 894 3003 1313 
Q 3003 1734 2745 1975 
Q 2488 2216 2034 2216 
z
M 1403 2484 
Q 997 2584 770 2862 
Q 544 3141 544 3541 
Q 544 4100 942 4425 
Q 1341 4750 2034 4750 
Q 2731 4750 3128 4425 
Q 3525 4100 3525 3541 
Q 3525 3141 3298 2862 
Q 3072 2584 2669 2484 
Q 3125 2378 3379 2068 
Q 3634 1759 3634 1313 
Q 3634 634 3220 271 
Q 2806 -91 2034 -91 
Q 1263 -91 848 271 
Q 434 634 434 1313 
Q 434 1759 690 2068 
Q 947 2378 1403 2484 
z
M 1172 3481 
Q 1172 3119 1398 2916 
Q 1625 2713 2034 2713 
Q 2441 2713 2670 2916 
Q 2900 3119 2900 3481 
Q 2900 3844 2670 4047 
Q 2441 4250 2034 4250 
Q 1625 4250 1398 4047 
Q 1172 3844 1172 3481 
z
" transform="scale(0.015625)"/>
       </defs>
       <use xlink:href="#DejaVuSans-30"/>
       <use xlink:href="#DejaVuSans-2e" transform="translate(63.623047 0)"/>
       <use xlink:href="#DejaVuSans-38" transform="translate(95.410156 0)"/>
      </g>
     </g>
    </g>
    <g id="xtick_6">
     <g id="line2d_6">
      <path d="M 498.781129 268.38 
L 498.781129 25.92 
" clip-path="url(#p728feb435c)" style="fill: none; stroke: #ffffff; stroke-width: 2; stroke-linecap: round"/>
     </g>
     <g id="text_6">
      <!-- 1.0 -->
      <g style="fill: #262626" transform="translate(481.287692 300.596563) scale(0.22 -0.22)">
       <defs>
        <path id="DejaVuSans-31" d="M 794 531 
L 1825 531 
L 1825 4091 
L 703 3866 
L 703 4441 
L 1819 4666 
L 2450 4666 
L 2450 531 
L 3481 531 
L 3481 0 
L 794 0 
L 794 531 
z
" transform="scale(0.015625)"/>
       </defs>
       <use xlink:href="#DejaVuSans-31"/>
       <use xlink:href="#DejaVuSans-2e" transform="translate(63.623047 0)"/>
       <use xlink:href="#DejaVuSans-30" transform="translate(95.410156 0)"/>
      </g>
     </g>
    </g>
    <g id="text_7">
     <!-- iou -->
     <g style="fill: #262626" transform="translate(292.493345 327.408125) scale(0.24 -0.24)">
      <defs>
       <path id="DejaVuSans-69" d="M 603 3500 
L 1178 3500 
L 1178 0 
L 603 0 
L 603 3500 
z
M 603 4863 
L 1178 4863 
L 1178 4134 
L 603 4134 
L 603 4863 
z
" transform="scale(0.015625)"/>
       <path id="DejaVuSans-6f" d="M 1959 3097 
Q 1497 3097 1228 2736 
Q 959 2375 959 1747 
Q 959 1119 1226 758 
Q 1494 397 1959 397 
Q 2419 397 2687 759 
Q 2956 1122 2956 1747 
Q 2956 2369 2687 2733 
Q 2419 3097 1959 3097 
z
M 1959 3584 
Q 2709 3584 3137 3096 
Q 3566 2609 3566 1747 
Q 3566 888 3137 398 
Q 2709 -91 1959 -91 
Q 1206 -91 779 398 
Q 353 888 353 1747 
Q 353 2609 779 3096 
Q 1206 3584 1959 3584 
z
" transform="scale(0.015625)"/>
       <path id="DejaVuSans-75" d="M 544 1381 
L 544 3500 
L 1119 3500 
L 1119 1403 
Q 1119 906 1312 657 
Q 1506 409 1894 409 
Q 2359 409 2629 706 
Q 2900 1003 2900 1516 
L 2900 3500 
L 3475 3500 
L 3475 0 
L 2900 0 
L 2900 538 
Q 2691 219 2414 64 
Q 2138 -91 1772 -91 
Q 1169 -91 856 284 
Q 544 659 544 1381 
z
M 1991 3584 
L 1991 3584 
z
" transform="scale(0.015625)"/>
      </defs>
      <use xlink:href="#DejaVuSans-69"/>
      <use xlink:href="#DejaVuSans-6f" transform="translate(27.783203 0)"/>
      <use xlink:href="#DejaVuSans-75" transform="translate(88.964844 0)"/>
     </g>
    </g>
   </g>
   <g id="matplotlib.axis_2">
    <g id="ytick_1">
     <g id="line2d_7">
      <path d="M 111.345 268.38 
L 510.20419 268.38 
" clip-path="url(#p728feb435c)" style="fill: none; stroke: #ffffff; stroke-width: 2; stroke-linecap: round"/>
     </g>
     <g id="text_8">
      <!-- 0 -->
      <g style="fill: #262626" transform="translate(81.8475 276.738281) scale(0.22 -0.22)">
       <use xlink:href="#DejaVuSans-30"/>
      </g>
     </g>
    </g>
    <g id="ytick_2">
     <g id="line2d_8">
      <path d="M 111.345 177.468864 
L 510.20419 177.468864 
" clip-path="url(#p728feb435c)" style="fill: none; stroke: #ffffff; stroke-width: 2; stroke-linecap: round"/>
     </g>
     <g id="text_9">
      <!-- 200 -->
      <g style="fill: #262626" transform="translate(53.8525 185.827145) scale(0.22 -0.22)">
       <use xlink:href="#DejaVuSans-32"/>
       <use xlink:href="#DejaVuSans-30" transform="translate(63.623047 0)"/>
       <use xlink:href="#DejaVuSans-30" transform="translate(127.246094 0)"/>
      </g>
     </g>
    </g>
    <g id="ytick_3">
     <g id="line2d_9">
      <path d="M 111.345 86.557728 
L 510.20419 86.557728 
" clip-path="url(#p728feb435c)" style="fill: none; stroke: #ffffff; stroke-width: 2; stroke-linecap: round"/>
     </g>
     <g id="text_10">
      <!-- 400 -->
      <g style="fill: #262626" transform="translate(53.8525 94.916009) scale(0.22 -0.22)">
       <use xlink:href="#DejaVuSans-34"/>
       <use xlink:href="#DejaVuSans-30" transform="translate(63.623047 0)"/>
       <use xlink:href="#DejaVuSans-30" transform="translate(127.246094 0)"/>
      </g>
     </g>
    </g>
    <g id="text_11">
     <!-- Count -->
     <g style="fill: #262626" transform="translate(44.86125 182.78625) rotate(-90) scale(0.24 -0.24)">
      <defs>
       <path id="DejaVuSans-43" d="M 4122 4306 
L 4122 3641 
Q 3803 3938 3442 4084 
Q 3081 4231 2675 4231 
Q 1875 4231 1450 3742 
Q 1025 3253 1025 2328 
Q 1025 1406 1450 917 
Q 1875 428 2675 428 
Q 3081 428 3442 575 
Q 3803 722 4122 1019 
L 4122 359 
Q 3791 134 3420 21 
Q 3050 -91 2638 -91 
Q 1578 -91 968 557 
Q 359 1206 359 2328 
Q 359 3453 968 4101 
Q 1578 4750 2638 4750 
Q 3056 4750 3426 4639 
Q 3797 4528 4122 4306 
z
" transform="scale(0.015625)"/>
       <path id="DejaVuSans-6e" d="M 3513 2113 
L 3513 0 
L 2938 0 
L 2938 2094 
Q 2938 2591 2744 2837 
Q 2550 3084 2163 3084 
Q 1697 3084 1428 2787 
Q 1159 2491 1159 1978 
L 1159 0 
L 581 0 
L 581 3500 
L 1159 3500 
L 1159 2956 
Q 1366 3272 1645 3428 
Q 1925 3584 2291 3584 
Q 2894 3584 3203 3211 
Q 3513 2838 3513 2113 
z
" transform="scale(0.015625)"/>
       <path id="DejaVuSans-74" d="M 1172 4494 
L 1172 3500 
L 2356 3500 
L 2356 3053 
L 1172 3053 
L 1172 1153 
Q 1172 725 1289 603 
Q 1406 481 1766 481 
L 2356 481 
L 2356 0 
L 1766 0 
Q 1100 0 847 248 
Q 594 497 594 1153 
L 594 3053 
L 172 3053 
L 172 3500 
L 594 3500 
L 594 4494 
L 1172 4494 
z
" transform="scale(0.015625)"/>
      </defs>
      <use xlink:href="#DejaVuSans-43"/>
      <use xlink:href="#DejaVuSans-6f" transform="translate(69.824219 0)"/>
      <use xlink:href="#DejaVuSans-75" transform="translate(131.005859 0)"/>
      <use xlink:href="#DejaVuSans-6e" transform="translate(194.384766 0)"/>
      <use xlink:href="#DejaVuSans-74" transform="translate(257.763672 0)"/>
     </g>
    </g>
   </g>
   <g id="patch_3">
    <path d="M 129.474963 268.38 
L 137.357556 268.38 
L 137.357556 188.3782 
L 129.474963 188.3782 
z
" clip-path="url(#p728feb435c)" style="fill: #4ab31a; fill-opacity: 0.5; stroke: #ffffff; stroke-width: 0.751886; stroke-linejoin: miter"/>
   </g>
   <g id="patch_4">
    <path d="M 137.357556 268.38 
L 145.240149 268.38 
L 145.240149 267.470889 
L 137.357556 267.470889 
z
" clip-path="url(#p728feb435c)" style="fill: #4ab31a; fill-opacity: 0.5; stroke: #ffffff; stroke-width: 0.751886; stroke-linejoin: miter"/>
   </g>
   <g id="patch_5">
    <path d="M 145.240149 268.38 
L 153.122741 268.38 
L 153.122741 265.652666 
L 145.240149 265.652666 
z
" clip-path="url(#p728feb435c)" style="fill: #4ab31a; fill-opacity: 0.5; stroke: #ffffff; stroke-width: 0.751886; stroke-linejoin: miter"/>
   </g>
   <g id="patch_6">
    <path d="M 153.122741 268.38 
L 161.005334 268.38 
L 161.005334 262.01622 
L 153.122741 262.01622 
z
" clip-path="url(#p728feb435c)" style="fill: #4ab31a; fill-opacity: 0.5; stroke: #ffffff; stroke-width: 0.751886; stroke-linejoin: miter"/>
   </g>
   <g id="patch_7">
    <path d="M 161.005334 268.38 
L 168.887927 268.38 
L 168.887927 261.561665 
L 161.005334 261.561665 
z
" clip-path="url(#p728feb435c)" style="fill: #4ab31a; fill-opacity: 0.5; stroke: #ffffff; stroke-width: 0.751886; stroke-linejoin: miter"/>
   </g>
   <g id="patch_8">
    <path d="M 168.887927 268.38 
L 176.770519 268.38 
L 176.770519 254.288774 
L 168.887927 254.288774 
z
" clip-path="url(#p728feb435c)" style="fill: #4ab31a; fill-opacity: 0.5; stroke: #ffffff; stroke-width: 0.751886; stroke-linejoin: miter"/>
   </g>
   <g id="patch_9">
    <path d="M 176.770519 268.38 
L 184.653112 268.38 
L 184.653112 252.470551 
L 176.770519 252.470551 
z
" clip-path="url(#p728feb435c)" style="fill: #4ab31a; fill-opacity: 0.5; stroke: #ffffff; stroke-width: 0.751886; stroke-linejoin: miter"/>
   </g>
   <g id="patch_10">
    <path d="M 184.653112 268.38 
L 192.535705 268.38 
L 192.535705 248.834106 
L 184.653112 248.834106 
z
" clip-path="url(#p728feb435c)" style="fill: #4ab31a; fill-opacity: 0.5; stroke: #ffffff; stroke-width: 0.751886; stroke-linejoin: miter"/>
   </g>
   <g id="patch_11">
    <path d="M 192.535705 268.38 
L 200.418297 268.38 
L 200.418297 231.106434 
L 192.535705 231.106434 
z
" clip-path="url(#p728feb435c)" style="fill: #4ab31a; fill-opacity: 0.5; stroke: #ffffff; stroke-width: 0.751886; stroke-linejoin: miter"/>
   </g>
   <g id="patch_12">
    <path d="M 200.418297 268.38 
L 208.30089 268.38 
L 208.30089 229.288211 
L 200.418297 229.288211 
z
" clip-path="url(#p728feb435c)" style="fill: #4ab31a; fill-opacity: 0.5; stroke: #ffffff; stroke-width: 0.751886; stroke-linejoin: miter"/>
   </g>
   <g id="patch_13">
    <path d="M 208.30089 268.38 
L 216.183483 268.38 
L 216.183483 211.56054 
L 208.30089 211.56054 
z
" clip-path="url(#p728feb435c)" style="fill: #4ab31a; fill-opacity: 0.5; stroke: #ffffff; stroke-width: 0.751886; stroke-linejoin: miter"/>
   </g>
   <g id="patch_14">
    <path d="M 216.183483 268.38 
L 224.066075 268.38 
L 224.066075 196.105647 
L 216.183483 196.105647 
z
" clip-path="url(#p728feb435c)" style="fill: #4ab31a; fill-opacity: 0.5; stroke: #ffffff; stroke-width: 0.751886; stroke-linejoin: miter"/>
   </g>
   <g id="patch_15">
    <path d="M 224.066075 268.38 
L 231.948668 268.38 
L 231.948668 186.105422 
L 224.066075 186.105422 
z
" clip-path="url(#p728feb435c)" style="fill: #4ab31a; fill-opacity: 0.5; stroke: #ffffff; stroke-width: 0.751886; stroke-linejoin: miter"/>
   </g>
   <g id="patch_16">
    <path d="M 231.948668 268.38 
L 239.831261 268.38 
L 239.831261 181.105309 
L 231.948668 181.105309 
z
" clip-path="url(#p728feb435c)" style="fill: #4ab31a; fill-opacity: 0.5; stroke: #ffffff; stroke-width: 0.751886; stroke-linejoin: miter"/>
   </g>
   <g id="patch_17">
    <path d="M 239.831261 268.38 
L 247.713853 268.38 
L 247.713853 147.013633 
L 239.831261 147.013633 
z
" clip-path="url(#p728feb435c)" style="fill: #4ab31a; fill-opacity: 0.5; stroke: #ffffff; stroke-width: 0.751886; stroke-linejoin: miter"/>
   </g>
   <g id="patch_18">
    <path d="M 247.713853 268.38 
L 255.596446 268.38 
L 255.596446 127.467739 
L 247.713853 127.467739 
z
" clip-path="url(#p728feb435c)" style="fill: #4ab31a; fill-opacity: 0.5; stroke: #ffffff; stroke-width: 0.751886; stroke-linejoin: miter"/>
   </g>
   <g id="patch_19">
    <path d="M 255.596446 268.38 
L 263.479039 268.38 
L 263.479039 108.3764 
L 255.596446 108.3764 
z
" clip-path="url(#p728feb435c)" style="fill: #4ab31a; fill-opacity: 0.5; stroke: #ffffff; stroke-width: 0.751886; stroke-linejoin: miter"/>
   </g>
   <g id="patch_20">
    <path d="M 263.479039 268.38 
L 271.361631 268.38 
L 271.361631 78.830281 
L 263.479039 78.830281 
z
" clip-path="url(#p728feb435c)" style="fill: #4ab31a; fill-opacity: 0.5; stroke: #ffffff; stroke-width: 0.751886; stroke-linejoin: miter"/>
   </g>
   <g id="patch_21">
    <path d="M 271.361631 268.38 
L 279.244224 268.38 
L 279.244224 83.375838 
L 271.361631 83.375838 
z
" clip-path="url(#p728feb435c)" style="fill: #4ab31a; fill-opacity: 0.5; stroke: #ffffff; stroke-width: 0.751886; stroke-linejoin: miter"/>
   </g>
   <g id="patch_22">
    <path d="M 279.244224 268.38 
L 287.126817 268.38 
L 287.126817 63.375388 
L 279.244224 63.375388 
z
" clip-path="url(#p728feb435c)" style="fill: #4ab31a; fill-opacity: 0.5; stroke: #ffffff; stroke-width: 0.751886; stroke-linejoin: miter"/>
   </g>
   <g id="patch_23">
    <path d="M 287.126817 268.38 
L 295.00941 268.38 
L 295.00941 38.829381 
L 287.126817 38.829381 
z
" clip-path="url(#p728feb435c)" style="fill: #4ab31a; fill-opacity: 0.5; stroke: #ffffff; stroke-width: 0.751886; stroke-linejoin: miter"/>
   </g>
   <g id="patch_24">
    <path d="M 295.00941 268.38 
L 302.892002 268.38 
L 302.892002 37.465714 
L 295.00941 37.465714 
z
" clip-path="url(#p728feb435c)" style="fill: #4ab31a; fill-opacity: 0.5; stroke: #ffffff; stroke-width: 0.751886; stroke-linejoin: miter"/>
   </g>
   <g id="patch_25">
    <path d="M 302.892002 268.38 
L 310.774595 268.38 
L 310.774595 53.829719 
L 302.892002 53.829719 
z
" clip-path="url(#p728feb435c)" style="fill: #4ab31a; fill-opacity: 0.5; stroke: #ffffff; stroke-width: 0.751886; stroke-linejoin: miter"/>
   </g>
   <g id="patch_26">
    <path d="M 310.774595 268.38 
L 318.657188 268.38 
L 318.657188 52.920607 
L 310.774595 52.920607 
z
" clip-path="url(#p728feb435c)" style="fill: #4ab31a; fill-opacity: 0.5; stroke: #ffffff; stroke-width: 0.751886; stroke-linejoin: miter"/>
   </g>
   <g id="patch_27">
    <path d="M 318.657188 268.38 
L 326.53978 268.38 
L 326.53978 52.920607 
L 318.657188 52.920607 
z
" clip-path="url(#p728feb435c)" style="fill: #4ab31a; fill-opacity: 0.5; stroke: #ffffff; stroke-width: 0.751886; stroke-linejoin: miter"/>
   </g>
   <g id="patch_28">
    <path d="M 326.53978 268.38 
L 334.422373 268.38 
L 334.422373 57.92072 
L 326.53978 57.92072 
z
" clip-path="url(#p728feb435c)" style="fill: #4ab31a; fill-opacity: 0.5; stroke: #ffffff; stroke-width: 0.751886; stroke-linejoin: miter"/>
   </g>
   <g id="patch_29">
    <path d="M 334.422373 268.38 
L 342.304966 268.38 
L 342.304966 71.55739 
L 334.422373 71.55739 
z
" clip-path="url(#p728feb435c)" style="fill: #4ab31a; fill-opacity: 0.5; stroke: #ffffff; stroke-width: 0.751886; stroke-linejoin: miter"/>
   </g>
   <g id="patch_30">
    <path d="M 342.304966 268.38 
L 350.187558 268.38 
L 350.187558 85.194061 
L 342.304966 85.194061 
z
" clip-path="url(#p728feb435c)" style="fill: #4ab31a; fill-opacity: 0.5; stroke: #ffffff; stroke-width: 0.751886; stroke-linejoin: miter"/>
   </g>
   <g id="patch_31">
    <path d="M 350.187558 268.38 
L 358.070151 268.38 
L 358.070151 125.649516 
L 350.187558 125.649516 
z
" clip-path="url(#p728feb435c)" style="fill: #4ab31a; fill-opacity: 0.5; stroke: #ffffff; stroke-width: 0.751886; stroke-linejoin: miter"/>
   </g>
   <g id="patch_32">
    <path d="M 358.070151 268.38 
L 365.952744 268.38 
L 365.952744 126.558628 
L 358.070151 126.558628 
z
" clip-path="url(#p728feb435c)" style="fill: #4ab31a; fill-opacity: 0.5; stroke: #ffffff; stroke-width: 0.751886; stroke-linejoin: miter"/>
   </g>
   <g id="patch_33">
    <path d="M 365.952744 268.38 
L 373.835336 268.38 
L 373.835336 149.286412 
L 365.952744 149.286412 
z
" clip-path="url(#p728feb435c)" style="fill: #4ab31a; fill-opacity: 0.5; stroke: #ffffff; stroke-width: 0.751886; stroke-linejoin: miter"/>
   </g>
   <g id="patch_34">
    <path d="M 373.835336 268.38 
L 381.717929 268.38 
L 381.717929 157.013858 
L 373.835336 157.013858 
z
" clip-path="url(#p728feb435c)" style="fill: #4ab31a; fill-opacity: 0.5; stroke: #ffffff; stroke-width: 0.751886; stroke-linejoin: miter"/>
   </g>
   <g id="patch_35">
    <path d="M 381.717929 268.38 
L 389.600522 268.38 
L 389.600522 192.923757 
L 381.717929 192.923757 
z
" clip-path="url(#p728feb435c)" style="fill: #4ab31a; fill-opacity: 0.5; stroke: #ffffff; stroke-width: 0.751886; stroke-linejoin: miter"/>
   </g>
   <g id="patch_36">
    <path d="M 389.600522 268.38 
L 397.483114 268.38 
L 397.483114 201.105759 
L 389.600522 201.105759 
z
" clip-path="url(#p728feb435c)" style="fill: #4ab31a; fill-opacity: 0.5; stroke: #ffffff; stroke-width: 0.751886; stroke-linejoin: miter"/>
   </g>
   <g id="patch_37">
    <path d="M 397.483114 268.38 
L 405.365707 268.38 
L 405.365707 201.560315 
L 397.483114 201.560315 
z
" clip-path="url(#p728feb435c)" style="fill: #4ab31a; fill-opacity: 0.5; stroke: #ffffff; stroke-width: 0.751886; stroke-linejoin: miter"/>
   </g>
   <g id="patch_38">
    <path d="M 405.365707 268.38 
L 413.2483 268.38 
L 413.2483 214.74243 
L 405.365707 214.74243 
z
" clip-path="url(#p728feb435c)" style="fill: #4ab31a; fill-opacity: 0.5; stroke: #ffffff; stroke-width: 0.751886; stroke-linejoin: miter"/>
   </g>
   <g id="patch_39">
    <path d="M 413.2483 268.38 
L 421.130892 268.38 
L 421.130892 215.196985 
L 413.2483 215.196985 
z
" clip-path="url(#p728feb435c)" style="fill: #4ab31a; fill-opacity: 0.5; stroke: #ffffff; stroke-width: 0.751886; stroke-linejoin: miter"/>
   </g>
   <g id="patch_40">
    <path d="M 421.130892 268.38 
L 429.013485 268.38 
L 429.013485 215.651541 
L 421.130892 215.651541 
z
" clip-path="url(#p728feb435c)" style="fill: #4ab31a; fill-opacity: 0.5; stroke: #ffffff; stroke-width: 0.751886; stroke-linejoin: miter"/>
   </g>
   <g id="patch_41">
    <path d="M 429.013485 268.38 
L 436.896078 268.38 
L 436.896078 216.560652 
L 429.013485 216.560652 
z
" clip-path="url(#p728feb435c)" style="fill: #4ab31a; fill-opacity: 0.5; stroke: #ffffff; stroke-width: 0.751886; stroke-linejoin: miter"/>
   </g>
   <g id="patch_42">
    <path d="M 436.896078 268.38 
L 444.778671 268.38 
L 444.778671 219.287987 
L 436.896078 219.287987 
z
" clip-path="url(#p728feb435c)" style="fill: #4ab31a; fill-opacity: 0.5; stroke: #ffffff; stroke-width: 0.751886; stroke-linejoin: miter"/>
   </g>
   <g id="patch_43">
    <path d="M 444.778671 268.38 
L 452.661263 268.38 
L 452.661263 215.196985 
L 444.778671 215.196985 
z
" clip-path="url(#p728feb435c)" style="fill: #4ab31a; fill-opacity: 0.5; stroke: #ffffff; stroke-width: 0.751886; stroke-linejoin: miter"/>
   </g>
   <g id="patch_44">
    <path d="M 452.661263 268.38 
L 460.543856 268.38 
L 460.543856 222.924432 
L 452.661263 222.924432 
z
" clip-path="url(#p728feb435c)" style="fill: #4ab31a; fill-opacity: 0.5; stroke: #ffffff; stroke-width: 0.751886; stroke-linejoin: miter"/>
   </g>
   <g id="patch_45">
    <path d="M 460.543856 268.38 
L 468.426449 268.38 
L 468.426449 233.833768 
L 460.543856 233.833768 
z
" clip-path="url(#p728feb435c)" style="fill: #4ab31a; fill-opacity: 0.5; stroke: #ffffff; stroke-width: 0.751886; stroke-linejoin: miter"/>
   </g>
   <g id="patch_46">
    <path d="M 468.426449 268.38 
L 476.309041 268.38 
L 476.309041 235.651991 
L 468.426449 235.651991 
z
" clip-path="url(#p728feb435c)" style="fill: #4ab31a; fill-opacity: 0.5; stroke: #ffffff; stroke-width: 0.751886; stroke-linejoin: miter"/>
   </g>
   <g id="patch_47">
    <path d="M 476.309041 268.38 
L 484.191634 268.38 
L 484.191634 251.56144 
L 476.309041 251.56144 
z
" clip-path="url(#p728feb435c)" style="fill: #4ab31a; fill-opacity: 0.5; stroke: #ffffff; stroke-width: 0.751886; stroke-linejoin: miter"/>
   </g>
   <g id="patch_48">
    <path d="M 484.191634 268.38 
L 492.074227 268.38 
L 492.074227 261.561665 
L 484.191634 261.561665 
z
" clip-path="url(#p728feb435c)" style="fill: #4ab31a; fill-opacity: 0.5; stroke: #ffffff; stroke-width: 0.751886; stroke-linejoin: miter"/>
   </g>
   <g id="line2d_10">
    <path d="M 129.474963 244.922412 
L 131.29707 245.100674 
L 133.119177 245.864911 
L 134.941284 247.138448 
L 136.763391 248.805796 
L 140.407604 252.755442 
L 144.051818 256.596741 
L 145.873925 258.202922 
L 147.696032 259.513394 
L 149.518139 260.502699 
L 151.340245 261.171561 
L 153.162352 261.54016 
L 154.984459 261.640944 
L 156.806566 261.512103 
L 158.628673 261.192415 
L 160.45078 260.717712 
L 164.094993 259.42087 
L 167.739207 257.798564 
L 171.383421 255.940275 
L 175.027634 253.863175 
L 178.671848 251.531196 
L 182.316062 248.879743 
L 185.960276 245.843434 
L 189.604489 242.375787 
L 193.248703 238.453273 
L 196.892917 234.070846 
L 200.53713 229.245036 
L 204.181344 224.030104 
L 209.647665 215.716357 
L 220.580306 198.580647 
L 224.224519 192.560263 
L 227.868733 186.030715 
L 231.512947 178.772401 
L 235.157161 170.691684 
L 238.801374 161.856941 
L 244.267695 147.642085 
L 255.200336 118.73133 
L 258.84455 109.682962 
L 262.488763 101.191685 
L 266.132977 93.324894 
L 269.777191 86.026446 
L 275.243511 75.796995 
L 280.709832 66.141984 
L 284.354046 60.249046 
L 286.176152 57.597582 
L 287.998259 55.212893 
L 289.820366 53.142415 
L 291.642473 51.422967 
L 293.46458 50.076664 
L 295.286687 49.108485 
L 297.108794 48.505666 
L 298.9309 48.238892 
L 300.753007 48.265106 
L 302.575114 48.531646 
L 304.397221 48.981296 
L 308.041435 50.211084 
L 315.329862 53.040179 
L 318.974076 54.630744 
L 320.796183 55.573277 
L 322.618289 56.67123 
L 324.440396 57.966058 
L 326.262503 59.493647 
L 328.08461 61.282018 
L 329.906717 63.350339 
L 331.728824 65.709045 
L 333.550931 68.36067 
L 335.373037 71.300923 
L 337.195144 74.519579 
L 339.017251 78.000908 
L 342.661465 85.660756 
L 346.305679 94.040454 
L 359.060426 124.39048 
L 364.526747 136.339014 
L 379.103602 167.519233 
L 384.569922 179.010096 
L 388.214136 185.984775 
L 390.036243 189.167121 
L 391.85835 192.12055 
L 393.680457 194.838509 
L 395.502563 197.323784 
L 397.32467 199.586533 
L 399.146777 201.641646 
L 400.968884 203.505954 
L 402.790991 205.195803 
L 404.613098 206.725356 
L 406.435205 208.105824 
L 410.079418 210.451148 
L 413.723632 212.282997 
L 417.367846 213.65963 
L 421.012059 214.66899 
L 424.656273 215.422742 
L 431.944701 216.592024 
L 437.411021 217.502047 
L 441.055235 218.274262 
L 444.699448 219.299414 
L 448.343662 220.691462 
L 451.987876 222.538569 
L 455.63209 224.870571 
L 459.276303 227.652015 
L 462.920517 230.808815 
L 466.564731 234.271185 
L 470.208944 238.000423 
L 473.853158 241.976301 
L 481.141586 250.403295 
L 484.785799 254.530638 
L 488.430013 258.291053 
L 490.25212 259.964722 
L 492.074227 261.473893 
L 492.074227 261.473893 
" clip-path="url(#p728feb435c)" style="fill: none; stroke: #4ab31a; stroke-width: 3; stroke-linecap: round"/>
   </g>
   <g id="patch_49">
    <path d="M 111.345 268.38 
L 111.345 25.92 
" style="fill: none; stroke: #ffffff; stroke-width: 2.5; stroke-linejoin: miter; stroke-linecap: square"/>
   </g>
   <g id="patch_50">
    <path d="M 510.20419 268.38 
L 510.20419 25.92 
" style="fill: none; stroke: #ffffff; stroke-width: 2.5; stroke-linejoin: miter; stroke-linecap: square"/>
   </g>
   <g id="patch_51">
    <path d="M 111.345 268.38 
L 510.20419 268.38 
" style="fill: none; stroke: #ffffff; stroke-width: 2.5; stroke-linejoin: miter; stroke-linecap: square"/>
   </g>
   <g id="patch_52">
    <path d="M 111.345 25.92 
L 510.20419 25.92 
" style="fill: none; stroke: #ffffff; stroke-width: 2.5; stroke-linejoin: miter; stroke-linecap: square"/>
   </g>
  </g>
  <g id="axes_2">
   <g id="patch_53">
    <path d="M 635.065726 268.38 
L 1033.924916 268.38 
L 1033.924916 25.92 
L 635.065726 25.92 
z
" style="fill: #eaeaf2"/>
   </g>
   <g id="matplotlib.axis_3">
    <g id="xtick_7">
     <g id="line2d_11">
      <path d="M 653.195689 268.38 
L 653.195689 25.92 
" clip-path="url(#pb31c311de4)" style="fill: none; stroke: #ffffff; stroke-width: 2; stroke-linecap: round"/>
     </g>
     <g id="text_12">
      <!-- 0.0 -->
      <g style="fill: #262626" transform="translate(635.702252 300.596563) scale(0.22 -0.22)">
       <use xlink:href="#DejaVuSans-30"/>
       <use xlink:href="#DejaVuSans-2e" transform="translate(63.623047 0)"/>
       <use xlink:href="#DejaVuSans-30" transform="translate(95.410156 0)"/>
      </g>
     </g>
    </g>
    <g id="xtick_8">
     <g id="line2d_12">
      <path d="M 728.448861 268.38 
L 728.448861 25.92 
" clip-path="url(#pb31c311de4)" style="fill: none; stroke: #ffffff; stroke-width: 2; stroke-linecap: round"/>
     </g>
     <g id="text_13">
      <!-- 0.2 -->
      <g style="fill: #262626" transform="translate(710.955423 300.596563) scale(0.22 -0.22)">
       <use xlink:href="#DejaVuSans-30"/>
       <use xlink:href="#DejaVuSans-2e" transform="translate(63.623047 0)"/>
       <use xlink:href="#DejaVuSans-32" transform="translate(95.410156 0)"/>
      </g>
     </g>
    </g>
    <g id="xtick_9">
     <g id="line2d_13">
      <path d="M 803.702032 268.38 
L 803.702032 25.92 
" clip-path="url(#pb31c311de4)" style="fill: none; stroke: #ffffff; stroke-width: 2; stroke-linecap: round"/>
     </g>
     <g id="text_14">
      <!-- 0.4 -->
      <g style="fill: #262626" transform="translate(786.208594 300.596563) scale(0.22 -0.22)">
       <use xlink:href="#DejaVuSans-30"/>
       <use xlink:href="#DejaVuSans-2e" transform="translate(63.623047 0)"/>
       <use xlink:href="#DejaVuSans-34" transform="translate(95.410156 0)"/>
      </g>
     </g>
    </g>
    <g id="xtick_10">
     <g id="line2d_14">
      <path d="M 878.955203 268.38 
L 878.955203 25.92 
" clip-path="url(#pb31c311de4)" style="fill: none; stroke: #ffffff; stroke-width: 2; stroke-linecap: round"/>
     </g>
     <g id="text_15">
      <!-- 0.6 -->
      <g style="fill: #262626" transform="translate(861.461766 300.596563) scale(0.22 -0.22)">
       <use xlink:href="#DejaVuSans-30"/>
       <use xlink:href="#DejaVuSans-2e" transform="translate(63.623047 0)"/>
       <use xlink:href="#DejaVuSans-36" transform="translate(95.410156 0)"/>
      </g>
     </g>
    </g>
    <g id="xtick_11">
     <g id="line2d_15">
      <path d="M 954.208374 268.38 
L 954.208374 25.92 
" clip-path="url(#pb31c311de4)" style="fill: none; stroke: #ffffff; stroke-width: 2; stroke-linecap: round"/>
     </g>
     <g id="text_16">
      <!-- 0.8 -->
      <g style="fill: #262626" transform="translate(936.714937 300.596563) scale(0.22 -0.22)">
       <use xlink:href="#DejaVuSans-30"/>
       <use xlink:href="#DejaVuSans-2e" transform="translate(63.623047 0)"/>
       <use xlink:href="#DejaVuSans-38" transform="translate(95.410156 0)"/>
      </g>
     </g>
    </g>
    <g id="xtick_12">
     <g id="line2d_16">
      <path d="M 1029.461546 268.38 
L 1029.461546 25.92 
" clip-path="url(#pb31c311de4)" style="fill: none; stroke: #ffffff; stroke-width: 2; stroke-linecap: round"/>
     </g>
     <g id="text_17">
      <!-- 1.0 -->
      <g style="fill: #262626" transform="translate(1011.968108 300.596563) scale(0.22 -0.22)">
       <use xlink:href="#DejaVuSans-31"/>
       <use xlink:href="#DejaVuSans-2e" transform="translate(63.623047 0)"/>
       <use xlink:href="#DejaVuSans-30" transform="translate(95.410156 0)"/>
      </g>
     </g>
    </g>
    <g id="text_18">
     <!-- lrp -->
     <g style="fill: #262626" transform="translate(818.610321 327.408125) scale(0.24 -0.24)">
      <defs>
       <path id="DejaVuSans-6c" d="M 603 4863 
L 1178 4863 
L 1178 0 
L 603 0 
L 603 4863 
z
" transform="scale(0.015625)"/>
       <path id="DejaVuSans-72" d="M 2631 2963 
Q 2534 3019 2420 3045 
Q 2306 3072 2169 3072 
Q 1681 3072 1420 2755 
Q 1159 2438 1159 1844 
L 1159 0 
L 581 0 
L 581 3500 
L 1159 3500 
L 1159 2956 
Q 1341 3275 1631 3429 
Q 1922 3584 2338 3584 
Q 2397 3584 2469 3576 
Q 2541 3569 2628 3553 
L 2631 2963 
z
" transform="scale(0.015625)"/>
       <path id="DejaVuSans-70" d="M 1159 525 
L 1159 -1331 
L 581 -1331 
L 581 3500 
L 1159 3500 
L 1159 2969 
Q 1341 3281 1617 3432 
Q 1894 3584 2278 3584 
Q 2916 3584 3314 3078 
Q 3713 2572 3713 1747 
Q 3713 922 3314 415 
Q 2916 -91 2278 -91 
Q 1894 -91 1617 61 
Q 1341 213 1159 525 
z
M 3116 1747 
Q 3116 2381 2855 2742 
Q 2594 3103 2138 3103 
Q 1681 3103 1420 2742 
Q 1159 2381 1159 1747 
Q 1159 1113 1420 752 
Q 1681 391 2138 391 
Q 2594 391 2855 752 
Q 3116 1113 3116 1747 
z
" transform="scale(0.015625)"/>
      </defs>
      <use xlink:href="#DejaVuSans-6c"/>
      <use xlink:href="#DejaVuSans-72" transform="translate(27.783203 0)"/>
      <use xlink:href="#DejaVuSans-70" transform="translate(68.896484 0)"/>
     </g>
    </g>
   </g>
   <g id="matplotlib.axis_4">
    <g id="ytick_4">
     <g id="line2d_17">
      <path d="M 635.065726 268.38 
L 1033.924916 268.38 
" clip-path="url(#pb31c311de4)" style="fill: none; stroke: #ffffff; stroke-width: 2; stroke-linecap: round"/>
     </g>
     <g id="text_19">
      <!-- 0 -->
      <g style="fill: #262626" transform="translate(605.568226 276.738281) scale(0.22 -0.22)">
       <use xlink:href="#DejaVuSans-30"/>
      </g>
     </g>
    </g>
    <g id="ytick_5">
     <g id="line2d_18">
      <path d="M 635.065726 178.878339 
L 1033.924916 178.878339 
" clip-path="url(#pb31c311de4)" style="fill: none; stroke: #ffffff; stroke-width: 2; stroke-linecap: round"/>
     </g>
     <g id="text_20">
      <!-- 200 -->
      <g style="fill: #262626" transform="translate(577.573226 187.23662) scale(0.22 -0.22)">
       <use xlink:href="#DejaVuSans-32"/>
       <use xlink:href="#DejaVuSans-30" transform="translate(63.623047 0)"/>
       <use xlink:href="#DejaVuSans-30" transform="translate(127.246094 0)"/>
      </g>
     </g>
    </g>
    <g id="ytick_6">
     <g id="line2d_19">
      <path d="M 635.065726 89.376678 
L 1033.924916 89.376678 
" clip-path="url(#pb31c311de4)" style="fill: none; stroke: #ffffff; stroke-width: 2; stroke-linecap: round"/>
     </g>
     <g id="text_21">
      <!-- 400 -->
      <g style="fill: #262626" transform="translate(577.573226 97.734959) scale(0.22 -0.22)">
       <use xlink:href="#DejaVuSans-34"/>
       <use xlink:href="#DejaVuSans-30" transform="translate(63.623047 0)"/>
       <use xlink:href="#DejaVuSans-30" transform="translate(127.246094 0)"/>
      </g>
     </g>
    </g>
    <g id="text_22">
     <!-- Count -->
     <g style="fill: #262626" transform="translate(568.581976 182.78625) rotate(-90) scale(0.24 -0.24)">
      <use xlink:href="#DejaVuSans-43"/>
      <use xlink:href="#DejaVuSans-6f" transform="translate(69.824219 0)"/>
      <use xlink:href="#DejaVuSans-75" transform="translate(131.005859 0)"/>
      <use xlink:href="#DejaVuSans-6e" transform="translate(194.384766 0)"/>
      <use xlink:href="#DejaVuSans-74" transform="translate(257.763672 0)"/>
     </g>
    </g>
   </g>
   <g id="patch_54">
    <path d="M 653.195689 268.38 
L 660.595674 268.38 
L 660.595674 177.983322 
L 653.195689 177.983322 
z
" clip-path="url(#pb31c311de4)" style="fill: #4ab31a; fill-opacity: 0.5; stroke: #ffffff; stroke-width: 0.705853; stroke-linejoin: miter"/>
   </g>
   <g id="patch_55">
    <path d="M 660.595674 268.38 
L 667.995659 268.38 
L 667.995659 262.114884 
L 660.595674 262.114884 
z
" clip-path="url(#pb31c311de4)" style="fill: #4ab31a; fill-opacity: 0.5; stroke: #ffffff; stroke-width: 0.705853; stroke-linejoin: miter"/>
   </g>
   <g id="patch_56">
    <path d="M 667.995659 268.38 
L 675.395644 268.38 
L 675.395644 259.877342 
L 667.995659 259.877342 
z
" clip-path="url(#pb31c311de4)" style="fill: #4ab31a; fill-opacity: 0.5; stroke: #ffffff; stroke-width: 0.705853; stroke-linejoin: miter"/>
   </g>
   <g id="patch_57">
    <path d="M 675.395644 268.38 
L 682.795629 268.38 
L 682.795629 253.164718 
L 675.395644 253.164718 
z
" clip-path="url(#pb31c311de4)" style="fill: #4ab31a; fill-opacity: 0.5; stroke: #ffffff; stroke-width: 0.705853; stroke-linejoin: miter"/>
   </g>
   <g id="patch_58">
    <path d="M 682.795629 268.38 
L 690.195614 268.38 
L 690.195614 235.711894 
L 682.795629 235.711894 
z
" clip-path="url(#pb31c311de4)" style="fill: #4ab31a; fill-opacity: 0.5; stroke: #ffffff; stroke-width: 0.705853; stroke-linejoin: miter"/>
   </g>
   <g id="patch_59">
    <path d="M 690.195614 268.38 
L 697.595599 268.38 
L 697.595599 233.474352 
L 690.195614 233.474352 
z
" clip-path="url(#pb31c311de4)" style="fill: #4ab31a; fill-opacity: 0.5; stroke: #ffffff; stroke-width: 0.705853; stroke-linejoin: miter"/>
   </g>
   <g id="patch_60">
    <path d="M 697.595599 268.38 
L 704.995584 268.38 
L 704.995584 206.176346 
L 697.595599 206.176346 
z
" clip-path="url(#pb31c311de4)" style="fill: #4ab31a; fill-opacity: 0.5; stroke: #ffffff; stroke-width: 0.705853; stroke-linejoin: miter"/>
   </g>
   <g id="patch_61">
    <path d="M 704.995584 268.38 
L 712.395569 268.38 
L 712.395569 193.646113 
L 704.995584 193.646113 
z
" clip-path="url(#pb31c311de4)" style="fill: #4ab31a; fill-opacity: 0.5; stroke: #ffffff; stroke-width: 0.705853; stroke-linejoin: miter"/>
   </g>
   <g id="patch_62">
    <path d="M 712.395569 268.38 
L 719.795554 268.38 
L 719.795554 193.198605 
L 712.395569 193.198605 
z
" clip-path="url(#pb31c311de4)" style="fill: #4ab31a; fill-opacity: 0.5; stroke: #ffffff; stroke-width: 0.705853; stroke-linejoin: miter"/>
   </g>
   <g id="patch_63">
    <path d="M 719.795554 268.38 
L 727.195539 268.38 
L 727.195539 155.607907 
L 719.795554 155.607907 
z
" clip-path="url(#pb31c311de4)" style="fill: #4ab31a; fill-opacity: 0.5; stroke: #ffffff; stroke-width: 0.705853; stroke-linejoin: miter"/>
   </g>
   <g id="patch_64">
    <path d="M 727.195539 268.38 
L 734.595524 268.38 
L 734.595524 141.73515 
L 727.195539 141.73515 
z
" clip-path="url(#pb31c311de4)" style="fill: #4ab31a; fill-opacity: 0.5; stroke: #ffffff; stroke-width: 0.705853; stroke-linejoin: miter"/>
   </g>
   <g id="patch_65">
    <path d="M 734.595524 268.38 
L 741.995509 268.38 
L 741.995509 101.90691 
L 734.595524 101.90691 
z
" clip-path="url(#pb31c311de4)" style="fill: #4ab31a; fill-opacity: 0.5; stroke: #ffffff; stroke-width: 0.705853; stroke-linejoin: miter"/>
   </g>
   <g id="patch_66">
    <path d="M 741.995509 268.38 
L 749.395494 268.38 
L 749.395494 99.669369 
L 741.995509 99.669369 
z
" clip-path="url(#pb31c311de4)" style="fill: #4ab31a; fill-opacity: 0.5; stroke: #ffffff; stroke-width: 0.705853; stroke-linejoin: miter"/>
   </g>
   <g id="patch_67">
    <path d="M 749.395494 268.38 
L 756.795479 268.38 
L 756.795479 67.448771 
L 749.395494 67.448771 
z
" clip-path="url(#pb31c311de4)" style="fill: #4ab31a; fill-opacity: 0.5; stroke: #ffffff; stroke-width: 0.705853; stroke-linejoin: miter"/>
   </g>
   <g id="patch_68">
    <path d="M 756.795479 268.38 
L 764.195464 268.38 
L 764.195464 74.608904 
L 756.795479 74.608904 
z
" clip-path="url(#pb31c311de4)" style="fill: #4ab31a; fill-opacity: 0.5; stroke: #ffffff; stroke-width: 0.705853; stroke-linejoin: miter"/>
   </g>
   <g id="patch_69">
    <path d="M 764.195464 268.38 
L 771.595449 268.38 
L 771.595449 57.603588 
L 764.195464 57.603588 
z
" clip-path="url(#pb31c311de4)" style="fill: #4ab31a; fill-opacity: 0.5; stroke: #ffffff; stroke-width: 0.705853; stroke-linejoin: miter"/>
   </g>
   <g id="patch_70">
    <path d="M 771.595449 268.38 
L 778.995434 268.38 
L 778.995434 37.465714 
L 771.595449 37.465714 
z
" clip-path="url(#pb31c311de4)" style="fill: #4ab31a; fill-opacity: 0.5; stroke: #ffffff; stroke-width: 0.705853; stroke-linejoin: miter"/>
   </g>
   <g id="patch_71">
    <path d="M 778.995434 268.38 
L 786.395419 268.38 
L 786.395419 49.548439 
L 778.995434 49.548439 
z
" clip-path="url(#pb31c311de4)" style="fill: #4ab31a; fill-opacity: 0.5; stroke: #ffffff; stroke-width: 0.705853; stroke-linejoin: miter"/>
   </g>
   <g id="patch_72">
    <path d="M 786.395419 268.38 
L 793.795404 268.38 
L 793.795404 65.211229 
L 786.395419 65.211229 
z
" clip-path="url(#pb31c311de4)" style="fill: #4ab31a; fill-opacity: 0.5; stroke: #ffffff; stroke-width: 0.705853; stroke-linejoin: miter"/>
   </g>
   <g id="patch_73">
    <path d="M 793.795404 268.38 
L 801.195389 268.38 
L 801.195389 54.47103 
L 793.795404 54.47103 
z
" clip-path="url(#pb31c311de4)" style="fill: #4ab31a; fill-opacity: 0.5; stroke: #ffffff; stroke-width: 0.705853; stroke-linejoin: miter"/>
   </g>
   <g id="patch_74">
    <path d="M 801.195389 268.38 
L 808.595374 268.38 
L 808.595374 65.658738 
L 801.195389 65.658738 
z
" clip-path="url(#pb31c311de4)" style="fill: #4ab31a; fill-opacity: 0.5; stroke: #ffffff; stroke-width: 0.705853; stroke-linejoin: miter"/>
   </g>
   <g id="patch_75">
    <path d="M 808.595374 268.38 
L 815.995359 268.38 
L 815.995359 66.106246 
L 808.595374 66.106246 
z
" clip-path="url(#pb31c311de4)" style="fill: #4ab31a; fill-opacity: 0.5; stroke: #ffffff; stroke-width: 0.705853; stroke-linejoin: miter"/>
   </g>
   <g id="patch_76">
    <path d="M 815.995359 268.38 
L 823.395344 268.38 
L 823.395344 77.741462 
L 815.995359 77.741462 
z
" clip-path="url(#pb31c311de4)" style="fill: #4ab31a; fill-opacity: 0.5; stroke: #ffffff; stroke-width: 0.705853; stroke-linejoin: miter"/>
   </g>
   <g id="patch_77">
    <path d="M 823.395344 268.38 
L 830.795329 268.38 
L 830.795329 99.22186 
L 823.395344 99.22186 
z
" clip-path="url(#pb31c311de4)" style="fill: #4ab31a; fill-opacity: 0.5; stroke: #ffffff; stroke-width: 0.705853; stroke-linejoin: miter"/>
   </g>
   <g id="patch_78">
    <path d="M 830.795329 268.38 
L 838.195314 268.38 
L 838.195314 126.519867 
L 830.795329 126.519867 
z
" clip-path="url(#pb31c311de4)" style="fill: #4ab31a; fill-opacity: 0.5; stroke: #ffffff; stroke-width: 0.705853; stroke-linejoin: miter"/>
   </g>
   <g id="patch_79">
    <path d="M 838.195314 268.38 
L 845.595298 268.38 
L 845.595298 138.602591 
L 838.195314 138.602591 
z
" clip-path="url(#pb31c311de4)" style="fill: #4ab31a; fill-opacity: 0.5; stroke: #ffffff; stroke-width: 0.705853; stroke-linejoin: miter"/>
   </g>
   <g id="patch_80">
    <path d="M 845.595298 268.38 
L 852.995283 268.38 
L 852.995283 160.530498 
L 845.595298 160.530498 
z
" clip-path="url(#pb31c311de4)" style="fill: #4ab31a; fill-opacity: 0.5; stroke: #ffffff; stroke-width: 0.705853; stroke-linejoin: miter"/>
   </g>
   <g id="patch_81">
    <path d="M 852.995283 268.38 
L 860.395268 268.38 
L 860.395268 157.39794 
L 852.995283 157.39794 
z
" clip-path="url(#pb31c311de4)" style="fill: #4ab31a; fill-opacity: 0.5; stroke: #ffffff; stroke-width: 0.705853; stroke-linejoin: miter"/>
   </g>
   <g id="patch_82">
    <path d="M 860.395268 268.38 
L 867.795253 268.38 
L 867.795253 170.375681 
L 860.395268 170.375681 
z
" clip-path="url(#pb31c311de4)" style="fill: #4ab31a; fill-opacity: 0.5; stroke: #ffffff; stroke-width: 0.705853; stroke-linejoin: miter"/>
   </g>
   <g id="patch_83">
    <path d="M 867.795253 268.38 
L 875.195238 268.38 
L 875.195238 197.673688 
L 867.795253 197.673688 
z
" clip-path="url(#pb31c311de4)" style="fill: #4ab31a; fill-opacity: 0.5; stroke: #ffffff; stroke-width: 0.705853; stroke-linejoin: miter"/>
   </g>
   <g id="patch_84">
    <path d="M 875.195238 268.38 
L 882.595223 268.38 
L 882.595223 207.071362 
L 875.195238 207.071362 
z
" clip-path="url(#pb31c311de4)" style="fill: #4ab31a; fill-opacity: 0.5; stroke: #ffffff; stroke-width: 0.705853; stroke-linejoin: miter"/>
   </g>
   <g id="patch_85">
    <path d="M 882.595223 268.38 
L 889.995208 268.38 
L 889.995208 215.57402 
L 882.595223 215.57402 
z
" clip-path="url(#pb31c311de4)" style="fill: #4ab31a; fill-opacity: 0.5; stroke: #ffffff; stroke-width: 0.705853; stroke-linejoin: miter"/>
   </g>
   <g id="patch_86">
    <path d="M 889.995208 268.38 
L 897.395193 268.38 
L 897.395193 225.866711 
L 889.995208 225.866711 
z
" clip-path="url(#pb31c311de4)" style="fill: #4ab31a; fill-opacity: 0.5; stroke: #ffffff; stroke-width: 0.705853; stroke-linejoin: miter"/>
   </g>
   <g id="patch_87">
    <path d="M 897.395193 268.38 
L 904.795178 268.38 
L 904.795178 223.629169 
L 897.395193 223.629169 
z
" clip-path="url(#pb31c311de4)" style="fill: #4ab31a; fill-opacity: 0.5; stroke: #ffffff; stroke-width: 0.705853; stroke-linejoin: miter"/>
   </g>
   <g id="patch_88">
    <path d="M 904.795178 268.38 
L 912.195163 268.38 
L 912.195163 237.054419 
L 904.795178 237.054419 
z
" clip-path="url(#pb31c311de4)" style="fill: #4ab31a; fill-opacity: 0.5; stroke: #ffffff; stroke-width: 0.705853; stroke-linejoin: miter"/>
   </g>
   <g id="patch_89">
    <path d="M 912.195163 268.38 
L 919.595148 268.38 
L 919.595148 239.739468 
L 912.195163 239.739468 
z
" clip-path="url(#pb31c311de4)" style="fill: #4ab31a; fill-opacity: 0.5; stroke: #ffffff; stroke-width: 0.705853; stroke-linejoin: miter"/>
   </g>
   <g id="patch_90">
    <path d="M 919.595148 268.38 
L 926.995133 268.38 
L 926.995133 240.634485 
L 919.595148 240.634485 
z
" clip-path="url(#pb31c311de4)" style="fill: #4ab31a; fill-opacity: 0.5; stroke: #ffffff; stroke-width: 0.705853; stroke-linejoin: miter"/>
   </g>
   <g id="patch_91">
    <path d="M 926.995133 268.38 
L 934.395118 268.38 
L 934.395118 243.767043 
L 926.995133 243.767043 
z
" clip-path="url(#pb31c311de4)" style="fill: #4ab31a; fill-opacity: 0.5; stroke: #ffffff; stroke-width: 0.705853; stroke-linejoin: miter"/>
   </g>
   <g id="patch_92">
    <path d="M 934.395118 268.38 
L 941.795103 268.38 
L 941.795103 242.424518 
L 934.395118 242.424518 
z
" clip-path="url(#pb31c311de4)" style="fill: #4ab31a; fill-opacity: 0.5; stroke: #ffffff; stroke-width: 0.705853; stroke-linejoin: miter"/>
   </g>
   <g id="patch_93">
    <path d="M 941.795103 268.38 
L 949.195088 268.38 
L 949.195088 250.032159 
L 941.795103 250.032159 
z
" clip-path="url(#pb31c311de4)" style="fill: #4ab31a; fill-opacity: 0.5; stroke: #ffffff; stroke-width: 0.705853; stroke-linejoin: miter"/>
   </g>
   <g id="patch_94">
    <path d="M 949.195088 268.38 
L 956.595073 268.38 
L 956.595073 250.927176 
L 949.195088 250.927176 
z
" clip-path="url(#pb31c311de4)" style="fill: #4ab31a; fill-opacity: 0.5; stroke: #ffffff; stroke-width: 0.705853; stroke-linejoin: miter"/>
   </g>
   <g id="patch_95">
    <path d="M 956.595073 268.38 
L 963.995058 268.38 
L 963.995058 249.137143 
L 956.595073 249.137143 
z
" clip-path="url(#pb31c311de4)" style="fill: #4ab31a; fill-opacity: 0.5; stroke: #ffffff; stroke-width: 0.705853; stroke-linejoin: miter"/>
   </g>
   <g id="patch_96">
    <path d="M 963.995058 268.38 
L 971.395043 268.38 
L 971.395043 257.192292 
L 963.995058 257.192292 
z
" clip-path="url(#pb31c311de4)" style="fill: #4ab31a; fill-opacity: 0.5; stroke: #ffffff; stroke-width: 0.705853; stroke-linejoin: miter"/>
   </g>
   <g id="patch_97">
    <path d="M 971.395043 268.38 
L 978.795028 268.38 
L 978.795028 255.849767 
L 971.395043 255.849767 
z
" clip-path="url(#pb31c311de4)" style="fill: #4ab31a; fill-opacity: 0.5; stroke: #ffffff; stroke-width: 0.705853; stroke-linejoin: miter"/>
   </g>
   <g id="patch_98">
    <path d="M 978.795028 268.38 
L 986.195013 268.38 
L 986.195013 252.269701 
L 978.795028 252.269701 
z
" clip-path="url(#pb31c311de4)" style="fill: #4ab31a; fill-opacity: 0.5; stroke: #ffffff; stroke-width: 0.705853; stroke-linejoin: miter"/>
   </g>
   <g id="patch_99">
    <path d="M 986.195013 268.38 
L 993.594998 268.38 
L 993.594998 258.534817 
L 986.195013 258.534817 
z
" clip-path="url(#pb31c311de4)" style="fill: #4ab31a; fill-opacity: 0.5; stroke: #ffffff; stroke-width: 0.705853; stroke-linejoin: miter"/>
   </g>
   <g id="patch_100">
    <path d="M 993.594998 268.38 
L 1000.994983 268.38 
L 1000.994983 262.562392 
L 993.594998 262.562392 
z
" clip-path="url(#pb31c311de4)" style="fill: #4ab31a; fill-opacity: 0.5; stroke: #ffffff; stroke-width: 0.705853; stroke-linejoin: miter"/>
   </g>
   <g id="patch_101">
    <path d="M 1000.994983 268.38 
L 1008.394968 268.38 
L 1008.394968 265.247442 
L 1000.994983 265.247442 
z
" clip-path="url(#pb31c311de4)" style="fill: #4ab31a; fill-opacity: 0.5; stroke: #ffffff; stroke-width: 0.705853; stroke-linejoin: miter"/>
   </g>
   <g id="patch_102">
    <path d="M 1008.394968 268.38 
L 1015.794953 268.38 
L 1015.794953 266.589967 
L 1008.394968 266.589967 
z
" clip-path="url(#pb31c311de4)" style="fill: #4ab31a; fill-opacity: 0.5; stroke: #ffffff; stroke-width: 0.705853; stroke-linejoin: miter"/>
   </g>
   <g id="line2d_20">
    <path d="M 653.195689 240.598074 
L 655.017796 240.466391 
L 656.839903 241.042943 
L 658.66201 242.215831 
L 660.484117 243.81609 
L 665.950437 249.13602 
L 667.772544 250.452233 
L 669.594651 251.31376 
L 671.416758 251.655564 
L 673.238865 251.457564 
L 675.060972 250.736134 
L 676.883078 249.533364 
L 678.705185 247.906208 
L 680.527292 245.917056 
L 682.349399 243.626628 
L 684.171506 241.089474 
L 687.815719 235.451969 
L 691.459933 229.282947 
L 696.926254 219.434367 
L 704.214681 205.687886 
L 707.858895 198.438848 
L 711.503109 190.65787 
L 715.147322 182.105222 
L 718.791536 172.655665 
L 722.43575 162.355663 
L 726.079963 151.401732 
L 737.012604 117.667534 
L 740.656818 107.244049 
L 744.301032 97.740322 
L 746.123139 93.401758 
L 747.945246 89.359276 
L 749.767352 85.614341 
L 751.589459 82.155047 
L 755.233673 75.979004 
L 758.877887 70.512012 
L 762.5221 65.43273 
L 766.166314 60.650196 
L 767.988421 58.439666 
L 769.810528 56.425972 
L 771.632635 54.677529 
L 773.454742 53.258657 
L 775.276848 52.218835 
L 777.098955 51.584357 
L 778.921062 51.353865 
L 780.743169 51.498441 
L 782.565276 51.966027 
L 784.387383 52.689136 
L 788.031596 54.611511 
L 802.608451 63.289626 
L 804.430558 64.597221 
L 806.252665 66.062938 
L 808.074772 67.726265 
L 809.896879 69.626048 
L 811.718985 71.798928 
L 813.541092 74.276974 
L 815.363199 77.084621 
L 817.185306 80.235342 
L 819.007413 83.728699 
L 820.82952 87.548462 
L 824.473733 96.023406 
L 828.117947 105.247268 
L 835.406374 123.879209 
L 839.050588 132.419188 
L 842.694802 140.108576 
L 846.339016 146.921007 
L 849.983229 153.023914 
L 859.093764 167.546717 
L 862.737977 173.980993 
L 866.382191 180.932672 
L 873.670618 195.307931 
L 877.314832 201.943531 
L 879.136939 204.978154 
L 880.959046 207.795101 
L 882.781153 210.387567 
L 884.603259 212.759668 
L 886.425366 214.924767 
L 890.06958 218.721064 
L 893.713794 221.986763 
L 899.180114 226.356262 
L 906.468542 231.797121 
L 910.112755 234.309453 
L 913.756969 236.555894 
L 917.401183 238.468207 
L 921.045396 240.04388 
L 924.68961 241.341136 
L 930.155931 242.973274 
L 939.266465 245.596111 
L 961.131747 252.260864 
L 964.775961 253.115665 
L 968.420175 253.808695 
L 981.174923 255.92467 
L 984.819136 256.920252 
L 988.46335 258.165775 
L 995.751777 261.039504 
L 1001.218098 263.122248 
L 1004.862312 264.347759 
L 1008.506525 265.404795 
L 1012.150739 266.27891 
L 1015.794953 266.968408 
L 1015.794953 266.968408 
" clip-path="url(#pb31c311de4)" style="fill: none; stroke: #4ab31a; stroke-width: 3; stroke-linecap: round"/>
   </g>
   <g id="patch_103">
    <path d="M 635.065726 268.38 
L 635.065726 25.92 
" style="fill: none; stroke: #ffffff; stroke-width: 2.5; stroke-linejoin: miter; stroke-linecap: square"/>
   </g>
   <g id="patch_104">
    <path d="M 1033.924916 268.38 
L 1033.924916 25.92 
" style="fill: none; stroke: #ffffff; stroke-width: 2.5; stroke-linejoin: miter; stroke-linecap: square"/>
   </g>
   <g id="patch_105">
    <path d="M 635.065726 268.38 
L 1033.924916 268.38 
" style="fill: none; stroke: #ffffff; stroke-width: 2.5; stroke-linejoin: miter; stroke-linecap: square"/>
   </g>
   <g id="patch_106">
    <path d="M 635.065726 25.92 
L 1033.924916 25.92 
" style="fill: none; stroke: #ffffff; stroke-width: 2.5; stroke-linejoin: miter; stroke-linecap: square"/>
   </g>
  </g>
 </g>
 <defs>
  <clipPath id="p728feb435c">
   <rect x="111.345" y="25.92" width="398.85919" height="242.46"/>
  </clipPath>
  <clipPath id="pb31c311de4">
   <rect x="635.065726" y="25.92" width="398.85919" height="242.46"/>
  </clipPath>
 </defs>
</svg>
