<?xml version="1.0" encoding="utf-8" standalone="no"?>
<!DOCTYPE svg PUBLIC "-//W3C//DTD SVG 1.1//EN"
  "http://www.w3.org/Graphics/SVG/1.1/DTD/svg11.dtd">
<svg xmlns:xlink="http://www.w3.org/1999/xlink" width="1080pt" height="360pt" viewBox="0 0 1080 360" xmlns="http://www.w3.org/2000/svg" version="1.1">
 <metadata>
  <rdf:RDF xmlns:dc="http://purl.org/dc/elements/1.1/" xmlns:cc="http://creativecommons.org/ns#" xmlns:rdf="http://www.w3.org/1999/02/22-rdf-syntax-ns#">
   <cc:Work>
    <dc:type rdf:resource="http://purl.org/dc/dcmitype/StillImage"/>
    <dc:date>2026-02-17T12:31:24.625570</dc:date>
    <dc:format>image/svg+xml</dc:format>
    <dc:creator>
     <cc:Agent>
      <dc:title>Matplotlib v3.10.8, https://matplotlib.org/</dc:title>
     </cc:Agent>
    </dc:creator>
   </cc:Work>
  </rdf:RDF>
 </metadata>
 <defs>
  <style type="text/css">*{stroke-linejoin: round; stroke-linecap: butt}</style>
 </defs>
 <g id="figure_1">
  <g id="patch_1">
   <path d="M 0 360 
L 1080 360 
L 1080 0 
L 0 0 
z
" style="fill: #ffffff"/>
  </g>
  <g id="axes_1">
   <g id="patch_2">
    <path d="M 111.345 268.38 
L 513.196791 268.38 
L 513.196791 25.92 
L 111.345 25.92 
z
" style="fill: #eaeaf2"/>
   </g>
   <g id="matplotlib.axis_1">
    <g id="xtick_1">
     <g id="line2d_1">
      <path d="M 129.61099 268.38 
L 129.61099 25.92 
" clip-path="url(#p7b872398ee)" style="fill: none; stroke: #ffffff; stroke-width: 2; stroke-linecap: round"/>
     </g>
     <g id="text_1">
      <!-- 0.0 -->
      <g style="fill: #262626" transform="translate(112.117553 300.596563) scale(0.22 -0.22)">
       <defs>
        <path id="DejaVuSans-30" d="M 2034 4250 
Q 1547 4250 1301 3770 
Q 1056 3291 1056 2328 
Q 1056 1369 1301 889 
Q 1547 409 2034 409 
Q 2525 409 2770 889 
Q 3016 1369 3016 2328 
Q 3016 3291 2770 3770 
Q 2525 4250 2034 4250 
z
M 2034 4750 
Q 2819 4750 3233 4129 
Q 3647 3509 3647 2328 
Q 3647 1150 3233 529 
Q 2819 -91 2034 -91 
Q 1250 -91 836 529 
Q 422 1150 422 2328 
Q 422 3509 836 4129 
Q 1250 4750 2034 4750 
z
" transform="scale(0.015625)"/>
        <path id="DejaVuSans-2e" d="M 684 794 
L 1344 794 
L 1344 0 
L 684 0 
L 684 794 
z
" transform="scale(0.015625)"/>
       </defs>
       <use xlink:href="#DejaVuSans-30"/>
       <use xlink:href="#DejaVuSans-2e" transform="translate(63.623047 0)"/>
       <use xlink:href="#DejaVuSans-30" transform="translate(95.410156 0)"/>
      </g>
     </g>
    </g>
    <g id="xtick_2">
     <g id="line2d_2">
      <path d="M 203.613775 268.38 
L 203.613775 25.92 
" clip-path="url(#p7b872398ee)" style="fill: none; stroke: #ffffff; stroke-width: 2; stroke-linecap: round"/>
     </g>
     <g id="text_2">
      <!-- 0.2 -->
      <g style="fill: #262626" transform="translate(186.120337 300.596563) scale(0.22 -0.22)">
       <defs>
        <path id="DejaVuSans-32" d="M 1228 531 
L 3431 531 
L 3431 0 
L 469 0 
L 469 531 
Q 828 903 1448 1529 
Q 2069 2156 2228 2338 
Q 2531 2678 2651 2914 
Q 2772 3150 2772 3378 
Q 2772 3750 2511 3984 
Q 2250 4219 1831 4219 
Q 1534 4219 1204 4116 
Q 875 4013 500 3803 
L 500 4441 
Q 881 4594 1212 4672 
Q 1544 4750 1819 4750 
Q 2544 4750 2975 4387 
Q 3406 4025 3406 3419 
Q 3406 3131 3298 2873 
Q 3191 2616 2906 2266 
Q 2828 2175 2409 1742 
Q 1991 1309 1228 531 
z
" transform="scale(0.015625)"/>
       </defs>
       <use xlink:href="#DejaVuSans-30"/>
       <use xlink:href="#DejaVuSans-2e" transform="translate(63.623047 0)"/>
       <use xlink:href="#DejaVuSans-32" transform="translate(95.410156 0)"/>
      </g>
     </g>
    </g>
    <g id="xtick_3">
     <g id="line2d_3">
      <path d="M 277.616559 268.38 
L 277.616559 25.92 
" clip-path="url(#p7b872398ee)" style="fill: none; stroke: #ffffff; stroke-width: 2; stroke-linecap: round"/>
     </g>
     <g id="text_3">
      <!-- 0.4 -->
      <g style="fill: #262626" transform="translate(260.123122 300.596563) scale(0.22 -0.22)">
       <defs>
        <path id="DejaVuSans-34" d="M 2419 4116 
L 825 1625 
L 2419 1625 
L 2419 4116 
z
M 2253 4666 
L 3047 4666 
L 3047 1625 
L 3713 1625 
L 3713 1100 
L 3047 1100 
L 3047 0 
L 2419 0 
L 2419 1100 
L 313 1100 
L 313 1709 
L 2253 4666 
z
" transform="scale(0.015625)"/>
       </defs>
       <use xlink:href="#DejaVuSans-30"/>
       <use xlink:href="#DejaVuSans-2e" transform="translate(63.623047 0)"/>
       <use xlink:href="#DejaVuSans-34" transform="translate(95.410156 0)"/>
      </g>
     </g>
    </g>
    <g id="xtick_4">
     <g id="line2d_4">
      <path d="M 351.619344 268.38 
L 351.619344 25.92 
" clip-path="url(#p7b872398ee)" style="fill: none; stroke: #ffffff; stroke-width: 2; stroke-linecap: round"/>
     </g>
     <g id="text_4">
      <!-- 0.6 -->
      <g style="fill: #262626" transform="translate(334.125906 300.596563) scale(0.22 -0.22)">
       <defs>
        <path id="DejaVuSans-36" d="M 2113 2584 
Q 1688 2584 1439 2293 
Q 1191 2003 1191 1497 
Q 1191 994 1439 701 
Q 1688 409 2113 409 
Q 2538 409 2786 701 
Q 3034 994 3034 1497 
Q 3034 2003 2786 2293 
Q 2538 2584 2113 2584 
z
M 3366 4563 
L 3366 3988 
Q 3128 4100 2886 4159 
Q 2644 4219 2406 4219 
Q 1781 4219 1451 3797 
Q 1122 3375 1075 2522 
Q 1259 2794 1537 2939 
Q 1816 3084 2150 3084 
Q 2853 3084 3261 2657 
Q 3669 2231 3669 1497 
Q 3669 778 3244 343 
Q 2819 -91 2113 -91 
Q 1303 -91 875 529 
Q 447 1150 447 2328 
Q 447 3434 972 4092 
Q 1497 4750 2381 4750 
Q 2619 4750 2861 4703 
Q 3103 4656 3366 4563 
z
" transform="scale(0.015625)"/>
       </defs>
       <use xlink:href="#DejaVuSans-30"/>
       <use xlink:href="#DejaVuSans-2e" transform="translate(63.623047 0)"/>
       <use xlink:href="#DejaVuSans-36" transform="translate(95.410156 0)"/>
      </g>
     </g>
    </g>
    <g id="xtick_5">
     <g id="line2d_5">
      <path d="M 425.622128 268.38 
L 425.622128 25.92 
" clip-path="url(#p7b872398ee)" style="fill: none; stroke: #ffffff; stroke-width: 2; stroke-linecap: round"/>
     </g>
     <g id="text_5">
      <!-- 0.8 -->
      <g style="fill: #262626" transform="translate(408.12869 300.596563) scale(0.22 -0.22)">
       <defs>
        <path id="DejaVuSans-38" d="M 2034 2216 
Q 1584 2216 1326 1975 
Q 1069 1734 1069 1313 
Q 1069 891 1326 650 
Q 1584 409 2034 409 
Q 2484 409 2743 651 
Q 3003 894 3003 1313 
Q 3003 1734 2745 1975 
Q 2488 2216 2034 2216 
z
M 1403 2484 
Q 997 2584 770 2862 
Q 544 3141 544 3541 
Q 544 4100 942 4425 
Q 1341 4750 2034 4750 
Q 2731 4750 3128 4425 
Q 3525 4100 3525 3541 
Q 3525 3141 3298 2862 
Q 3072 2584 2669 2484 
Q 3125 2378 3379 2068 
Q 3634 1759 3634 1313 
Q 3634 634 3220 271 
Q 2806 -91 2034 -91 
Q 1263 -91 848 271 
Q 434 634 434 1313 
Q 434 1759 690 2068 
Q 947 2378 1403 2484 
z
M 1172 3481 
Q 1172 3119 1398 2916 
Q 1625 2713 2034 2713 
Q 2441 2713 2670 2916 
Q 2900 3119 2900 3481 
Q 2900 3844 2670 4047 
Q 2441 4250 2034 4250 
Q 1625 4250 1398 4047 
Q 1172 3844 1172 3481 
z
" transform="scale(0.015625)"/>
       </defs>
       <use xlink:href="#DejaVuSans-30"/>
       <use xlink:href="#DejaVuSans-2e" transform="translate(63.623047 0)"/>
       <use xlink:href="#DejaVuSans-38" transform="translate(95.410156 0)"/>
      </g>
     </g>
    </g>
    <g id="xtick_6">
     <g id="line2d_6">
      <path d="M 499.624912 268.38 
L 499.624912 25.92 
" clip-path="url(#p7b872398ee)" style="fill: none; stroke: #ffffff; stroke-width: 2; stroke-linecap: round"/>
     </g>
     <g id="text_6">
      <!-- 1.0 -->
      <g style="fill: #262626" transform="translate(482.131475 300.596563) scale(0.22 -0.22)">
       <defs>
        <path id="DejaVuSans-31" d="M 794 531 
L 1825 531 
L 1825 4091 
L 703 3866 
L 703 4441 
L 1819 4666 
L 2450 4666 
L 2450 531 
L 3481 531 
L 3481 0 
L 794 0 
L 794 531 
z
" transform="scale(0.015625)"/>
       </defs>
       <use xlink:href="#DejaVuSans-31"/>
       <use xlink:href="#DejaVuSans-2e" transform="translate(63.623047 0)"/>
       <use xlink:href="#DejaVuSans-30" transform="translate(95.410156 0)"/>
      </g>
     </g>
    </g>
    <g id="text_7">
     <!-- iou -->
     <g style="fill: #262626" transform="translate(293.989645 327.408125) scale(0.24 -0.24)">
      <defs>
       <path id="DejaVuSans-69" d="M 603 3500 
L 1178 3500 
L 1178 0 
L 603 0 
L 603 3500 
z
M 603 4863 
L 1178 4863 
L 1178 4134 
L 603 4134 
L 603 4863 
z
" transform="scale(0.015625)"/>
       <path id="DejaVuSans-6f" d="M 1959 3097 
Q 1497 3097 1228 2736 
Q 959 2375 959 1747 
Q 959 1119 1226 758 
Q 1494 397 1959 397 
Q 2419 397 2687 759 
Q 2956 1122 2956 1747 
Q 2956 2369 2687 2733 
Q 2419 3097 1959 3097 
z
M 1959 3584 
Q 2709 3584 3137 3096 
Q 3566 2609 3566 1747 
Q 3566 888 3137 398 
Q 2709 -91 1959 -91 
Q 1206 -91 779 398 
Q 353 888 353 1747 
Q 353 2609 779 3096 
Q 1206 3584 1959 3584 
z
" transform="scale(0.015625)"/>
       <path id="DejaVuSans-75" d="M 544 1381 
L 544 3500 
L 1119 3500 
L 1119 1403 
Q 1119 906 1312 657 
Q 1506 409 1894 409 
Q 2359 409 2629 706 
Q 2900 1003 2900 1516 
L 2900 3500 
L 3475 3500 
L 3475 0 
L 2900 0 
L 2900 538 
Q 2691 219 2414 64 
Q 2138 -91 1772 -91 
Q 1169 -91 856 284 
Q 544 659 544 1381 
z
M 1991 3584 
L 1991 3584 
z
" transform="scale(0.015625)"/>
      </defs>
      <use xlink:href="#DejaVuSans-69"/>
      <use xlink:href="#DejaVuSans-6f" transform="translate(27.783203 0)"/>
      <use xlink:href="#DejaVuSans-75" transform="translate(88.964844 0)"/>
     </g>
    </g>
   </g>
   <g id="matplotlib.axis_2">
    <g id="ytick_1">
     <g id="line2d_7">
      <path d="M 111.345 268.38 
L 513.196791 268.38 
" clip-path="url(#p7b872398ee)" style="fill: none; stroke: #ffffff; stroke-width: 2; stroke-linecap: round"/>
     </g>
     <g id="text_8">
      <!-- 0 -->
      <g style="fill: #262626" transform="translate(81.8475 276.738281) scale(0.22 -0.22)">
       <use xlink:href="#DejaVuSans-30"/>
      </g>
     </g>
    </g>
    <g id="ytick_2">
     <g id="line2d_8">
      <path d="M 111.345 178.179107 
L 513.196791 178.179107 
" clip-path="url(#p7b872398ee)" style="fill: none; stroke: #ffffff; stroke-width: 2; stroke-linecap: round"/>
     </g>
     <g id="text_9">
      <!-- 200 -->
      <g style="fill: #262626" transform="translate(53.8525 186.537388) scale(0.22 -0.22)">
       <use xlink:href="#DejaVuSans-32"/>
       <use xlink:href="#DejaVuSans-30" transform="translate(63.623047 0)"/>
       <use xlink:href="#DejaVuSans-30" transform="translate(127.246094 0)"/>
      </g>
     </g>
    </g>
    <g id="ytick_3">
     <g id="line2d_9">
      <path d="M 111.345 87.978214 
L 513.196791 87.978214 
" clip-path="url(#p7b872398ee)" style="fill: none; stroke: #ffffff; stroke-width: 2; stroke-linecap: round"/>
     </g>
     <g id="text_10">
      <!-- 400 -->
      <g style="fill: #262626" transform="translate(53.8525 96.336496) scale(0.22 -0.22)">
       <use xlink:href="#DejaVuSans-34"/>
       <use xlink:href="#DejaVuSans-30" transform="translate(63.623047 0)"/>
       <use xlink:href="#DejaVuSans-30" transform="translate(127.246094 0)"/>
      </g>
     </g>
    </g>
    <g id="text_11">
     <!-- Count -->
     <g style="fill: #262626" transform="translate(44.86125 182.78625) rotate(-90) scale(0.24 -0.24)">
      <defs>
       <path id="DejaVuSans-43" d="M 4122 4306 
L 4122 3641 
Q 3803 3938 3442 4084 
Q 3081 4231 2675 4231 
Q 1875 4231 1450 3742 
Q 1025 3253 1025 2328 
Q 1025 1406 1450 917 
Q 1875 428 2675 428 
Q 3081 428 3442 575 
Q 3803 722 4122 1019 
L 4122 359 
Q 3791 134 3420 21 
Q 3050 -91 2638 -91 
Q 1578 -91 968 557 
Q 359 1206 359 2328 
Q 359 3453 968 4101 
Q 1578 4750 2638 4750 
Q 3056 4750 3426 4639 
Q 3797 4528 4122 4306 
z
" transform="scale(0.015625)"/>
       <path id="DejaVuSans-6e" d="M 3513 2113 
L 3513 0 
L 2938 0 
L 2938 2094 
Q 2938 2591 2744 2837 
Q 2550 3084 2163 3084 
Q 1697 3084 1428 2787 
Q 1159 2491 1159 1978 
L 1159 0 
L 581 0 
L 581 3500 
L 1159 3500 
L 1159 2956 
Q 1366 3272 1645 3428 
Q 1925 3584 2291 3584 
Q 2894 3584 3203 3211 
Q 3513 2838 3513 2113 
z
" transform="scale(0.015625)"/>
       <path id="DejaVuSans-74" d="M 1172 4494 
L 1172 3500 
L 2356 3500 
L 2356 3053 
L 1172 3053 
L 1172 1153 
Q 1172 725 1289 603 
Q 1406 481 1766 481 
L 2356 481 
L 2356 0 
L 1766 0 
Q 1100 0 847 248 
Q 594 497 594 1153 
L 594 3053 
L 172 3053 
L 172 3500 
L 594 3500 
L 594 4494 
L 1172 4494 
z
" transform="scale(0.015625)"/>
      </defs>
      <use xlink:href="#DejaVuSans-43"/>
      <use xlink:href="#DejaVuSans-6f" transform="translate(69.824219 0)"/>
      <use xlink:href="#DejaVuSans-75" transform="translate(131.005859 0)"/>
      <use xlink:href="#DejaVuSans-6e" transform="translate(194.384766 0)"/>
      <use xlink:href="#DejaVuSans-74" transform="translate(257.763672 0)"/>
     </g>
    </g>
   </g>
   <g id="patch_3">
    <path d="M 129.61099 268.38 
L 137.913713 268.38 
L 137.913713 139.843728 
L 129.61099 139.843728 
z
" clip-path="url(#p7b872398ee)" style="fill: #4ab31a; fill-opacity: 0.5; stroke: #ffffff; stroke-width: 0.786063; stroke-linejoin: miter"/>
   </g>
   <g id="patch_4">
    <path d="M 137.913713 268.38 
L 146.216436 268.38 
L 146.216436 265.222969 
L 137.913713 265.222969 
z
" clip-path="url(#p7b872398ee)" style="fill: #4ab31a; fill-opacity: 0.5; stroke: #ffffff; stroke-width: 0.786063; stroke-linejoin: miter"/>
   </g>
   <g id="patch_5">
    <path d="M 146.216436 268.38 
L 154.519159 268.38 
L 154.519159 255.751875 
L 146.216436 255.751875 
z
" clip-path="url(#p7b872398ee)" style="fill: #4ab31a; fill-opacity: 0.5; stroke: #ffffff; stroke-width: 0.786063; stroke-linejoin: miter"/>
   </g>
   <g id="patch_6">
    <path d="M 154.519159 268.38 
L 162.821882 268.38 
L 162.821882 257.104888 
L 154.519159 257.104888 
z
" clip-path="url(#p7b872398ee)" style="fill: #4ab31a; fill-opacity: 0.5; stroke: #ffffff; stroke-width: 0.786063; stroke-linejoin: miter"/>
   </g>
   <g id="patch_7">
    <path d="M 162.821882 268.38 
L 171.124605 268.38 
L 171.124605 244.025759 
L 162.821882 244.025759 
z
" clip-path="url(#p7b872398ee)" style="fill: #4ab31a; fill-opacity: 0.5; stroke: #ffffff; stroke-width: 0.786063; stroke-linejoin: miter"/>
   </g>
   <g id="patch_8">
    <path d="M 171.124605 268.38 
L 179.427328 268.38 
L 179.427328 229.593616 
L 171.124605 229.593616 
z
" clip-path="url(#p7b872398ee)" style="fill: #4ab31a; fill-opacity: 0.5; stroke: #ffffff; stroke-width: 0.786063; stroke-linejoin: miter"/>
   </g>
   <g id="patch_9">
    <path d="M 179.427328 268.38 
L 187.730051 268.38 
L 187.730051 227.338594 
L 179.427328 227.338594 
z
" clip-path="url(#p7b872398ee)" style="fill: #4ab31a; fill-opacity: 0.5; stroke: #ffffff; stroke-width: 0.786063; stroke-linejoin: miter"/>
   </g>
   <g id="patch_10">
    <path d="M 187.730051 268.38 
L 196.032774 268.38 
L 196.032774 206.141384 
L 187.730051 206.141384 
z
" clip-path="url(#p7b872398ee)" style="fill: #4ab31a; fill-opacity: 0.5; stroke: #ffffff; stroke-width: 0.786063; stroke-linejoin: miter"/>
   </g>
   <g id="patch_11">
    <path d="M 196.032774 268.38 
L 204.335497 268.38 
L 204.335497 193.964263 
L 196.032774 193.964263 
z
" clip-path="url(#p7b872398ee)" style="fill: #4ab31a; fill-opacity: 0.5; stroke: #ffffff; stroke-width: 0.786063; stroke-linejoin: miter"/>
   </g>
   <g id="patch_12">
    <path d="M 204.335497 268.38 
L 212.63822 268.38 
L 212.63822 171.865045 
L 204.335497 171.865045 
z
" clip-path="url(#p7b872398ee)" style="fill: #4ab31a; fill-opacity: 0.5; stroke: #ffffff; stroke-width: 0.786063; stroke-linejoin: miter"/>
   </g>
   <g id="patch_13">
    <path d="M 212.63822 268.38 
L 220.940943 268.38 
L 220.940943 148.863817 
L 212.63822 148.863817 
z
" clip-path="url(#p7b872398ee)" style="fill: #4ab31a; fill-opacity: 0.5; stroke: #ffffff; stroke-width: 0.786063; stroke-linejoin: miter"/>
   </g>
   <g id="patch_14">
    <path d="M 220.940943 268.38 
L 229.243666 268.38 
L 229.243666 140.745737 
L 220.940943 140.745737 
z
" clip-path="url(#p7b872398ee)" style="fill: #4ab31a; fill-opacity: 0.5; stroke: #ffffff; stroke-width: 0.786063; stroke-linejoin: miter"/>
   </g>
   <g id="patch_15">
    <path d="M 229.243666 268.38 
L 237.546389 268.38 
L 237.546389 116.8425 
L 229.243666 116.8425 
z
" clip-path="url(#p7b872398ee)" style="fill: #4ab31a; fill-opacity: 0.5; stroke: #ffffff; stroke-width: 0.786063; stroke-linejoin: miter"/>
   </g>
   <g id="patch_16">
    <path d="M 237.546389 268.38 
L 245.849112 268.38 
L 245.849112 98.802321 
L 237.546389 98.802321 
z
" clip-path="url(#p7b872398ee)" style="fill: #4ab31a; fill-opacity: 0.5; stroke: #ffffff; stroke-width: 0.786063; stroke-linejoin: miter"/>
   </g>
   <g id="patch_17">
    <path d="M 245.849112 268.38 
L 254.151835 268.38 
L 254.151835 78.958125 
L 245.849112 78.958125 
z
" clip-path="url(#p7b872398ee)" style="fill: #4ab31a; fill-opacity: 0.5; stroke: #ffffff; stroke-width: 0.786063; stroke-linejoin: miter"/>
   </g>
   <g id="patch_18">
    <path d="M 254.151835 268.38 
L 262.454558 268.38 
L 262.454558 58.662924 
L 254.151835 58.662924 
z
" clip-path="url(#p7b872398ee)" style="fill: #4ab31a; fill-opacity: 0.5; stroke: #ffffff; stroke-width: 0.786063; stroke-linejoin: miter"/>
   </g>
   <g id="patch_19">
    <path d="M 262.454558 268.38 
L 270.757281 268.38 
L 270.757281 58.662924 
L 262.454558 58.662924 
z
" clip-path="url(#p7b872398ee)" style="fill: #4ab31a; fill-opacity: 0.5; stroke: #ffffff; stroke-width: 0.786063; stroke-linejoin: miter"/>
   </g>
   <g id="patch_20">
    <path d="M 270.757281 268.38 
L 279.060004 268.38 
L 279.060004 57.760915 
L 270.757281 57.760915 
z
" clip-path="url(#p7b872398ee)" style="fill: #4ab31a; fill-opacity: 0.5; stroke: #ffffff; stroke-width: 0.786063; stroke-linejoin: miter"/>
   </g>
   <g id="patch_21">
    <path d="M 279.060004 268.38 
L 287.362727 268.38 
L 287.362727 37.465714 
L 279.060004 37.465714 
z
" clip-path="url(#p7b872398ee)" style="fill: #4ab31a; fill-opacity: 0.5; stroke: #ffffff; stroke-width: 0.786063; stroke-linejoin: miter"/>
   </g>
   <g id="patch_22">
    <path d="M 287.362727 268.38 
L 295.665449 268.38 
L 295.665449 49.642835 
L 287.362727 49.642835 
z
" clip-path="url(#p7b872398ee)" style="fill: #4ab31a; fill-opacity: 0.5; stroke: #ffffff; stroke-width: 0.786063; stroke-linejoin: miter"/>
   </g>
   <g id="patch_23">
    <path d="M 295.665449 268.38 
L 303.968172 268.38 
L 303.968172 46.485804 
L 295.665449 46.485804 
z
" clip-path="url(#p7b872398ee)" style="fill: #4ab31a; fill-opacity: 0.5; stroke: #ffffff; stroke-width: 0.786063; stroke-linejoin: miter"/>
   </g>
   <g id="patch_24">
    <path d="M 303.968172 268.38 
L 312.270895 268.38 
L 312.270895 64.976987 
L 303.968172 64.976987 
z
" clip-path="url(#p7b872398ee)" style="fill: #4ab31a; fill-opacity: 0.5; stroke: #ffffff; stroke-width: 0.786063; stroke-linejoin: miter"/>
   </g>
   <g id="patch_25">
    <path d="M 312.270895 268.38 
L 320.573618 268.38 
L 320.573618 75.801094 
L 312.270895 75.801094 
z
" clip-path="url(#p7b872398ee)" style="fill: #4ab31a; fill-opacity: 0.5; stroke: #ffffff; stroke-width: 0.786063; stroke-linejoin: miter"/>
   </g>
   <g id="patch_26">
    <path d="M 320.573618 268.38 
L 328.876341 268.38 
L 328.876341 86.174196 
L 320.573618 86.174196 
z
" clip-path="url(#p7b872398ee)" style="fill: #4ab31a; fill-opacity: 0.5; stroke: #ffffff; stroke-width: 0.786063; stroke-linejoin: miter"/>
   </g>
   <g id="patch_27">
    <path d="M 328.876341 268.38 
L 337.179064 268.38 
L 337.179064 107.822411 
L 328.876341 107.822411 
z
" clip-path="url(#p7b872398ee)" style="fill: #4ab31a; fill-opacity: 0.5; stroke: #ffffff; stroke-width: 0.786063; stroke-linejoin: miter"/>
   </g>
   <g id="patch_28">
    <path d="M 337.179064 268.38 
L 345.481787 268.38 
L 345.481787 128.117612 
L 337.179064 128.117612 
z
" clip-path="url(#p7b872398ee)" style="fill: #4ab31a; fill-opacity: 0.5; stroke: #ffffff; stroke-width: 0.786063; stroke-linejoin: miter"/>
   </g>
   <g id="patch_29">
    <path d="M 345.481787 268.38 
L 353.78451 268.38 
L 353.78451 142.549754 
L 345.481787 142.549754 
z
" clip-path="url(#p7b872398ee)" style="fill: #4ab31a; fill-opacity: 0.5; stroke: #ffffff; stroke-width: 0.786063; stroke-linejoin: miter"/>
   </g>
   <g id="patch_30">
    <path d="M 353.78451 268.38 
L 362.087233 268.38 
L 362.087233 156.079888 
L 353.78451 156.079888 
z
" clip-path="url(#p7b872398ee)" style="fill: #4ab31a; fill-opacity: 0.5; stroke: #ffffff; stroke-width: 0.786063; stroke-linejoin: miter"/>
   </g>
   <g id="patch_31">
    <path d="M 362.087233 268.38 
L 370.389956 268.38 
L 370.389956 183.591161 
L 362.087233 183.591161 
z
" clip-path="url(#p7b872398ee)" style="fill: #4ab31a; fill-opacity: 0.5; stroke: #ffffff; stroke-width: 0.786063; stroke-linejoin: miter"/>
   </g>
   <g id="patch_32">
    <path d="M 370.389956 268.38 
L 378.692679 268.38 
L 378.692679 189.003214 
L 370.389956 189.003214 
z
" clip-path="url(#p7b872398ee)" style="fill: #4ab31a; fill-opacity: 0.5; stroke: #ffffff; stroke-width: 0.786063; stroke-linejoin: miter"/>
   </g>
   <g id="patch_33">
    <path d="M 378.692679 268.38 
L 386.995402 268.38 
L 386.995402 204.337366 
L 378.692679 204.337366 
z
" clip-path="url(#p7b872398ee)" style="fill: #4ab31a; fill-opacity: 0.5; stroke: #ffffff; stroke-width: 0.786063; stroke-linejoin: miter"/>
   </g>
   <g id="patch_34">
    <path d="M 386.995402 268.38 
L 395.298125 268.38 
L 395.298125 216.063482 
L 386.995402 216.063482 
z
" clip-path="url(#p7b872398ee)" style="fill: #4ab31a; fill-opacity: 0.5; stroke: #ffffff; stroke-width: 0.786063; stroke-linejoin: miter"/>
   </g>
   <g id="patch_35">
    <path d="M 395.298125 268.38 
L 403.600848 268.38 
L 403.600848 223.730558 
L 395.298125 223.730558 
z
" clip-path="url(#p7b872398ee)" style="fill: #4ab31a; fill-opacity: 0.5; stroke: #ffffff; stroke-width: 0.786063; stroke-linejoin: miter"/>
   </g>
   <g id="patch_36">
    <path d="M 403.600848 268.38 
L 411.903571 268.38 
L 411.903571 229.593616 
L 403.600848 229.593616 
z
" clip-path="url(#p7b872398ee)" style="fill: #4ab31a; fill-opacity: 0.5; stroke: #ffffff; stroke-width: 0.786063; stroke-linejoin: miter"/>
   </g>
   <g id="patch_37">
    <path d="M 411.903571 268.38 
L 420.206294 268.38 
L 420.206294 225.98558 
L 411.903571 225.98558 
z
" clip-path="url(#p7b872398ee)" style="fill: #4ab31a; fill-opacity: 0.5; stroke: #ffffff; stroke-width: 0.786063; stroke-linejoin: miter"/>
   </g>
   <g id="patch_38">
    <path d="M 420.206294 268.38 
L 428.509017 268.38 
L 428.509017 229.142612 
L 420.206294 229.142612 
z
" clip-path="url(#p7b872398ee)" style="fill: #4ab31a; fill-opacity: 0.5; stroke: #ffffff; stroke-width: 0.786063; stroke-linejoin: miter"/>
   </g>
   <g id="patch_39">
    <path d="M 428.509017 268.38 
L 436.81174 268.38 
L 436.81174 229.593616 
L 428.509017 229.593616 
z
" clip-path="url(#p7b872398ee)" style="fill: #4ab31a; fill-opacity: 0.5; stroke: #ffffff; stroke-width: 0.786063; stroke-linejoin: miter"/>
   </g>
   <g id="patch_40">
    <path d="M 436.81174 268.38 
L 445.114463 268.38 
L 445.114463 225.98558 
L 436.81174 225.98558 
z
" clip-path="url(#p7b872398ee)" style="fill: #4ab31a; fill-opacity: 0.5; stroke: #ffffff; stroke-width: 0.786063; stroke-linejoin: miter"/>
   </g>
   <g id="patch_41">
    <path d="M 445.114463 268.38 
L 453.417185 268.38 
L 453.417185 233.201652 
L 445.114463 233.201652 
z
" clip-path="url(#p7b872398ee)" style="fill: #4ab31a; fill-opacity: 0.5; stroke: #ffffff; stroke-width: 0.786063; stroke-linejoin: miter"/>
   </g>
   <g id="patch_42">
    <path d="M 453.417185 268.38 
L 461.719908 268.38 
L 461.719908 227.338594 
L 453.417185 227.338594 
z
" clip-path="url(#p7b872398ee)" style="fill: #4ab31a; fill-opacity: 0.5; stroke: #ffffff; stroke-width: 0.786063; stroke-linejoin: miter"/>
   </g>
   <g id="patch_43">
    <path d="M 461.719908 268.38 
L 470.022631 268.38 
L 470.022631 239.06471 
L 461.719908 239.06471 
z
" clip-path="url(#p7b872398ee)" style="fill: #4ab31a; fill-opacity: 0.5; stroke: #ffffff; stroke-width: 0.786063; stroke-linejoin: miter"/>
   </g>
   <g id="patch_44">
    <path d="M 470.022631 268.38 
L 478.325354 268.38 
L 478.325354 241.319732 
L 470.022631 241.319732 
z
" clip-path="url(#p7b872398ee)" style="fill: #4ab31a; fill-opacity: 0.5; stroke: #ffffff; stroke-width: 0.786063; stroke-linejoin: miter"/>
   </g>
   <g id="patch_45">
    <path d="M 478.325354 268.38 
L 486.628077 268.38 
L 486.628077 253.496853 
L 478.325354 253.496853 
z
" clip-path="url(#p7b872398ee)" style="fill: #4ab31a; fill-opacity: 0.5; stroke: #ffffff; stroke-width: 0.786063; stroke-linejoin: miter"/>
   </g>
   <g id="patch_46">
    <path d="M 486.628077 268.38 
L 494.9308 268.38 
L 494.9308 257.555893 
L 486.628077 257.555893 
z
" clip-path="url(#p7b872398ee)" style="fill: #4ab31a; fill-opacity: 0.5; stroke: #ffffff; stroke-width: 0.786063; stroke-linejoin: miter"/>
   </g>
   <g id="line2d_10">
    <path d="M 129.61099 230.272351 
L 131.446768 230.283265 
L 133.282546 231.106077 
L 135.118324 232.64334 
L 136.954102 234.74633 
L 140.625658 239.902281 
L 144.297214 245.046022 
L 146.132992 247.208784 
L 147.96877 248.95302 
L 149.804548 250.219237 
L 151.640326 250.984387 
L 153.476104 251.255392 
L 155.311882 251.061383 
L 157.14766 250.446 
L 158.983438 249.460679 
L 160.819215 248.159401 
L 162.654993 246.594923 
L 164.490771 244.816262 
L 168.162327 240.784517 
L 171.833883 236.331882 
L 177.341217 229.154935 
L 181.012773 224.049786 
L 184.684329 218.60569 
L 188.355885 212.741715 
L 192.02744 206.415819 
L 195.698996 199.635437 
L 199.370552 192.442993 
L 204.877886 181.013872 
L 212.220998 164.973552 
L 230.578777 123.924298 
L 245.265001 90.686352 
L 248.936556 83.146986 
L 252.608112 76.350927 
L 254.44389 73.283708 
L 256.279668 70.452813 
L 258.115446 67.861164 
L 259.951224 65.504388 
L 261.787002 63.371345 
L 263.62278 61.44523 
L 265.458558 59.705173 
L 269.130114 56.69171 
L 272.80167 54.163548 
L 276.473226 52.025165 
L 280.144781 50.298341 
L 281.980559 49.629509 
L 283.816337 49.123506 
L 285.652115 48.808753 
L 287.487893 48.713467 
L 289.323671 48.863077 
L 291.159449 49.277897 
L 292.995227 49.971229 
L 294.831005 50.948018 
L 296.666783 52.204151 
L 298.502561 53.726466 
L 300.338339 55.493529 
L 302.174117 57.477196 
L 305.845673 61.962719 
L 309.517228 66.92471 
L 315.024562 74.902716 
L 318.696118 80.575373 
L 322.367674 86.67739 
L 326.03923 93.339136 
L 329.710786 100.582419 
L 335.21812 112.242903 
L 346.232787 135.912144 
L 353.575899 151.049588 
L 360.919011 165.820075 
L 366.426345 176.395568 
L 370.0979 183.007684 
L 373.769456 189.196514 
L 377.441012 194.965281 
L 381.112568 200.343653 
L 384.784124 205.34024 
L 388.45568 209.917031 
L 392.127236 214.003009 
L 395.798792 217.532215 
L 397.63457 219.077152 
L 399.470347 220.47558 
L 401.306125 221.730569 
L 403.141903 222.846913 
L 404.977681 223.830441 
L 408.649237 225.424456 
L 412.320793 226.565173 
L 415.992349 227.311373 
L 419.663905 227.73731 
L 423.335461 227.93883 
L 434.350128 228.329121 
L 438.021684 228.704751 
L 441.69324 229.279318 
L 445.364796 230.04965 
L 449.036352 231.004917 
L 452.707908 232.147097 
L 456.379464 233.498798 
L 460.051019 235.096893 
L 463.722575 236.979245 
L 467.394131 239.172392 
L 471.065687 241.682657 
L 474.737243 244.489314 
L 480.244577 249.129149 
L 489.423466 257.113204 
L 493.095022 259.982178 
L 494.9308 261.27614 
L 494.9308 261.27614 
" clip-path="url(#p7b872398ee)" style="fill: none; stroke: #4ab31a; stroke-width: 3; stroke-linecap: round"/>
   </g>
   <g id="patch_47">
    <path d="M 111.345 268.38 
L 111.345 25.92 
" style="fill: none; stroke: #ffffff; stroke-width: 2.5; stroke-linejoin: miter; stroke-linecap: square"/>
   </g>
   <g id="patch_48">
    <path d="M 513.196791 268.38 
L 513.196791 25.92 
" style="fill: none; stroke: #ffffff; stroke-width: 2.5; stroke-linejoin: miter; stroke-linecap: square"/>
   </g>
   <g id="patch_49">
    <path d="M 111.345 268.38 
L 513.196791 268.38 
" style="fill: none; stroke: #ffffff; stroke-width: 2.5; stroke-linejoin: miter; stroke-linecap: square"/>
   </g>
   <g id="patch_50">
    <path d="M 111.345 25.92 
L 513.196791 25.92 
" style="fill: none; stroke: #ffffff; stroke-width: 2.5; stroke-linejoin: miter; stroke-linecap: square"/>
   </g>
  </g>
  <g id="axes_2">
   <g id="patch_51">
    <path d="M 636.105069 268.38 
L 1037.95686 268.38 
L 1037.95686 25.92 
L 636.105069 25.92 
z
" style="fill: #eaeaf2"/>
   </g>
   <g id="matplotlib.axis_3">
    <g id="xtick_7">
     <g id="line2d_11">
      <path d="M 654.371059 268.38 
L 654.371059 25.92 
" clip-path="url(#p6c74b65262)" style="fill: none; stroke: #ffffff; stroke-width: 2; stroke-linecap: round"/>
     </g>
     <g id="text_12">
      <!-- 0.0 -->
      <g style="fill: #262626" transform="translate(636.877622 300.596563) scale(0.22 -0.22)">
       <use xlink:href="#DejaVuSans-30"/>
       <use xlink:href="#DejaVuSans-2e" transform="translate(63.623047 0)"/>
       <use xlink:href="#DejaVuSans-30" transform="translate(95.410156 0)"/>
      </g>
     </g>
    </g>
    <g id="xtick_8">
     <g id="line2d_12">
      <path d="M 729.337107 268.38 
L 729.337107 25.92 
" clip-path="url(#p6c74b65262)" style="fill: none; stroke: #ffffff; stroke-width: 2; stroke-linecap: round"/>
     </g>
     <g id="text_13">
      <!-- 0.2 -->
      <g style="fill: #262626" transform="translate(711.843669 300.596563) scale(0.22 -0.22)">
       <use xlink:href="#DejaVuSans-30"/>
       <use xlink:href="#DejaVuSans-2e" transform="translate(63.623047 0)"/>
       <use xlink:href="#DejaVuSans-32" transform="translate(95.410156 0)"/>
      </g>
     </g>
    </g>
    <g id="xtick_9">
     <g id="line2d_13">
      <path d="M 804.303154 268.38 
L 804.303154 25.92 
" clip-path="url(#p6c74b65262)" style="fill: none; stroke: #ffffff; stroke-width: 2; stroke-linecap: round"/>
     </g>
     <g id="text_14">
      <!-- 0.4 -->
      <g style="fill: #262626" transform="translate(786.809716 300.596563) scale(0.22 -0.22)">
       <use xlink:href="#DejaVuSans-30"/>
       <use xlink:href="#DejaVuSans-2e" transform="translate(63.623047 0)"/>
       <use xlink:href="#DejaVuSans-34" transform="translate(95.410156 0)"/>
      </g>
     </g>
    </g>
    <g id="xtick_10">
     <g id="line2d_14">
      <path d="M 879.269201 268.38 
L 879.269201 25.92 
" clip-path="url(#p6c74b65262)" style="fill: none; stroke: #ffffff; stroke-width: 2; stroke-linecap: round"/>
     </g>
     <g id="text_15">
      <!-- 0.6 -->
      <g style="fill: #262626" transform="translate(861.775764 300.596563) scale(0.22 -0.22)">
       <use xlink:href="#DejaVuSans-30"/>
       <use xlink:href="#DejaVuSans-2e" transform="translate(63.623047 0)"/>
       <use xlink:href="#DejaVuSans-36" transform="translate(95.410156 0)"/>
      </g>
     </g>
    </g>
    <g id="xtick_11">
     <g id="line2d_15">
      <path d="M 954.235249 268.38 
L 954.235249 25.92 
" clip-path="url(#p6c74b65262)" style="fill: none; stroke: #ffffff; stroke-width: 2; stroke-linecap: round"/>
     </g>
     <g id="text_16">
      <!-- 0.8 -->
      <g style="fill: #262626" transform="translate(936.741811 300.596563) scale(0.22 -0.22)">
       <use xlink:href="#DejaVuSans-30"/>
       <use xlink:href="#DejaVuSans-2e" transform="translate(63.623047 0)"/>
       <use xlink:href="#DejaVuSans-38" transform="translate(95.410156 0)"/>
      </g>
     </g>
    </g>
    <g id="xtick_12">
     <g id="line2d_16">
      <path d="M 1029.201296 268.38 
L 1029.201296 25.92 
" clip-path="url(#p6c74b65262)" style="fill: none; stroke: #ffffff; stroke-width: 2; stroke-linecap: round"/>
     </g>
     <g id="text_17">
      <!-- 1.0 -->
      <g style="fill: #262626" transform="translate(1011.707858 300.596563) scale(0.22 -0.22)">
       <use xlink:href="#DejaVuSans-31"/>
       <use xlink:href="#DejaVuSans-2e" transform="translate(63.623047 0)"/>
       <use xlink:href="#DejaVuSans-30" transform="translate(95.410156 0)"/>
      </g>
     </g>
    </g>
    <g id="text_18">
     <!-- lrp -->
     <g style="fill: #262626" transform="translate(821.145964 327.408125) scale(0.24 -0.24)">
      <defs>
       <path id="DejaVuSans-6c" d="M 603 4863 
L 1178 4863 
L 1178 0 
L 603 0 
L 603 4863 
z
" transform="scale(0.015625)"/>
       <path id="DejaVuSans-72" d="M 2631 2963 
Q 2534 3019 2420 3045 
Q 2306 3072 2169 3072 
Q 1681 3072 1420 2755 
Q 1159 2438 1159 1844 
L 1159 0 
L 581 0 
L 581 3500 
L 1159 3500 
L 1159 2956 
Q 1341 3275 1631 3429 
Q 1922 3584 2338 3584 
Q 2397 3584 2469 3576 
Q 2541 3569 2628 3553 
L 2631 2963 
z
" transform="scale(0.015625)"/>
       <path id="DejaVuSans-70" d="M 1159 525 
L 1159 -1331 
L 581 -1331 
L 581 3500 
L 1159 3500 
L 1159 2969 
Q 1341 3281 1617 3432 
Q 1894 3584 2278 3584 
Q 2916 3584 3314 3078 
Q 3713 2572 3713 1747 
Q 3713 922 3314 415 
Q 2916 -91 2278 -91 
Q 1894 -91 1617 61 
Q 1341 213 1159 525 
z
M 3116 1747 
Q 3116 2381 2855 2742 
Q 2594 3103 2138 3103 
Q 1681 3103 1420 2742 
Q 1159 2381 1159 1747 
Q 1159 1113 1420 752 
Q 1681 391 2138 391 
Q 2594 391 2855 752 
Q 3116 1113 3116 1747 
z
" transform="scale(0.015625)"/>
      </defs>
      <use xlink:href="#DejaVuSans-6c"/>
      <use xlink:href="#DejaVuSans-72" transform="translate(27.783203 0)"/>
      <use xlink:href="#DejaVuSans-70" transform="translate(68.896484 0)"/>
     </g>
    </g>
   </g>
   <g id="matplotlib.axis_4">
    <g id="ytick_4">
     <g id="line2d_17">
      <path d="M 636.105069 268.38 
L 1037.95686 268.38 
" clip-path="url(#p6c74b65262)" style="fill: none; stroke: #ffffff; stroke-width: 2; stroke-linecap: round"/>
     </g>
     <g id="text_19">
      <!-- 0 -->
      <g style="fill: #262626" transform="translate(606.607569 276.738281) scale(0.22 -0.22)">
       <use xlink:href="#DejaVuSans-30"/>
      </g>
     </g>
    </g>
    <g id="ytick_5">
     <g id="line2d_18">
      <path d="M 636.105069 179.39569 
L 1037.95686 179.39569 
" clip-path="url(#p6c74b65262)" style="fill: none; stroke: #ffffff; stroke-width: 2; stroke-linecap: round"/>
     </g>
     <g id="text_20">
      <!-- 200 -->
      <g style="fill: #262626" transform="translate(578.612569 187.753971) scale(0.22 -0.22)">
       <use xlink:href="#DejaVuSans-32"/>
       <use xlink:href="#DejaVuSans-30" transform="translate(63.623047 0)"/>
       <use xlink:href="#DejaVuSans-30" transform="translate(127.246094 0)"/>
      </g>
     </g>
    </g>
    <g id="ytick_6">
     <g id="line2d_19">
      <path d="M 636.105069 90.411379 
L 1037.95686 90.411379 
" clip-path="url(#p6c74b65262)" style="fill: none; stroke: #ffffff; stroke-width: 2; stroke-linecap: round"/>
     </g>
     <g id="text_21">
      <!-- 400 -->
      <g style="fill: #262626" transform="translate(578.612569 98.76966) scale(0.22 -0.22)">
       <use xlink:href="#DejaVuSans-34"/>
       <use xlink:href="#DejaVuSans-30" transform="translate(63.623047 0)"/>
       <use xlink:href="#DejaVuSans-30" transform="translate(127.246094 0)"/>
      </g>
     </g>
    </g>
    <g id="text_22">
     <!-- Count -->
     <g style="fill: #262626" transform="translate(569.621319 182.78625) rotate(-90) scale(0.24 -0.24)">
      <use xlink:href="#DejaVuSans-43"/>
      <use xlink:href="#DejaVuSans-6f" transform="translate(69.824219 0)"/>
      <use xlink:href="#DejaVuSans-75" transform="translate(131.005859 0)"/>
      <use xlink:href="#DejaVuSans-6e" transform="translate(194.384766 0)"/>
      <use xlink:href="#DejaVuSans-74" transform="translate(257.763672 0)"/>
     </g>
    </g>
   </g>
   <g id="patch_52">
    <path d="M 654.371059 268.38 
L 661.981889 268.38 
L 661.981889 114.882064 
L 654.371059 114.882064 
z
" clip-path="url(#p6c74b65262)" style="fill: #4ab31a; fill-opacity: 0.5; stroke: #ffffff; stroke-width: 0.720558; stroke-linejoin: miter"/>
   </g>
   <g id="patch_53">
    <path d="M 661.981889 268.38 
L 669.592718 268.38 
L 669.592718 249.693295 
L 661.981889 249.693295 
z
" clip-path="url(#p6c74b65262)" style="fill: #4ab31a; fill-opacity: 0.5; stroke: #ffffff; stroke-width: 0.720558; stroke-linejoin: miter"/>
   </g>
   <g id="patch_54">
    <path d="M 669.592718 268.38 
L 677.203547 268.38 
L 677.203547 238.125334 
L 669.592718 238.125334 
z
" clip-path="url(#p6c74b65262)" style="fill: #4ab31a; fill-opacity: 0.5; stroke: #ffffff; stroke-width: 0.720558; stroke-linejoin: miter"/>
   </g>
   <g id="patch_55">
    <path d="M 677.203547 268.38 
L 684.814377 268.38 
L 684.814377 223.442923 
L 677.203547 223.442923 
z
" clip-path="url(#p6c74b65262)" style="fill: #4ab31a; fill-opacity: 0.5; stroke: #ffffff; stroke-width: 0.720558; stroke-linejoin: miter"/>
   </g>
   <g id="patch_56">
    <path d="M 684.814377 268.38 
L 692.425206 268.38 
L 692.425206 198.972238 
L 684.814377 198.972238 
z
" clip-path="url(#p6c74b65262)" style="fill: #4ab31a; fill-opacity: 0.5; stroke: #ffffff; stroke-width: 0.720558; stroke-linejoin: miter"/>
   </g>
   <g id="patch_57">
    <path d="M 692.425206 268.38 
L 700.036036 268.38 
L 700.036036 175.836317 
L 692.425206 175.836317 
z
" clip-path="url(#p6c74b65262)" style="fill: #4ab31a; fill-opacity: 0.5; stroke: #ffffff; stroke-width: 0.720558; stroke-linejoin: miter"/>
   </g>
   <g id="patch_58">
    <path d="M 700.036036 268.38 
L 707.646865 268.38 
L 707.646865 170.052337 
L 700.036036 170.052337 
z
" clip-path="url(#p6c74b65262)" style="fill: #4ab31a; fill-opacity: 0.5; stroke: #ffffff; stroke-width: 0.720558; stroke-linejoin: miter"/>
   </g>
   <g id="patch_59">
    <path d="M 707.646865 268.38 
L 715.257694 268.38 
L 715.257694 136.238299 
L 707.646865 136.238299 
z
" clip-path="url(#p6c74b65262)" style="fill: #4ab31a; fill-opacity: 0.5; stroke: #ffffff; stroke-width: 0.720558; stroke-linejoin: miter"/>
   </g>
   <g id="patch_60">
    <path d="M 715.257694 268.38 
L 722.868524 268.38 
L 722.868524 101.979339 
L 715.257694 101.979339 
z
" clip-path="url(#p6c74b65262)" style="fill: #4ab31a; fill-opacity: 0.5; stroke: #ffffff; stroke-width: 0.720558; stroke-linejoin: miter"/>
   </g>
   <g id="patch_61">
    <path d="M 722.868524 268.38 
L 730.479353 268.38 
L 730.479353 90.856301 
L 722.868524 90.856301 
z
" clip-path="url(#p6c74b65262)" style="fill: #4ab31a; fill-opacity: 0.5; stroke: #ffffff; stroke-width: 0.720558; stroke-linejoin: miter"/>
   </g>
   <g id="patch_62">
    <path d="M 730.479353 268.38 
L 738.090182 268.38 
L 738.090182 80.623105 
L 730.479353 80.623105 
z
" clip-path="url(#p6c74b65262)" style="fill: #4ab31a; fill-opacity: 0.5; stroke: #ffffff; stroke-width: 0.720558; stroke-linejoin: miter"/>
   </g>
   <g id="patch_63">
    <path d="M 738.090182 268.38 
L 745.701012 268.38 
L 745.701012 58.821949 
L 738.090182 58.821949 
z
" clip-path="url(#p6c74b65262)" style="fill: #4ab31a; fill-opacity: 0.5; stroke: #ffffff; stroke-width: 0.720558; stroke-linejoin: miter"/>
   </g>
   <g id="patch_64">
    <path d="M 745.701012 268.38 
L 753.311841 268.38 
L 753.311841 53.48289 
L 745.701012 53.48289 
z
" clip-path="url(#p6c74b65262)" style="fill: #4ab31a; fill-opacity: 0.5; stroke: #ffffff; stroke-width: 0.720558; stroke-linejoin: miter"/>
   </g>
   <g id="patch_65">
    <path d="M 753.311841 268.38 
L 760.922671 268.38 
L 760.922671 41.91493 
L 753.311841 41.91493 
z
" clip-path="url(#p6c74b65262)" style="fill: #4ab31a; fill-opacity: 0.5; stroke: #ffffff; stroke-width: 0.720558; stroke-linejoin: miter"/>
   </g>
   <g id="patch_66">
    <path d="M 760.922671 268.38 
L 768.5335 268.38 
L 768.5335 64.605929 
L 760.922671 64.605929 
z
" clip-path="url(#p6c74b65262)" style="fill: #4ab31a; fill-opacity: 0.5; stroke: #ffffff; stroke-width: 0.720558; stroke-linejoin: miter"/>
   </g>
   <g id="patch_67">
    <path d="M 768.5335 268.38 
L 776.144329 268.38 
L 776.144329 37.465714 
L 768.5335 37.465714 
z
" clip-path="url(#p6c74b65262)" style="fill: #4ab31a; fill-opacity: 0.5; stroke: #ffffff; stroke-width: 0.720558; stroke-linejoin: miter"/>
   </g>
   <g id="patch_68">
    <path d="M 776.144329 268.38 
L 783.755159 268.38 
L 783.755159 49.478596 
L 776.144329 49.478596 
z
" clip-path="url(#p6c74b65262)" style="fill: #4ab31a; fill-opacity: 0.5; stroke: #ffffff; stroke-width: 0.720558; stroke-linejoin: miter"/>
   </g>
   <g id="patch_69">
    <path d="M 783.755159 268.38 
L 791.365988 268.38 
L 791.365988 56.152419 
L 783.755159 56.152419 
z
" clip-path="url(#p6c74b65262)" style="fill: #4ab31a; fill-opacity: 0.5; stroke: #ffffff; stroke-width: 0.720558; stroke-linejoin: miter"/>
   </g>
   <g id="patch_70">
    <path d="M 791.365988 268.38 
L 798.976817 268.38 
L 798.976817 82.847713 
L 791.365988 82.847713 
z
" clip-path="url(#p6c74b65262)" style="fill: #4ab31a; fill-opacity: 0.5; stroke: #ffffff; stroke-width: 0.720558; stroke-linejoin: miter"/>
   </g>
   <g id="patch_71">
    <path d="M 798.976817 268.38 
L 806.587647 268.38 
L 806.587647 100.644575 
L 798.976817 100.644575 
z
" clip-path="url(#p6c74b65262)" style="fill: #4ab31a; fill-opacity: 0.5; stroke: #ffffff; stroke-width: 0.720558; stroke-linejoin: miter"/>
   </g>
   <g id="patch_72">
    <path d="M 806.587647 268.38 
L 814.198476 268.38 
L 814.198476 116.661751 
L 806.587647 116.661751 
z
" clip-path="url(#p6c74b65262)" style="fill: #4ab31a; fill-opacity: 0.5; stroke: #ffffff; stroke-width: 0.720558; stroke-linejoin: miter"/>
   </g>
   <g id="patch_73">
    <path d="M 814.198476 268.38 
L 821.809306 268.38 
L 821.809306 134.458613 
L 814.198476 134.458613 
z
" clip-path="url(#p6c74b65262)" style="fill: #4ab31a; fill-opacity: 0.5; stroke: #ffffff; stroke-width: 0.720558; stroke-linejoin: miter"/>
   </g>
   <g id="patch_74">
    <path d="M 821.809306 268.38 
L 829.420135 268.38 
L 829.420135 128.674633 
L 821.809306 128.674633 
z
" clip-path="url(#p6c74b65262)" style="fill: #4ab31a; fill-opacity: 0.5; stroke: #ffffff; stroke-width: 0.720558; stroke-linejoin: miter"/>
   </g>
   <g id="patch_75">
    <path d="M 829.420135 268.38 
L 837.030964 268.38 
L 837.030964 153.145318 
L 829.420135 153.145318 
z
" clip-path="url(#p6c74b65262)" style="fill: #4ab31a; fill-opacity: 0.5; stroke: #ffffff; stroke-width: 0.720558; stroke-linejoin: miter"/>
   </g>
   <g id="patch_76">
    <path d="M 837.030964 268.38 
L 844.641794 268.38 
L 844.641794 169.162494 
L 837.030964 169.162494 
z
" clip-path="url(#p6c74b65262)" style="fill: #4ab31a; fill-opacity: 0.5; stroke: #ffffff; stroke-width: 0.720558; stroke-linejoin: miter"/>
   </g>
   <g id="patch_77">
    <path d="M 844.641794 268.38 
L 852.252623 268.38 
L 852.252623 190.518728 
L 844.641794 190.518728 
z
" clip-path="url(#p6c74b65262)" style="fill: #4ab31a; fill-opacity: 0.5; stroke: #ffffff; stroke-width: 0.720558; stroke-linejoin: miter"/>
   </g>
   <g id="patch_78">
    <path d="M 852.252623 268.38 
L 859.863452 268.38 
L 859.863452 205.646061 
L 852.252623 205.646061 
z
" clip-path="url(#p6c74b65262)" style="fill: #4ab31a; fill-opacity: 0.5; stroke: #ffffff; stroke-width: 0.720558; stroke-linejoin: miter"/>
   </g>
   <g id="patch_79">
    <path d="M 859.863452 268.38 
L 867.474282 268.38 
L 867.474282 204.756218 
L 859.863452 204.756218 
z
" clip-path="url(#p6c74b65262)" style="fill: #4ab31a; fill-opacity: 0.5; stroke: #ffffff; stroke-width: 0.720558; stroke-linejoin: miter"/>
   </g>
   <g id="patch_80">
    <path d="M 867.474282 268.38 
L 875.085111 268.38 
L 875.085111 215.434335 
L 867.474282 215.434335 
z
" clip-path="url(#p6c74b65262)" style="fill: #4ab31a; fill-opacity: 0.5; stroke: #ffffff; stroke-width: 0.720558; stroke-linejoin: miter"/>
   </g>
   <g id="patch_81">
    <path d="M 875.085111 268.38 
L 882.69594 268.38 
L 882.69594 216.7691 
L 875.085111 216.7691 
z
" clip-path="url(#p6c74b65262)" style="fill: #4ab31a; fill-opacity: 0.5; stroke: #ffffff; stroke-width: 0.720558; stroke-linejoin: miter"/>
   </g>
   <g id="patch_82">
    <path d="M 882.69594 268.38 
L 890.30677 268.38 
L 890.30677 229.226903 
L 882.69594 229.226903 
z
" clip-path="url(#p6c74b65262)" style="fill: #4ab31a; fill-opacity: 0.5; stroke: #ffffff; stroke-width: 0.720558; stroke-linejoin: miter"/>
   </g>
   <g id="patch_83">
    <path d="M 890.30677 268.38 
L 897.917599 268.38 
L 897.917599 232.786276 
L 890.30677 232.786276 
z
" clip-path="url(#p6c74b65262)" style="fill: #4ab31a; fill-opacity: 0.5; stroke: #ffffff; stroke-width: 0.720558; stroke-linejoin: miter"/>
   </g>
   <g id="patch_84">
    <path d="M 897.917599 268.38 
L 905.528429 268.38 
L 905.528429 239.460099 
L 897.917599 239.460099 
z
" clip-path="url(#p6c74b65262)" style="fill: #4ab31a; fill-opacity: 0.5; stroke: #ffffff; stroke-width: 0.720558; stroke-linejoin: miter"/>
   </g>
   <g id="patch_85">
    <path d="M 905.528429 268.38 
L 913.139258 268.38 
L 913.139258 243.464393 
L 905.528429 243.464393 
z
" clip-path="url(#p6c74b65262)" style="fill: #4ab31a; fill-opacity: 0.5; stroke: #ffffff; stroke-width: 0.720558; stroke-linejoin: miter"/>
   </g>
   <g id="patch_86">
    <path d="M 913.139258 268.38 
L 920.750087 268.38 
L 920.750087 247.023765 
L 913.139258 247.023765 
z
" clip-path="url(#p6c74b65262)" style="fill: #4ab31a; fill-opacity: 0.5; stroke: #ffffff; stroke-width: 0.720558; stroke-linejoin: miter"/>
   </g>
   <g id="patch_87">
    <path d="M 920.750087 268.38 
L 928.360917 268.38 
L 928.360917 249.248373 
L 920.750087 249.248373 
z
" clip-path="url(#p6c74b65262)" style="fill: #4ab31a; fill-opacity: 0.5; stroke: #ffffff; stroke-width: 0.720558; stroke-linejoin: miter"/>
   </g>
   <g id="patch_88">
    <path d="M 928.360917 268.38 
L 935.971746 268.38 
L 935.971746 254.14251 
L 928.360917 254.14251 
z
" clip-path="url(#p6c74b65262)" style="fill: #4ab31a; fill-opacity: 0.5; stroke: #ffffff; stroke-width: 0.720558; stroke-linejoin: miter"/>
   </g>
   <g id="patch_89">
    <path d="M 935.971746 268.38 
L 943.582575 268.38 
L 943.582575 247.023765 
L 935.971746 247.023765 
z
" clip-path="url(#p6c74b65262)" style="fill: #4ab31a; fill-opacity: 0.5; stroke: #ffffff; stroke-width: 0.720558; stroke-linejoin: miter"/>
   </g>
   <g id="patch_90">
    <path d="M 943.582575 268.38 
L 951.193405 268.38 
L 951.193405 250.138216 
L 943.582575 250.138216 
z
" clip-path="url(#p6c74b65262)" style="fill: #4ab31a; fill-opacity: 0.5; stroke: #ffffff; stroke-width: 0.720558; stroke-linejoin: miter"/>
   </g>
   <g id="patch_91">
    <path d="M 951.193405 268.38 
L 958.804234 268.38 
L 958.804234 257.701883 
L 951.193405 257.701883 
z
" clip-path="url(#p6c74b65262)" style="fill: #4ab31a; fill-opacity: 0.5; stroke: #ffffff; stroke-width: 0.720558; stroke-linejoin: miter"/>
   </g>
   <g id="patch_92">
    <path d="M 958.804234 268.38 
L 966.415064 268.38 
L 966.415064 256.367118 
L 958.804234 256.367118 
z
" clip-path="url(#p6c74b65262)" style="fill: #4ab31a; fill-opacity: 0.5; stroke: #ffffff; stroke-width: 0.720558; stroke-linejoin: miter"/>
   </g>
   <g id="patch_93">
    <path d="M 966.415064 268.38 
L 974.025893 268.38 
L 974.025893 251.028059 
L 966.415064 251.028059 
z
" clip-path="url(#p6c74b65262)" style="fill: #4ab31a; fill-opacity: 0.5; stroke: #ffffff; stroke-width: 0.720558; stroke-linejoin: miter"/>
   </g>
   <g id="patch_94">
    <path d="M 974.025893 268.38 
L 981.636722 268.38 
L 981.636722 256.367118 
L 974.025893 256.367118 
z
" clip-path="url(#p6c74b65262)" style="fill: #4ab31a; fill-opacity: 0.5; stroke: #ffffff; stroke-width: 0.720558; stroke-linejoin: miter"/>
   </g>
   <g id="patch_95">
    <path d="M 981.636722 268.38 
L 989.247552 268.38 
L 989.247552 258.591726 
L 981.636722 258.591726 
z
" clip-path="url(#p6c74b65262)" style="fill: #4ab31a; fill-opacity: 0.5; stroke: #ffffff; stroke-width: 0.720558; stroke-linejoin: miter"/>
   </g>
   <g id="patch_96">
    <path d="M 989.247552 268.38 
L 996.858381 268.38 
L 996.858381 263.040941 
L 989.247552 263.040941 
z
" clip-path="url(#p6c74b65262)" style="fill: #4ab31a; fill-opacity: 0.5; stroke: #ffffff; stroke-width: 0.720558; stroke-linejoin: miter"/>
   </g>
   <g id="patch_97">
    <path d="M 996.858381 268.38 
L 1004.46921 268.38 
L 1004.46921 259.036647 
L 996.858381 259.036647 
z
" clip-path="url(#p6c74b65262)" style="fill: #4ab31a; fill-opacity: 0.5; stroke: #ffffff; stroke-width: 0.720558; stroke-linejoin: miter"/>
   </g>
   <g id="patch_98">
    <path d="M 1004.46921 268.38 
L 1012.08004 268.38 
L 1012.08004 263.930784 
L 1004.46921 263.930784 
z
" clip-path="url(#p6c74b65262)" style="fill: #4ab31a; fill-opacity: 0.5; stroke: #ffffff; stroke-width: 0.720558; stroke-linejoin: miter"/>
   </g>
   <g id="patch_99">
    <path d="M 1012.08004 268.38 
L 1019.690869 268.38 
L 1019.690869 266.600314 
L 1012.08004 266.600314 
z
" clip-path="url(#p6c74b65262)" style="fill: #4ab31a; fill-opacity: 0.5; stroke: #ffffff; stroke-width: 0.720558; stroke-linejoin: miter"/>
   </g>
   <g id="line2d_20">
    <path d="M 654.371059 219.070733 
L 656.206837 218.082655 
L 658.042615 218.089171 
L 659.878393 218.933281 
L 661.714171 220.380345 
L 665.385727 223.950279 
L 667.221505 225.512751 
L 669.057283 226.615334 
L 670.893061 227.098435 
L 672.728839 226.869004 
L 674.564617 225.895881 
L 676.400395 224.199069 
L 678.236173 221.836108 
L 680.071951 218.888282 
L 681.907728 215.448439 
L 683.743506 211.611291 
L 687.415062 203.092204 
L 691.086618 193.901976 
L 696.593952 179.497561 
L 702.101286 164.354474 
L 705.772842 153.641457 
L 711.280175 136.6955 
L 716.787509 119.630123 
L 720.459065 108.920308 
L 724.130621 99.126957 
L 727.802177 90.348633 
L 731.473733 82.524728 
L 735.145289 75.55595 
L 738.816845 69.403779 
L 740.652622 66.645432 
L 742.4884 64.112072 
L 744.324178 61.814161 
L 746.159956 59.759973 
L 747.995734 57.953821 
L 749.831512 56.3948 
L 751.66729 55.076086 
L 753.503068 53.98478 
L 755.338846 53.102376 
L 757.174624 52.40596 
L 759.010402 51.870249 
L 760.84618 51.47046 
L 764.517736 51.002828 
L 768.189292 50.943298 
L 770.025069 51.097935 
L 771.860847 51.415007 
L 773.696625 51.933778 
L 775.532403 52.696088 
L 777.368181 53.741676 
L 779.203959 55.104011 
L 781.039737 56.807143 
L 782.875515 58.863795 
L 784.711293 61.27464 
L 786.547071 64.028539 
L 788.382849 67.103459 
L 790.218627 70.467839 
L 793.890183 77.901184 
L 799.397517 90.081461 
L 804.90485 102.299023 
L 808.576406 109.91602 
L 812.247962 116.906611 
L 815.919518 123.302613 
L 825.098408 138.507782 
L 828.769964 145.189233 
L 832.441519 152.472171 
L 837.948853 164.186273 
L 843.456187 175.894298 
L 847.127743 183.143717 
L 850.799299 189.660615 
L 852.635077 192.601009 
L 854.470855 195.322595 
L 856.306633 197.831295 
L 859.978188 202.275332 
L 863.649744 206.126919 
L 869.157078 211.320486 
L 885.67908 226.379903 
L 889.350635 229.46024 
L 893.022191 232.30623 
L 896.693747 234.906867 
L 900.365303 237.285409 
L 905.872637 240.521952 
L 911.379971 243.443164 
L 916.887305 246.038587 
L 920.55886 247.527994 
L 924.230416 248.757346 
L 927.901972 249.675134 
L 931.573528 250.277563 
L 937.080862 250.785789 
L 942.588196 251.311093 
L 946.259752 251.881866 
L 959.110197 254.241956 
L 964.617531 254.772107 
L 970.124865 255.328157 
L 973.796421 255.90719 
L 977.467977 256.682436 
L 992.1542 260.199136 
L 1005.004646 262.726604 
L 1010.511979 264.138465 
L 1017.855091 266.05691 
L 1019.690869 266.466258 
L 1019.690869 266.466258 
" clip-path="url(#p6c74b65262)" style="fill: none; stroke: #4ab31a; stroke-width: 3; stroke-linecap: round"/>
   </g>
   <g id="patch_100">
    <path d="M 636.105069 268.38 
L 636.105069 25.92 
" style="fill: none; stroke: #ffffff; stroke-width: 2.5; stroke-linejoin: miter; stroke-linecap: square"/>
   </g>
   <g id="patch_101">
    <path d="M 1037.95686 268.38 
L 1037.95686 25.92 
" style="fill: none; stroke: #ffffff; stroke-width: 2.5; stroke-linejoin: miter; stroke-linecap: square"/>
   </g>
   <g id="patch_102">
    <path d="M 636.105069 268.38 
L 1037.95686 268.38 
" style="fill: none; stroke: #ffffff; stroke-width: 2.5; stroke-linejoin: miter; stroke-linecap: square"/>
   </g>
   <g id="patch_103">
    <path d="M 636.105069 25.92 
L 1037.95686 25.92 
" style="fill: none; stroke: #ffffff; stroke-width: 2.5; stroke-linejoin: miter; stroke-linecap: square"/>
   </g>
  </g>
 </g>
 <defs>
  <clipPath id="p7b872398ee">
   <rect x="111.345" y="25.92" width="401.851791" height="242.46"/>
  </clipPath>
  <clipPath id="p6c74b65262">
   <rect x="636.105069" y="25.92" width="401.851791" height="242.46"/>
  </clipPath>
 </defs>
</svg>
